<?xml version="1.0" encoding="utf-8"?>
<!-- Generator: Adobe Illustrator 25.4.1, SVG Export Plug-In . SVG Version: 6.00 Build 0)  -->
<svg version="1.1" id="Layer_1" xmlns="http://www.w3.org/2000/svg" xmlns:xlink="http://www.w3.org/1999/xlink" x="0px" y="0px"
	 viewBox="0 0 1000 1000" style="enable-background:new 0 0 1000 1000;" xml:space="preserve">
<style type="text/css">
	.st0{fill:#414042;}
	.st1{fill:url(#SVGID_1_);}
	.st2{fill:#FFFFFF;}
	.st3{fill:url(#SVGID_00000129174883163554408820000001702013424484362382_);}
	.st4{fill:#754C29;}
	.st5{fill:url(#SVGID_00000022539201113734994110000009796592028231768226_);}
	.st6{fill:#363F45;}
	.st7{clip-path:url(#SVGID_00000132783729248691200230000004458794646436959918_);}
	.st8{opacity:0.25;clip-path:url(#SVGID_00000122697879250690071300000009395004082548106398_);}
	.st9{fill:#414141;}
	.st10{fill:#939598;}
	.st11{fill:url(#SVGID_00000042725420006217577040000012871483476034901922_);}
	.st12{fill:url(#SVGID_00000139267096202468775810000015732019303713272198_);}
	.st13{fill:url(#SVGID_00000005264284755431274110000009251643880625292693_);}
</style>
<g>
	<path d="M552.6,485c0,2.5,0.1,5.1,0.1,7.6c0,1.2,0,1.3,1.2,1.1c1.8-0.3,3.3-1.2,4.5-2.6c1.3-1.5,1.9-3.4,2.3-5.3
		c0.8-4.1,0.7-8.3,0.2-12.4c-0.3-2.1-0.8-4.2-1.7-6.2c-0.5-1-1-1.9-1.9-2.7c-1.2-1.1-2.7-1.6-4.3-1.6c-0.5,0-0.7,0.2-0.7,0.7
		c0,0.4,0,0.8,0,1.1c0,4.5,0,9.1,0,13.6c0.1,0,0.2,0,0.3,0C552.6,480.6,552.6,482.8,552.6,485z"/>
	<path d="M492.8,527.7c0.4,1,1.1,1.7,2.3,1.7c1.2,0,1.7-0.8,2-1.7c0.4-0.9,0.5-1.8,0.7-2.8c0.6-3.6,0.7-7.2,0.8-10.9
		c0.1-6.5,0.2-12.9,0.3-18.8c-0.1-9.1,0-17.6-0.6-26.1c-0.1-2.1-0.3-4.3-0.9-6.4c-0.2-0.8-0.5-1.7-1.1-2.3c-0.7-0.7-1.6-1-2.5-0.6
		c-0.7,0.3-1.2,1-1.5,1.7c-0.4,0.9-0.6,1.9-0.7,2.9c-0.6,4.5-0.7,9-0.8,13.5c-0.1,7.6-0.1,15.2-0.1,22.9c0,7.3,0.1,14.7,0.9,22
		C491.9,524.5,492.1,526.1,492.8,527.7z"/>
	<path d="M714.9,681.9c-0.9-0.6-2.7-1-5.3-1.3c-1.9,18.4-3.7,36.8-5.6,55.2c3.2,0.3,5.3-0.1,6.2-1.3c0.9-1.2,1.6-4.6,2.3-10.2
		c1.2-10.9,2.4-21.7,3.6-32.6c0.4-3.8,0.6-6.2,0.4-7.3C716.3,683.3,715.8,682.5,714.9,681.9z"/>
	<path d="M534.4,688.6c-0.3-2.7-1-4.3-2.2-5c-1.1-0.7-3.1-0.9-5.9-0.5c0.8,6.2,1.6,12.4,2.4,18.6c2.6-0.3,4.5-0.9,5.4-1.7
		c1-0.8,1.3-3,0.8-6.7C534.8,691.4,534.7,690.5,534.4,688.6z"/>
	<path d="M439.5,716.8c0.4-1.2,0-4.2-1.2-9.1c-0.6-2.6-1.3-4.3-2.1-5.2c-0.8-0.9-1.6-1.4-2.5-1.4c-0.9-0.1-2.6,0.2-5,0.8
		c1.6,6.1,3.1,12.1,4.7,18.2c1-0.3,1.7-0.5,2.3-0.6C437.8,718.8,439.1,718,439.5,716.8z"/>
	<path d="M699.6,601.2c1-0.9,1.6-2.9,1.9-6c0.2-2.8,0.4-4.1,0.6-6.9c0.3-2.9-0.1-4.8-1.1-5.7c-1-1-3.2-1.6-6.5-1.8
		c-0.6,7.1-1.1,14.3-1.7,21.4c0.7,0.1,1.3,0.2,1.9,0.2C696.9,602.5,698.6,602.1,699.6,601.2z"/>
	<path d="M568.3,584.7c-1,11.9-2,23.8-2.2,35.7c3.4-0.3,5.1-0.4,8.5-0.6C572.3,608.2,570.3,596.4,568.3,584.7z"/>
	<path d="M774.6,694.3c-3.9,11.3-7.7,22.5-10.8,34c3.1,0.6,4.7,0.9,7.8,1.4C772.4,717.9,773.5,706.1,774.6,694.3z"/>
	<path d="M877,687.4c-2.3-6.5-7.6-11.4-14.1-13.3c-7.5-2.2-15.1-4.3-22.7-6.2c-2.2-0.6-4.5-0.8-6.7-0.6c-1.9-1.2-4-2.1-6.2-2.6
		c-7.6-1.8-15.3-3.6-22.8-5.2c-0.9-0.2-1.8-0.3-2.8-0.4c-0.9-0.3-1.9-0.6-2.8-0.8c-6.7-1.3-13.4-2.6-20.1-3.9l3.1-18.7
		c8.3-15.4,17-30.8,25.9-45.9c3-5,3.7-11,2.1-16.6c1.5,0.2,3.1,0.4,4.6,0.5c6.9,0.8,13.9,1.6,20.8,2.4c2.1,0.2,4.2,0.6,6.3,0.8
		c0-52.1,0-104.2,0-156.2c-2-0.2-4,0.2-6,0.4c-6.3,0.5-12.5,1.1-18.8,1.7c-6.8,0.6-13.5,1.3-20.3,1.9c-5.9,0.5-11.7,1.1-17.6,1.6
		c-1.1,0.1-1.7-0.3-2.2-1.2c-1.1-2.2-2.3-4.4-3.3-6.7c-0.7-1.5-1.5-2.8-3.2-3.3c-0.8-0.2-1.7-0.4-2.5-0.6c-0.4-0.1-0.8-0.3-1.2-0.4
		c-1.3-0.4-1.4-0.6-1.3-2c0.4-4.1,1.1-8.1,1.8-12.1c0.1-0.6,0.2-1.2,0.4-1.8c0.4-2.2,2.3-3.6,4.6-3.4c0.5,0,0.9,0.2,1.4,0.3
		c0.6,0.2,1,0.6,1.1,1.3c0.2,1.4,0.2,2.8,0.1,4.2c0,0.6-0.3,1-0.8,1.4c-2.5,2-3.1,5.9-1.5,8.6c0.7,1.1,1.6,1.8,2.9,1.8
		c1.3,0,2.2-0.8,2.7-2c0.9-1.9,1-3.9,0.4-5.9c-0.2-0.9-0.7-1.7-1.5-2.2c-0.9-0.7-1.3-1.6-1.3-2.8c0-1.1,0-2.1,0-3.2
		c-0.1-1.8,0.9-2.9,2.4-3.8c0.6,1.7,0.6,1.7,2,0.8c0.8-0.5,1-0.5,1.3,0.5c0,0.1,0.1,0.3,0.1,0.4c0.2,0.7,0.9,0.4,1.3,0.6
		c0.4,0.3,0,1.1,0.6,1.4c0.2,0.1,0.4,0.1,0.5,0c3.5-1.8,6-6.4,5.5-9.4c-0.1-0.3-0.1-0.7-0.2-1c-1.5-3.7-3.6-7-7.3-8.6
		c-3.7-1.6-7.3-0.8-10.5,1.3c-1.8,1.2-2.4,3.2-2.7,5.2c-0.4,2.1-0.3,4.3,0.2,6.4c0,0.1,0,0.3,0.1,0.4c0.3,0.9,0.7,1,1.6,0.2
		c0.2,0.4,0.3,1,1,1c0.6-0.1,0.7-0.7,1.2-1c0.1,0,0.2,0.1,0.2,0.1c0.9,1.7,0.9,1.7,2.4,0.3c0.4,0.7,0.3,1.4,0.1,2
		c-0.2,0.7-0.8,0.7-1.3,0.5c-0.6-0.2-1.2-0.5-1.8-0.9c-0.9-0.5-1.8-0.9-2.8-0.1c-0.3,0.3-0.6,0.2-0.8-0.3c-0.9-2.7-2.1-5.4-2.5-8.2
		c-0.2-1.4-0.4-2.8-0.4-4.3c0.1-3.4,0.3-6.8,0.4-10.2c0-0.6,0-1.3,0.7-1.6c0.4-0.2,0.7-0.2,0.8,0.3c0.1,0.8,0,1.5,0.3,2.3
		c0.3,1,0.7,1.1,1.6,0.5c0.4-0.3,0.7-0.8,1.2-1c0.1,0,0.2,0,0.3,0c0.3,0.3,0.3,0.7,0.4,1c0.4,1,0.8,1.1,1.8,0.7
		c0.8-0.3,1.3-0.9,1.8-1.6c0.4-0.5,0.6-1.2,1.2-1.6c0.1,0.1,0.2,0.1,0.3,0.2c0.7,1.1,1.4,1.1,2.1,0.1c0.4-0.6,0.4-1.4,1-2
		c0.1,0.4,0.2,0.7,0.4,1.1c0.3,0.8,0.8,0.9,1.6,0.4c0.3-0.2,0.5-0.7,1-0.7c-0.1,2.3-0.1,2.3,0.8,3.5c0.4-0.1,0.5-0.5,0.7-0.8
		c0.2-0.3,0.4-0.6,0.7-1c0.3,0.2,0.4,0.6,0.5,0.8c0.1,0.3,0.4,0.6,0.8,0.5c0.4,0,0.6-0.3,0.7-0.6c0.3-1,0.6-2,0.9-3.2
		c0.4,0.7,0.4,1.3,0.6,1.9c0.2,0.7,0.6,0.8,1.1,0.2c2.5-3.1,4.2-6.5,4.5-10.5c0.1-1.1-0.2-2.1-0.6-3.1c-1.6-3.8-3.3-7.4-6-10.6
		c-1.1-1.3-2.1-2.8-3-4.2c-2.8-4.5-6.6-7.9-11.2-10.6c-1-0.6-2-1-3-1.3c-1.9-0.6-3.9-0.6-5.8,0.1c-1.7,0.7-3.5,1.2-5.3,1.6
		c-1.7,0.4-3.2,1.2-4.4,2.5c-2.3,2.4-4.8,4.6-7.6,6.3c-0.9,0.5-1.6,1.2-2.3,2c-4.4,5.1-5.7,11-4.2,17.6c0.4,1.7,1.2,3.1,2.3,4.4
		c0.8,1,1.2,0.9,1.7-0.2c0.2-0.6,0.5-1,1.2-0.6c0.5,0.3,0.8-0.1,0.9-0.6c0.1-0.4,0.1-0.8,0.1-1.3c0-0.4-0.2-0.8,0-1.3
		c0.6,0,0.8,0.4,1.2,0.7c0.6,0.4,0.9,0.3,1.3-0.3c0.6-0.8,0.7-1.8,0.9-2.7c0.6,0.1,0.6,0.6,0.7,1c0.7,1.5,1.6,1.6,2.5,0.4
		c0.2-0.3,0.3-0.6,0.7-0.8c0.4,0.8,0.6,1.7,0.8,2.5c0.1,0.5,0.2,1,0.7,1.1c0.5,0.1,0.9-0.2,1.2-0.5c0.3-0.3,0.5-0.7,0.9-1.1
		c0.4,0.7,0.3,1.5,0.3,2.1c0,0.4,0,0.8,0,1.2c0.1,1.1,0.3,1.3,1.5,0.8c0.3,1,0.1,2.1,0.1,3.1c0,0.5-0.3,0.9-0.8,1.1
		c-0.5,0.2-0.8-0.1-1.1-0.4c-0.2-0.2-0.3-0.6-0.9-0.7c0.6,0.9,0.8,2,2.2,2.1c0.3,0,0.4,0.2,0.5,0.4c0.3,0.8,1,1.2,1.8,1.5
		c1.9,0.7,2.3,1.3,2,3.4c-0.8,5.7-0.4,11.3,0.5,16.9c0.2,1.1,0.3,2.2-0.2,3.3c-0.4,0.9-0.8,1-1.7,0.6c-1.1-0.5-1.7-1.5-2.1-2.7
		c-0.2,0.5,0,1-0.1,1.3c-0.1,1.3,0.5,2.1,1.6,2.6c0.3,0.1,0.5,0.3,0.8,0.4c0.6,0.2,0.7,0.6,0.5,1.2c-1.6,4.3-3.1,8.6-4.6,12.8
		c-0.2,0.6-0.5,0.9-1.2,0.7c-1.3-0.4-2.7-0.7-4.2-1.1c1.4-2.5,2.7-4.8,4-7.2c-1,0.2-1.6,0.9-2.3,1.5c-0.7,0.6-1.4,1.2-2,1.8
		c-0.7,0.6-1.4,1.3-2.1,1.9c-0.5-0.1-0.5-0.4-0.5-0.7c-0.4-1.3-0.7-1.6-2-1.5c-1.3,0-1.3,0-1.5-1.1c-0.2-1.2-0.8-2-2.3-2
		c0.9-1.5,2.2-2.4,3.1-3.9c-1.1,0.1-1.7,0.7-2.5,1.1c-1.5,0.9-2.2,0.8-3.7-0.2c-0.6-0.4-0.9-1-0.8-1.7c0-0.6,0.1-1.2-0.1-1.9
		c-1.5,1-1.8,3.2-4,3.6c1.6-4.4,3.1-8.6,4.6-13c-0.8,0.3-1,0.8-1.3,1.2c-2,3.2-4,6.4-6,9.6c-0.2,0.4-0.5,0.7-0.7,1.1
		c-0.2,0.3-0.6,0.6-1,0.3c-0.3-0.3-0.2-0.6,0-0.9c0.7-1.4,1.5-2.8,2.2-4.2c0.1-0.2,0.1-0.3,0.2-0.6c-0.6,0-0.9,0.4-1.2,0.6
		c-1,0.8-2.1,1.7-3.1,2.6c-0.2,0.2-0.4,0.4-0.7,0.6c-0.4,0.3-0.8,0.2-1.2,0c-0.5-0.3-0.5-0.7-0.4-1.1c0.4-2.3,0.9-4.5,1.3-6.8
		c0-0.2,0-0.4,0-0.6c-1.5,1.8-2.4,4-3.8,5.8c-0.4-0.2-0.3-0.5-0.4-0.8c-1.3-7.2-2.5-14.4-3.8-21.7c-0.1-0.3-0.1-0.7-0.2-1
		c-0.4-1.3-0.8-1.7-2.2-1.9c-3.1-0.3-6.1-0.7-9.1-1.2c-0.2-0.5,0.1-0.7,0.2-1.1c0.2-0.5,0.5-1.1,0.6-1.6c0.3-1,0-1.7-1-2.1
		c-0.8-0.3-0.9-0.8-0.7-1.5c0.7-4.4,0.2-8.8-0.6-13.1c-0.4-2.2-0.4-2.2,1.9-2.7c2-0.5,4-1,6-1.5c0.2-0.1,0.5-0.1,0.7-0.2
		c0.9-0.4,1.1-1.2,0.5-2c-0.4-0.6-1-1.1-1.6-1.6c-7.7-5.6-16.5-1.9-20.1,4.6c-0.1,0.3-0.3,0.5-0.3,0.8c-0.2,0.8,0.2,1.4,1.1,1.4
		c2.6,0.1,5.2,0,7.7-0.5c2.1-0.3,2.1-0.4,2.4,1.7c0.5,3.1,1.1,6.2,1.1,9.4c0,1.3-0.2,2.5-0.5,3.7c-0.1,0.7-0.3,1.2-1.2,1.1
		c-0.5-0.1-0.8,0.3-1,0.7c-0.3,0.7-0.3,1.5-0.1,2.2c0.1,0.5,0.2,0.9,0.4,1.5c-1.1-0.1-2-0.2-3-0.3c-0.7-0.1-1-0.4-0.9-1.1
		c0.2-1.1,0.3-2.2,0.1-3.3c-0.4-2-1.3-2.9-3.3-3.2c-2.1-0.3-2.1-0.3-2-2.4c0.1-1.1,0-2.1-0.3-3.1c-0.5-1.5-1.8-2.5-3.1-2.6
		c-1.3-0.1-2.2,0.7-2.3,2c-0.1,0.9,0,1.8,0.1,2.7c0.3,2.6,0.2,5.2-0.8,7.6c-0.7,1.6-1,1.7-2.6,1.5c-1.4-0.2-2.8-0.4-4.1-0.5
		c-1.2-0.1-1.4,0-1.4,1.3c-0.2,4.3-0.4,8.5-0.3,12.8c0,2.2-0.3,4.4-1.3,6.4c-0.5,1.1-0.8,2.3-0.7,3.5c0,1.5-0.1,3,0.2,4.4
		c0.1,0.5,0.1,1.1-0.7,1.2c-0.6,0.1-1-0.2-1.1-1c-0.1-0.5-0.1-1-0.1-1.4c-0.4-9.7-0.4-19.4-0.4-29c0-1,0.1-1.9,1.2-2.4
		c0.7-0.3,0.9-1,0.6-1.7c-0.1-0.2-0.2-0.4-0.3-0.7c-1.4-3.1-1.9-6.4-1.7-9.8c0.2-2.3,0-4.7,0-7c0-1.6-0.3-1.8-1.9-1.8
		c-1.7,0-1.8-0.1-2.3-1.8c-0.6-1.9-1.3-3.9-1.9-6c0.7,0,0.9,0.5,1.3,0.7c3.9,3.5,8.5,5.7,13.6,6.8c1.7,0.4,3.4,0.4,5.2,0.2
		c1.5-0.2,1.8-0.7,1.5-2.2c-0.3-1.2-0.8-2.3-1.3-3.4c-1-2.2-2.2-4.4-3.5-6.4c-0.6-1-0.9-2-0.7-3.1c0.5-3.1,0.8-6.2,1.1-9.3
		c0.2-2.3,1-4.1,3.8-4.6c-1.6-1.9-3.2-3.6-4.7-5.3c-0.6,0.3-0.6,0.9-0.8,1.3c-0.5,1.1-0.8,1.2-2,1c-1.9-0.3-3.9-0.6-5.8-1
		c-0.9-0.1-1.8-0.3-2.7-0.4c-1.5-0.2-2.7-0.9-3.6-2.1c-1.5-2.1-3.3-4-5.3-5.7c-0.5-0.4-1-0.8-1.5-1.1c-0.8-0.4-1.4-0.2-1.8,0.6
		c-0.4,0.8-0.5,1.7-0.7,2.6c-1.1,6.3-0.6,12.6,1.2,18.8c0.4,1.4,0.2,2.2-0.9,3.1c-3.3,2.7-3.7,6.1-1.4,9.7c0.4,0.7,0.9,1.4,1.3,2.1
		c0.8,1.4,1.1,2.9,0.7,4.6c-0.1,0.4-0.1,0.8,0,1.3c0.1,0.4,0.1,0.9,0.1,1.3c0,0.9-0.3,1.2-1.2,1.4c-1.1,0.2-2.1,0-3-0.7
		c-2-1.5-4-2.9-6.1-4.4c-1.1-0.8-1.2-0.7-1.7,0.5c-0.6,1.5-1.3,3-1.8,4.5c-0.4,1-0.9,1.7-2.2,1.6c-0.8-0.1-1.1,0.2-1.2,1.1
		c0,0.3,0,0.6,0,0.9c0.3,2.9-0.3,5.6-1.5,8.2c-1,2.1-1.8,4.2-2.7,6.3c-0.5,1.2-0.5,1.3,0.6,2c1,0.6,1.3,1.6,1.4,2.7
		c0,4.2,0.4,8.3,0.1,12.5c-0.1,1.6-0.2,3.1-0.6,4.8c-0.8-0.5-1.1-1.3-1.5-2c-1.4-2.9-2-6-2.3-9.1c-0.5-5.6,0.2-11.2,1-16.7
		c0.3-1.8,0.4-3.5,0.4-5.3c-0.1-8.7-0.2-17.5-0.3-26.2c0-1.2-0.3-2.3-1-3.4c-2-3.4-3.9-6.9-5.9-10.3c-1.4-2.4-2.4-5-2.3-7.9
		c0-0.8-0.1-1.6-0.2-2.4c-0.6-3.9-0.2-7.6,0.7-11.4c0.1-0.3,0.1-0.7,0.2-1c0.1-0.6-0.2-1-0.8-1.2c-2.6-0.9-3.4-1.9-3.4-4.6
		c0-1.1,0-2.2,0-3.3c0-1.3,0.2-1.5,1.6-1.5c0.3-0.4,0-0.8-0.1-1.2c-0.6-1.5-1.2-2.9-1.8-4.4c-0.6-1.6-0.8-3.3-0.6-5
		c0-0.6,0.1-1.1-0.4-1.6c-0.3-0.3-0.3-0.7,0-1.1c2.1-3,4.6-5.5,8.4-6.3c0.1,0,0.2,0,0.3,0c0.9-0.1,1.1,0.2,1,1.1
		c-0.1,0.7-0.4,1.4-0.6,2.1c-0.6,1.7-0.2,2.4,1.5,2.8c3.6,1,7.1,0.5,10.7-0.4c4.5-1.2,8.4-3.5,12-6.4c0.2-0.2,0.3-0.3,0.5-0.5
		c0-0.1,0-0.2,0-0.4c-1.1,0-2.1,0.2-3.1,0.3c-3.7,0.6-7.4,1-11.2,0.4c-1.4-0.2-2.8-0.6-4.1-1.1c-0.9-0.4-1-0.5-0.9-1.5
		c0-0.3,0.1-0.6,0.2-0.8c0.4-3-9.8-7.1-15.6,0.1c-0.6,0.7-1.3,0.4-1.3,1.3c0,1.2,0.2,2.5,0.3,3.7c0.3,2.4,0.4,4.7-0.6,6.9
		c-0.6,1.3-0.5,2.7-0.5,4.1c0,1.2-0.1,1.3-1.3,1.4c-1.8,0-3.6,0-5.5,0c-0.8,0-1.3,0.2-1.4,1c-0.2,0.7-0.4,1.5-0.7,2.2
		c-0.2,0.7-0.5,1.3,0.4,1.8c0.4,0.2,0.5,2.6,0.2,2.9c-0.3,0.4-0.7,0.1-1,0c-1.7-0.8-3.5-1.6-5.2-2.5c-0.2-0.1-0.4-0.2-0.6-0.3
		c-1.2-0.5-1.6-0.5-2.4,0.5c-1.3,1.6-2.6,3.2-3.9,4.8c-1.1,1.4-2.3,2.7-3.5,4c-1.1,1.2-1.4,2.6-1.2,4.3c0.4,3.2,1.2,6.3,1.1,9.6
		c0,0.9-0.1,1.7-0.1,2.6c-0.1,1.1-0.6,2-1.5,2.7c-1.4,1.2-2.7,2.5-4.1,3.8c-1.7-0.1-3-1.1-4.2-2.3c-5.1-4.9-9.3-10.8-15.7-14.2
		c-0.4-0.2-0.7-0.6-1-0.9c-1.9-1.7-3.6-3.7-6.6-2c-1,0.6-1.9-0.5-2.8-1.1c-16-11-32.2-21.8-47.8-33.3c-6.5-4.7-13.3-6.8-20.9-7.6
		c-15.4-1.6-30.6-4-45.5-8.2c-6.7-1.9-11.5-5.5-14.7-11.7c-4.9-9.4-12.2-16.2-22.2-20.2c-13.5-5.4-27.3-6.2-41.4-3.1
		c-2.3,0.5-3.8,0.2-4.6-2.2c-1.2-3.5-3.9-4.7-7.5-5.2c-7.4-1-15.6,0.8-21.5-5.7c-0.1-0.2-0.4-0.2-0.6-0.3c-4.3-1.3-6.6-4.1-7.1-8.5
		c-0.2-1.6-0.9-3.1-1.1-4.7c-0.7-4.4-1.5-8.8,3.5-11.6c1.6-0.9,2.9-2.5,3.5-4.3c2.5-7.1,2.6-14.3-1.1-21.1c-0.7-1.2-0.7-2.2-0.6-3.3
		c0.6-6.1,1.2-12.3,1.8-18.4c0.7-6.3,0.6-12.4-4.3-17.2c-0.7-0.7-1.1-1.5-1.1-2.5c-0.5-5.4-3.9-8.5-8.6-10.4
		c-4.5-1.8-9.1-3.4-13.6-5.1c-2.6,0-5.1,0-7.7,0c-7.3,2.4-14,6.1-20.9,9.4c-2.2,1-3.5,2-1.3,4.3c1.3,1.3,1.3,2.3-0.4,3.6
		c-5.3,4.3-7.7,10.2-8.9,16.8c-1,5.4,1.3,10.3,2.3,15.3c0.8,3.7,1.4,7.5-0.9,11.1c-5.4,8.4-3.7,18,4.1,24.5c0.9,0.8,2.1,1.6,2,2.7
		c-1.2,8.4,4.3,17.7-3.5,25.5c-1.7,1.6-2.8,3.1-5.2,3.2c-1.8,0.1-3.9,0.4-4.4,2.2c-1.4,4.5-4.9,4.7-8.6,4.9
		c-6,0.4-12.2,0.3-17.9,2.5c-27.7,10.6-36.9,44.8-24.9,65.1c3.6,6.1,6.3,12.4,7.1,19.4c0.7,5.8,3.6,11,5.3,16.5
		c1,3.2,0.2,4.6-3.2,5.1c-3.1,0.4-6.2,0.7-9.4,1.1c-2,0.2-3.2,1.3-3.7,3.2c-1.7,7.3-3.3,14.5-5.1,22.9c3.1-3.1,4.6-6,6.4-8.7
		c3.1-4.8,7.8-7.6,12.7-10.1c1.4-0.7,2.8-0.5,3.8,0.6c0.7,0.7,0.3,1.6-0.3,2.2c-5.6,4.7-7.1,11.6-9.9,17.8c-1.5,3.3-3.8,5.8-7.1,7.4
		c-3.2,1.6-6.3,3.3-10,5.2c1.7,0.5,2.6,0.2,3.6-0.1c3.4-0.8,6.8-1.5,10.2-2.2c0.9-0.2,1.9-0.2,2.8-0.2c2.9,0,4.2,1.7,4.3,4.4
		c0,2.7-1.9,3.7-4.2,3.6c-4.6-0.2-9.3-0.6-13.9-1.1c-4.2-0.4-6.9,1.4-8.6,5.1c-2.8,6.2-5.6,12.5-8.4,18.8c-0.3,0.6-1.1,1.6-0.1,2.1
		c2.9,1.5,1.4,3.3,0.7,5.2c-1.7,4.3-3.3,8.7-5.5,12.8c-4,7.6-7.9,15.3-11.9,22.9c-2.6,5-2.2,7,2.3,10.4c3.5,2.6,7.1,4.9,11.1,6.5
		c6,2.4,6,2.4,3.8,8.6c-0.5,1.4-1.1,2.8-1.8,4.1c-1.8,3.1-2.6,6.4-3.1,9.9c-1.1,8.2-2.3,16.3-3.6,24.5c-3.8,24.2-7.7,48.4-11.6,72.6
		c-0.5,3,0.2,5.3,3,7.2c6.2,4.2,8.2,13.4,4.4,20.1c-2.6,4.6-2.3,8.5,0.8,12.9c5,7.1,9.9,14.3,12.4,22.9c0.4,1.4,1.1,3.1-0.6,4.1
		c-2.4,1.5-2,3.3-1.1,5.4c1.3,3.2,2.1,6.5,0.7,10.6c-1.6-2.7-2.5-5.1-4.4-6.9c-1.1-1.1-2-3-4-2.2c-1.6,0.7-1.3,2.6-1.3,4
		c-0.2,12.1-1.3,24.1-0.3,36.3c0.9,11,1.2,22,4.9,32.6c0.9,2.7,1.3,5.6,1.6,8.5c1,9,1.1,18.1,1.8,27.2c0.1,1,0.1,2.7,0.6,2.9
		c2.4,1.1,1.6,3.1,1.7,4.8c0.4,4.7-1.4,9.9,1,14.1c3.2,5.6,4.2,11.4,4.3,17.6c0,2,0.6,4.1,1.2,6.1c0.9,2.8,0.2,5.3-1.8,7
		c-2.9,2.5-3.8,5.4-3.4,9c0.3,2.6-0.9,3.2-3.2,2.9c-3.8-0.4-6.6,1.4-8.1,4.8c-2.9,6.6-5.5,13.3-8.3,19.9c-0.6,1.5-1.1,3.1,0.1,4.3
		c2.4,2.4,1.2,4.2-0.4,6.2c-2.2,2.7-4,5.7-5.5,8.8c-1.3,2.6-2.2,5.7-4.2,7.5c-6.5,5.9-9.5,13.4-12.3,21.4
		c-2.6,7.6-0.3,13.6,3.2,19.8c0.7,1.3,2.1,1.8,3.6,1.5c1.9-0.3,3.3,0.4,3.5,2.4c0.2,3,2.1,3.8,4.7,4.1c2.1,0.2,4.1,0.7,6.2,1.1
		c2.4,0.5,4.4,0.3,6.4-1.4c2.5-2.1,5.7-2.1,7.9,0.3c2.3,2.7,4.8,2.4,7.5,1.9c2-0.4,4-1.1,6-1.7c2.2-0.6,3.4-1.7,3.3-4.1
		c-0.1-2.1,0.9-2.9,3.1-2.6c1.6,0.2,3.4,0.7,4.7-0.5c3.4-3.3,8.4-5.3,9.3-10.8c0.2-1.2,1.3-1.2,2-1.6c4.9-2.8,6.6-8.8,3.8-13.6
		c-1.5-2.5-2.2-5.1-1.2-7.9c0.3-1,0.7-2.1,2.1-1.3c2.7,1.6,4.3,0,5.8-1.9c1.6-2,3.2-4,4.8-6c1.2-1.5,1.7-3.1,0-4.6
		c-1.3-1.1-1-2.3,0-3.3c1.5-1.7,1.2-3.3,0.2-5.1c-4.2-8.1-7.6-16.2-7.9-25.7c-0.4-11.5-2.2-22.9-3.1-34.4
		c-0.9-12.5,3.3-24.3,6.5-36.1c1.3-4.8,4.3-9.2,4-14.3c-0.3-4.1,1-7.4,2.5-10.9c1.9-4.3,4.6-6.5,9.3-6.4c3.1,0.1,5.3-1,6-4.5
		c0.5-2.5,1.6-4.9,2.5-7.2c1.1-2.7,0.9-4.9-1.5-6.9c-1.9-1.5-2.7-3.6-2.9-6.1c-0.8-7.1,1.5-13.5,4.2-19.8c1.2-2.7,0.8-4.7-1-7
		c-4.6-6-9-12.1-13.5-18.2c-2.4-3.3-2.2-4.8,0.7-7.5c2.3-2.1,3.9-4.5,4.2-7.7c0.3-3.4,1.7-6.1,4-8.7c1.7-1.9,3-4.2,2.8-6.9
		c-0.3-5-0.4-10-1.1-14.9c-1.3-8.7-2-17.3,1.8-25.6c1-2.1,1-4.5,0.8-6.9c-0.8-8.3-1.6-16.7-2.5-25c-0.3-2.4-0.3-4.6,0.4-6.9
		c1-2.9,3.7-4.4,5.8-6.2c0.5-0.5,2.2,2.6,3.6,3.8c1,0.8,1.8,1.8,2.7,2.7c6.2,6.2,13.4,11.5,17.2,19.9c3.9,8.5,9.5,16.3,11.5,25.7
		c1.5,7.3,2.2,14.7,2.5,22.2c0.3,7.2,2.3,13.6,7.6,18.8c4.1,4.1,8.5,8.6,10.4,13.8c1.9,5.1,4.7,9.1,8,13.2c1.7,2.2,1.5,4.5,0.4,6.9
		c-2.8,6.7-5.7,13.5-7.9,20.4c-1.8,5.9-1.5,11.1,3.3,15.7c2.2,2.1,3.8,4.7,5.9,6.9c2.1,2.2,2.9,4.4,0.7,7c-0.7,0.9-0.6,1.9-0.6,3
		c0.1,3.6,0.4,7.2,0.2,10.8c-0.2,3.4,1,4.5,4.4,4.1c4.5-0.5,8.5,0.4,11.4,4.4c7.4,10.3,14.4,20.9,19.1,32.8
		c4.5,11.3,8.4,22.6,6.8,35.2c-0.4,3.1-0.1,6.3,0.9,9.3c1.4,4.3,0.8,8.7,0.5,13.1c-0.1,1.3-0.5,2.6-0.3,3.8c0.5,5.2-1,9.7-3.6,14.2
		c-2.1,3.6-3.8,7.2-3.5,11.9c0.4,8.4,2.8,12.3,10.8,14.8c2.6,0.8,3.2,2.5,2.4,4.8c-0.4,1.2-1.2,2.3-1.8,3.4c-3.3,5.6-3.2,6.9,0.8,12
		c2.4,3.1,7.3,4.5,6.3,9.7c3.7,3.1,6,8.4,12.3,7.2c1.5-0.3,3.2,0.5,2.8,2.2c-0.9,3.9,1.9,4.6,4.4,5.7c2.5,1,4.9,2.2,7.3,3.2
		c2.1,0.9,4.4,3.1,5.8-0.9c0.3-0.8,1.6-0.9,2.5-0.8c2.2,0.2,4.7,0.5,6.2,2c3.4,3.3,7.4,3.3,11.7,3.1c3.1-0.2,5.1-1.1,5.5-4.4
		c0.2-2.7,1.6-3,3.8-2.1c1.4,0.6,3.1,1,4.2-0.5c3.3-4.5,7.2-8.8,4.6-15.1c-0.4-0.8-0.5-1.8-0.6-2.7c-1-7.5-2.9-14.5-8.3-20.3
		c-1.4-1.5-2.5-3.4-3.3-5.3c-3.3-6.9-7.2-13.3-12.1-19.1c-1.1-1.3-1.4-2.4-0.2-3.9c2-2.3,2-5.1,0.9-7.9c-1.9-4.9-3.9-9.7-5.5-14.7
		c-2-6.1-6.2-9.7-12.1-11.4c-2.1-0.6-3.2-1.4-2.7-3.5c1.1-4.9-1.5-7.8-5.1-10.4c-1.7-1.2-3.1-2.8-4.7-4.1c-1.9-1.6-2.7-3.7-2.8-6.2
		c-0.2-4.6-0.4-9.3-0.7-13.9c-1.1-18.2-2.3-36.5-3.4-54.7c-0.1-2.4-1.1-5,0.4-7.1c1.1-1.6,1-3,0.5-4.6c-0.6-1.7-0.9-3.5-1-5.2
		l22.5,77.5c2.7,9.3,11.2,15.4,20.5,15.4c1.9,0,3.9-0.3,5.9-0.8c8-2.3,16.2-4.5,24.3-6.6l1-0.3c6.2-1.5,14-3.4,21.2-7.5c0,0,0,0,0,0
		c1.9,0.5,3.8,0.8,5.8,0.8c1.4,0,2.8-0.1,4.3-0.4c7-1.4,14.2-2.8,21.2-4c1.5-0.3,2.9-0.6,4.2-1.2c0.3,0,0.6,0,1,0
		c1.1,0,2.3-0.1,3.4-0.3c7.1-1.1,14.3-2.2,21.3-3.1c1.1-0.1,2.2-0.4,3.2-0.7c1,0,2.1,0,3.2-0.1c6.7-0.8,13.4-1.5,20.1-2.1
		c3.1-0.3,5.9-1.2,8.4-2.6c2.4,0.9,4.9,1.3,7.4,1.3c0.5,0,0.9,0,1.4,0c7.1-0.5,14.3-0.8,21.5-1.1c3.2-0.1,6.1-0.9,8.8-2.2
		c2.6,1.2,5.6,1.8,8.6,1.8c0.1,0,0.2,0,0.2,0c7.1-0.1,14.4-0.1,21.5,0.1c1.1,0,2.2,0,3.2-0.2c1,0.2,2.1,0.3,3.2,0.3
		c7.1,0.2,14.4,0.5,21.5,0.9c0.4,0,0.8,0,1.3,0c1,0,2.1-0.1,3.1-0.2c1.3,0.4,2.7,0.6,4.2,0.7c9,0.7,18.2,1.5,27.2,2.4
		c4.7,0.5,8.4,0.8,11.6,0.8c1.6,0,3.1-0.1,4.5-0.2c0.5,0,1-0.1,1.5-0.2c2.4,1.5,5.1,2.5,8,2.9c7.3,1.1,14.7,2.3,22,3.6
		c1.7,0.3,3.4,0.4,5.1,0.3c1.5,0.7,3.2,1.2,4.9,1.6c7.2,1.4,14.5,2.9,21.6,4.5c1.3,0.3,2.5,0.4,3.8,0.5c1.1,0.5,2.3,0.9,3.5,1.2
		c6.5,1.6,13.2,3.2,19.7,4.9c1.8,0.5,3.6,0.7,5.4,0.7c9.4,0,18-6.3,20.6-15.8l7-26.3c9.4-14.6,19.2-29.3,29.2-43.7
		C878.4,701,879.3,693.8,877,687.4z M775.4,405.5c0.4,0.5,0.3,1.1,0.3,1.6c0,0.5,0,1-0.2,1.5c-0.4,0.6-0.9,0.7-1.2,0.1
		c-0.5-1-0.5-2.1,0-3.2C774.5,405,775,405,775.4,405.5z M760.2,367.3c-0.1-0.8,0-1.6,0.4-2.4c0.1-0.3,0.3-0.5,0.6-0.4
		c0.4,0.1,0.7,0.4,0.5,0.7c-0.9,1.6,0,2.9,1,4.3C760.6,369.3,760.4,369,760.2,367.3z M680.4,313.8c0.2-0.1,0.5-0.3,0.7-0.4
		c0.3-0.2,0.6-0.5,1-0.1c0.4,0.4,0.4,0.7,0.1,1.1c-0.7,0.9-1.4,1.9-2.2,2.9C678.2,315.3,678.2,315.1,680.4,313.8z M684.6,312.7
		c0.1-0.3,0.3-0.5,0.7-0.4c0.3,0.1,0.5,0.4,0.5,0.7c0,0.4,0,0.8-0.1,1.1c-0.6,2.7-1.1,5.4-1.7,8.1c0,0.2,0,0.4-0.3,0.5
		c-0.1-0.1-0.2-0.1-0.3-0.2c-1.9-2.1-2.2-4.3-0.6-6.8C683.4,314.8,684.1,313.9,684.6,312.7z M678.1,309.1c1.4,0,2.9,0,4.3,0
		c0.5,0,1.1,0,1.3,0.7c0.1,0.4-0.1,0.7-0.4,1c-0.3,0.2-0.6,0.7-1.1,0.4c-0.2-0.1-0.3-0.2-0.5-0.4c-0.4,1.9-2.1,1.6-3.4,1.9
		c-1.3,0.3-2.1-0.5-2.7-1.5c-0.4-0.6-0.7-1.2-1.3-2.1C675.8,309.1,676.9,309.1,678.1,309.1z M790.5,507.1
		c-0.3-23.3-0.5-46.6-0.7-69.9c0-1.3,0-1.3,1.3-1.5c6.9-0.8,13.9-1.6,20.8-2.5c5.6-0.7,11.2-1.3,16.9-1.8c1.1-0.1,2.2-0.1,3.3-0.2
		c1.1,0,1.1,0,1.1,1.1c0,3.5,0,7,0,10.5c0,1.2,0,2.3,0,3.5c0,0,0,0,0,0c0,4.2,0,8.3,0,12.5c0,1.3,0.1,2.6,0.2,3.9c0,1.1,0,1.1-1,1.2
		c-4.6,0.1-9.3,0.3-13.9,0.3c-1.2,0-2.5,0.1-3.7,0.1c-1,0.1-1,0.1-1.1,1.1c0,1.8,0,3.6,0,5.5c0,3.9,0,7.8,0.1,11.6
		c0,1.2,0,1.2,1.3,1.3c4.1,0.1,8.1,0.1,12.2-0.1c0.8,0,1.5,0,2.3,0c0.5,0,0.7,0.2,0.7,0.7c0,0.2,0,0.5,0,0.7
		c0,7.4-0.1,14.8,0.1,22.1c0,1.2,0,1.2-1.2,1.2c-3.8,0-7.6-0.1-11.4-0.2c-0.9,0-1.8,0-2.7,0c-0.5,0-0.8,0.2-0.8,0.8
		c0,0.3,0,0.6,0,0.9c0,5.3,0,10.5,0.3,15.8c0.1,1.2,0.1,1.2,1.2,1.2c5.4,0.4,10.8,0.7,16.2,1.1c1.5,0.1,1.3,0.2,1.3,1.3
		c-0.3,10.1-0.2,20.1-0.2,30.2c0,0.2,0,0.4,0,0.6c0,0.6-0.2,0.9-0.8,0.8c-1-0.1-2.1-0.2-3.2-0.2c-6.2-0.5-12.3-1.1-18.5-1.6
		c-5.3-0.5-10.5-0.9-15.8-1.3c-1.3-0.1-2.7-0.2-4-0.2c-0.7,0-1-0.3-1-1c0.1-3,0-5.9,0.2-8.9C790.6,533.9,790.7,520.5,790.5,507.1z
		 M734.7,445.3c6.9-0.4,13.9-0.6,20.8-0.9c8.5-0.3,17-0.7,25.4-1c1.5-0.1,3.1-0.1,4.6-0.1c0.9,0,1,0,0.9,1
		c-0.3,8.7-0.5,17.4-0.4,26.2c0,1.2,0,1.3-1.3,1.3c-3.7,0-7.5-0.1-11.2-0.2c-0.3,0-0.7,0-1,0c-0.5,0-0.7,0.2-0.7,0.7
		c0,0.4,0,0.8,0,1.2c0,13.4-0.1,26.8,0.1,44.7c0.2,8.9,0.2,22.3,0.3,35.7c0,0.1,0,0.3,0,0.4c-1.2-0.2-2.4-0.4-3.6-0.6
		c-2.4-0.4-4.9-0.4-7.2,0.1c-2.1-1.1-4.4-1.9-6.8-2.2c-2.2-0.3-4.3-0.6-6.5-0.9c0.1-3.3,0.1-6.6,0.1-9.9
		c-0.1-21.6-0.2-43.2-0.3-64.9c0-1.4,0-1.4-1.4-1.4c-3.9,0-7.8,0.1-11.6,0.1c-1.3,0-1.3,0-1.3-1.2c0.1-8.6,0-17.3-0.2-25.9
		c0-0.2,0-0.5,0-0.7C733.5,445.4,733.5,445.4,734.7,445.3z M751.7,572.6c0.9,11.2,2,22.6,1.4,33.8c3.5-10.8,7.8-21.3,12.3-31.7
		c8,1.3,16,2.7,24,4.2c-9.6,16.4-18.9,32.9-27.9,49.7c-1.7,10-3.4,20.1-5,30.1c-7.3-1.2-14.6-2.3-21.9-3.3
		c1.4-10.1,2.8-20.2,4.2-30.2c-3.4-18.6-7.1-37.2-11.1-55.7C735.6,570.4,743.6,571.4,751.7,572.6z M707.4,441.4c7,0,13.9,0,20.9-0.1
		c0.8,0,1.5-0.1,2.3-0.1c0.5,0,0.7,0.2,0.7,0.7c0,0.2,0,0.5,0,0.7c0.1,18.1,0.2,36.2,0.3,54.4c0.1,17.2,0.1,34.3,0.4,51.5
		c-0.6-0.1-1.3-0.2-1.9-0.2c-3.4-0.4-6.7,0-9.8,1.2c-0.3-0.1-0.6-0.3-1-0.4c-3.8-1.3-8.2-2.3-13.4-3.1c0-16.8,0.1-33.6,0-50.4
		c-0.1-17.4-0.4-34.7-0.5-52.1C705.2,441,704.8,441.4,707.4,441.4z M695.5,364.5c0.1-0.7,0.4-1.3,1.2-1.4c0.8-0.1,1.4,0.2,1.8,0.9
		c0.4,0.9,0.8,1.8,1.2,2.9c-1.5,0.3-2.7-0.3-3.9-0.2c-0.3,0-0.4-0.3-0.4-0.5C695.4,365.5,695.4,365,695.5,364.5z M691.5,363
		c1.2-0.7,1.7-0.5,1.9,0.8c0.4,2.5,0.4,2.5-2,2.2c-0.7-0.1-1.4-0.1-2.4-0.4C690,364.6,690.5,363.6,691.5,363z M667.2,329.8
		c0,0.8-0.1,1.5-0.5,2.5c-0.4-1.4-0.6-2.5-0.9-3.6C667.1,328.7,667.2,328.8,667.2,329.8z M664.4,324c0.2,1.3-0.3,2.5-0.4,3.8
		c-0.2,1.3-0.4,2.6-0.6,4C660.3,328.4,661.6,324.6,664.4,324z M643.6,440.9c5.6-1.1,11.2-2.3,16.7-3.4c0.8-0.2,1.5-0.3,2.3-0.4
		c1.1-0.2,1.1-0.1,1.4,0.9c0.7,2.2,1.4,4.5,2.1,6.7c3.7,11.9,7,23.9,10.6,35.8c1.2,3.8,2.3,7.7,3.5,11.6c0.1,0.2,0.2,0.4,0.5,0.7
		c0-0.5,0-1,0-1.6c-0.3-5.4-0.5-10.8-0.8-16.2c-0.3-5.4-0.6-10.8-1-16.2c-0.3-4.6-0.7-9.3-1-13.9c-0.2-2.6-0.4-5.3-0.6-7.9
		c-0.1-1.3-0.1-1.3,1.3-1.3c3.4,0,6.8,0.1,10.2,0.1c3.2,0,6.3,0,9.5,0c1.6,0,1.6,0,1.6,1.5c0,7.4,0,14.8-0.1,22.2
		c0,16.2,0,32.4-0.1,48.6c0,12.5,0,24.9,0.2,37.3c-0.8-0.1-1.7-0.2-2.5-0.2c0,0-0.1,0-0.1,0c-6.2-0.5-12.5-0.9-18.8-1.2
		c-0.3-1.1-0.7-2.3-1-3.4c-1.7-6-4-11.8-5.9-17.7c-2.6-8-5-16.1-7.6-24.1c-0.2-0.6-0.4-1.2-0.6-1.8c-0.3,3-0.1,6,0,9
		c0.3,8.5,0.6,17,0.9,25.4c0.2,4.2,0.4,8.3,0.7,12.5c-2.4,0.5-4.7,1.3-6.8,2.6c-1.6-0.6-3.2-1.1-5-1.6c-3.4-0.9-7.2-1.5-11.6-1.9
		c0-7.8,0.1-15.5,0.1-23.3c0-25.4-0.1-50.7-0.1-76.1C641.6,441.3,641.6,441.3,643.6,440.9z M647.8,565.3c3.8,1,6.7,2.5,8.6,4.3
		c1.9,1.8,3.1,4,3.7,6.6c0.6,2.5,0.8,6.5,0.6,11.7c-0.1,2.9-0.2,4.4-0.3,7.3c-0.2,5.4-1,9.3-2.4,11.7c-1.4,2.4-3.8,4.2-7.2,5.5
		c-3.4,1.2-7.8,1.8-13.3,1.7c-2.7,0-4,0-6.7,0c0,11.3-0.1,22.6-0.1,34c-7.9,0-15.9,0.1-23.8,0.3c-0.8-28.1-1.6-56.2-2.4-84.3
		c8.9-0.2,17.8-0.3,26.6-0.3C638.4,563.8,643.9,564.3,647.8,565.3z M628.5,441c3.4,0.3,6.8,0.7,10.1,1.2c1.1,0.2,1.1,0.2,1.1,1.2
		c-0.3,8.7-0.2,17.5-0.2,26.2c0,2.3,0.3,2-2,2c-3.3,0-6.6-0.1-9.9-0.2c-1.3,0-1.3,0-1.3,1.4c0,11.8,0,23.6,0.1,35.4
		c0.1,11.4,0.3,22.9,0.4,34.3c-7.6,0-15.3,0.1-22.8,0.3c-1,0-2,0.1-3,0.3c0.1-11.9,0.1-24.2,0-40.3c0-8.6-0.1-21.8-0.2-34.9
		c0-0.2,0-0.4,0-0.6c0.1-0.7-0.2-0.9-0.9-0.9c-1.5,0-3,0-4.5,0.1c-2.3,0-4.6,0.1-6.9,0.1c-1,0-1.1,0-1.1-1c0.1-9,0-17.9-0.2-26.9
		c0-1.2,0-1.3,1.3-1.2c3.9,0.3,7.7,0.6,11.6,1c3.7,0.3,7.4,0.7,11.2,1C617.1,439.9,622.8,440.4,628.5,441z M507.9,657.6
		c-7.9,1.3-15.7,2.6-23.6,4.1c-5.3-27.6-10.5-55.2-15.8-82.8c8.7-1.6,17.4-3.1,26.1-4.6c1.6,9.9,3.2,19.9,4.7,29.8
		c3-0.5,4.5-0.7,7.6-1.2c-1.5-9.9-3-19.9-4.5-29.8c8.7-1.3,17.5-2.4,26.3-3.5c3.3,27.9,6.6,55.8,9.9,83.8c-7.9,0.9-15.8,2-23.7,3.2
		c-1.7-11.7-3.5-23.4-5.2-35c-3,0.4-4.4,0.7-7.4,1.1C504.2,634.3,506,646,507.9,657.6z M445.9,480.9c4.6,0,9.1-0.1,13.7-0.3
		c1.3-0.1,1.3-0.1,1.3,1.2c0,6.9,0,13.8-0.4,20.7c-0.1,1.7-0.2,3.4,0.1,5.2c0,0.3,0,0.6,0,0.9c0,0.4-0.2,0.6-0.6,0.6
		c-0.2,0-0.4,0-0.6,0c-4.3-0.3-8.6-0.1-12.9,0c-1.4,0-1.4,0-1.4,1.5c0.1,11.1,0.2,22.2,0.3,33.4c0,4.3,0,8.6,0.2,12.9
		c0,1.1,0,1.1-1.3,1.4c-6.3,1.5-12.7,3.1-19,4.6c-1.8,0.4-3.6,0.9-5.4,1.3c-0.4-0.5-0.3-1-0.3-1.5c-0.1-18.5-0.1-36.9-0.2-55.4
		c-0.1-14.7-0.3-29.4-0.4-44.2c3.3-0.4,5.3-2.6,5.7-6.1c0.2-1.9,0.9-2.2,2.6-2.3c4.4-0.2,7-2.8,7.4-7.2c0.1-1,0-2,0-3.3
		c1.7,0.4,3.1,0.8,4.6,1.1c2.3,0.4,3.6-1.1,4.9-2.7c1.2-1.6,0.2-2.8-0.8-4c-1.8-2.1-3.3-4.4-3.9-7c-0.2-0.8-0.4-1.5-0.6-2.3
		c1.3,0,2.6,0,3.9,0.1c7.2,0.1,14.5,0,21.7,0c0.1,0,0.3,0,0.4,0c1,0,1.1,0,1,1.1c-0.2,2.8-0.1,5.6-0.2,8.3c0,6.4,0,12.8-0.1,19.1
		c0,1.7,0.2,1.7-1.7,1.5c-4.3-0.3-8.5,0-12.8,0.1c-1.9,0-3.7,0.1-5.6,0.1c-1.1,0.1-1.2,0.1-1.2,1.3c0,6.1,0,12.3,0,18.4
		C444.5,480.9,444.6,480.9,445.9,480.9z M465.8,473.5c0.8-7,2.2-13.9,5.2-20.4c1.6-3.6,3.8-6.8,6.7-9.6c3.3-3.1,7.2-4.9,11.7-5.7
		c4.1-0.7,8.2-0.5,12.3,0.3c6.1,1.2,10.8,4.5,14.4,9.5c2.9,4.1,4.6,8.7,5.8,13.5c1.3,5,1.9,10.2,2.3,15.3c0.6,8.1,0.9,16.3,0.6,24.4
		c-0.3,9.3-1,18.5-3.5,27.4c-0.9,3.4-2.1,6.7-3.8,9.7c-4,7.4-10.2,11.5-18.5,12.4c-3.8,0.4-7.5,0.3-11.1-0.5c-7-1.6-12-5.9-15.5-12
		c-2.7-4.8-4.3-9.9-5.4-15.2c-1.2-6.2-1.8-12.4-2.1-18.7c-0.1-3.1-0.2-6.1-0.2-8.6C464.7,487.7,465,480.6,465.8,473.5z M489.9,421.6
		c-0.7-0.7-1.3-1.4-1.4-2.4C489.4,419.8,489.6,420.7,489.9,421.6z M489.8,412.9c0.7,0.6,1,1.4,1.2,2.2
		C490.2,414.5,490,413.7,489.8,412.9z M492.8,417.7c0.6,0.5,1.1,0.7,1.8,0.2c0.7-0.5,0.9-0.9,0.7-1.8c-0.1-0.3-0.2-0.6,0.1-0.8
		c0.3-0.2,0.5,0,0.7,0.3c0.4,0.6,0.7,0.4,1.2,0.1c0.7-0.5,1.6-0.7,1.4-1.9c0,0,0-0.1,0-0.1c0.3-0.6,2.9-2.2,3.6-2
		c1.1,0.4,1.8-0.1,2.5-0.9c0.1-0.1,0.2-0.2,0.3-0.3c0.2-0.2,0.4-0.7,0.8-0.5c0.4,0.2,0.4,0.7,0.3,1.1c-0.1,0.4-0.5,0.7-0.9,0.9
		c-3.9,2.3-7.5,5-11,7.8c-0.8,0.7-0.8,0.6-1.4-0.3c-0.4-0.7-0.8-1.5-0.9-2.3C492.4,417,492.6,417.5,492.8,417.7z M492.6,409.8
		c0.2-0.2,0.5-0.2,0.6,0.1c0.6,1.1,1.2,2.3,1.6,3.2c0,0.5-0.1,0.6-0.3,0.7c-0.2,0.1-0.4,0-0.5-0.1c-0.7-1-1.3-2.1-1.8-3.2
		C492.2,410.2,492.4,410,492.6,409.8z M501.3,410.2c-1,0.6-2,1.2-3,1.4c-0.6,0-1-0.2-1.2-0.7c-0.4-0.9-0.8-1.7-1.2-2.6
		c-0.1-0.3-0.1-0.6,0.1-0.8c0.6-0.7,1.2-1.2,2-1.5c0.5-0.2,0.9,0.1,1.1,0.4c0.8,1,1.5,2.1,2.2,3.2
		C501.4,409.8,501.5,410,501.3,410.2z M502,403.1c0.1-0.1,0.3-0.2,0.6-0.4c1,1.6,1.5,3.2,2.3,4.8c0.2,0.3,0.2,0.7-0.2,0.9
		c-0.3,0.2-0.5-0.1-0.7-0.3c-0.7-1.1-1.5-2.1-2.2-3.2C501.1,403.8,501.1,403.8,502,403.1z M505.8,400.9c0.2,0,0.4,0.1,0.4,0.3
		c0.2,0.8,0.5,1.6,0.3,2.8c-0.6-1-0.8-1.8-1.1-2.5C505.5,401.2,505.5,400.9,505.8,400.9z M509.9,399.1c0.3-0.1,0.5,0.2,0.6,0.5
		c0.4,1.1,0.7,2.3,1,3.1c0.1,0.7-0.2,0.8-0.4,0.9c-0.3,0.1-0.4-0.1-0.5-0.4c-0.4-1.1-0.7-2.2-1-3.3
		C509.4,399.5,509.5,399.2,509.9,399.1z M513.8,406.2c0.2-0.1,0.4-0.2,0.6-0.3c0.8-0.3,1.1-0.7,0.8-1.5c-0.1-0.2-0.1-0.4,0.1-0.6
		c0.5,0.8,1.2,1,2.1,0.6c0.7-0.3,1.3-0.6,1-1.6c0-0.1,0-0.2,0-0.3c0-0.2,0-0.5,0.3-0.6c0.2,0,0.3,0.1,0.4,0.3
		c0.1,0.1,0.1,0.3,0.2,0.4c0.3,0.7,0.8,0.8,1.4,0.4c0.2-0.1,0.3-0.2,0.5-0.2c1-0.4,1-0.4,0.8-1.4c0-0.2-0.1-0.4-0.1-0.6
		c0-0.2,0.1-0.4,0.3-0.4c0.2-0.1,0.4,0.1,0.5,0.2c0.1,0.2,0.1,0.4,0.1,0.6c0.2,0.6,0.6,0.9,1.2,0.5c0.2-0.1,0.4-0.2,0.6-0.3
		c1.1-0.4,1.1-0.4,0.8-1.5c0-0.2-0.1-0.4-0.1-0.6c0-0.3,0.1-0.5,0.4-0.5c0.2,0,0.4,0.1,0.4,0.3c0.1,0.8,0.1,1.5,1.1,1.8
		c0.2,0.1,0.1,0.5-0.1,0.6c-0.3,0.2-0.6,0.3-0.9,0.4c-4.3,1.6-8.5,3.4-12.7,5.4c-1.4,0.7-1.8,0.5-2.1-1.1c0-0.2,0-0.5,0-0.7
		c0-0.2,0.1-0.4,0.3-0.4c0.2,0,0.4,0,0.5,0.2c0.1,0.2,0.1,0.4,0.2,0.5C512.8,406.4,513.3,406.6,513.8,406.2z M513.8,397.4
		c0.4-0.1,0.4,0.3,0.5,0.6c0.3,1.1,0.5,2.1,0.8,3.1c0,0.3,0,0.6-0.3,0.6c-0.3,0-0.4-0.2-0.5-0.4c-0.3-1-0.6-2-0.9-3
		C513.2,397.9,513.3,397.5,513.8,397.4z M517,396.6c0-0.3,0-0.6,0.3-0.7c0.3-0.1,0.4,0.2,0.5,0.4c0.3,1.1,0.5,2.1,0.7,3.2
		c0,0.2,0,0.5-0.3,0.6c-0.3,0.1-0.4-0.2-0.5-0.4C517.5,398.7,517.2,397.6,517,396.6z M520.7,394.6c0.9,1,0.9,2.3,1.2,3.5
		c0,0.1-0.1,0.3-0.2,0.3c-0.2,0-0.3,0-0.4-0.2C521,397.1,520.6,395.9,520.7,394.6z M523.9,393.5c0-0.3,0.2-0.6,0.5-0.6
		c0.4-0.1,0.5,0.2,0.6,0.5c0.2,1,0.4,2,0.6,2.9c0,0.3,0,0.6-0.3,0.7c-0.4,0.1-0.4-0.3-0.5-0.5c-0.2-0.8-0.5-1.6-0.7-2.5
		C523.9,393.8,523.9,393.6,523.9,393.5z M528.8,395.3c-0.4,0.1-0.5-0.3-0.5-0.6c-0.2-0.9-0.4-1.9-0.6-2.8c0-0.2,0-0.5,0.3-0.6
		c0.3-0.1,0.5,0.1,0.5,0.4c0.2,0.9,0.5,1.8,0.6,2.6C529.2,394.9,529.2,395.2,528.8,395.3z M529.2,397.1c0.2-0.1,0.4,0.1,0.3,0.3
		c0,0.3-0.1,0.6-0.4,0.7c-0.2,0.1-0.3-0.1-0.3-0.4C528.8,397.4,528.9,397.2,529.2,397.1z M538.2,548.2c-1.4,0-2.8,0-4.2,0
		c-1.5,0-3.1,0.1-4.6,0.1c0,0-0.1,0-0.1,0c-0.3,0-0.7,0-1,0c-0.6-0.1-0.5-0.4-0.5-1.6c0.1-9.2,0.2-18.4,0.2-27.6
		c0.1-11.6,0.2-23.2,0.3-34.8c0.1-13.6,0.3-27.1,0.5-40.7c0-1.4,0-2.8,0-4.2c0-1.1,0.1-1.2,1.1-1.2c1.6-0.1,3.2-0.3,4.7-0.3
		c8-0.1,15.9,0,23.9,0.3c2.3,0.1,4.6,0.4,6.8,0.9c3.8,0.9,7,2.9,9.6,5.7c5.8,6.3,9.8,13.6,11.4,22.1c0.9,4.9,0.9,9.9,0.5,14.9
		c-0.2,2.5-0.5,5-1.2,7.5c-1.6,5.7-4.5,10.6-8.9,14.7c-0.7,0.7-0.8,1.3-0.6,2.1c2.5,9.2,5.1,18.4,8,27.4c1.1,3.4,2.2,6.8,3.2,10.2
		c-1.2-0.1-2.4-0.2-3.7-0.1c-7.2,0.4-14.5,0.9-21.7,1.4c-0.4-1.9-0.8-3.8-1.3-5.7c-2-8.2-3.8-16.5-5.8-24.8c-0.1-0.5,0-1.2-0.9-1.2
		c-1.2,0-1.4,0-1.3,1.4c0.1,7.3,0.2,14.7,0.4,22c0.1,3,0.1,6,0.2,9c-2.8,0.2-5.6,0.5-8.4,0.7C542.5,546.7,540.3,547.3,538.2,548.2z
		 M531.4,389.6c0.1-0.1,0.3-0.1,0.4,0c0.4,0.4,0.2,0.8-0.2,1.3C531.2,390.5,530.9,390.1,531.4,389.6z M546.8,567.7
		c12.7-1.2,25.4-2.1,38.1-2.8c6.4,27.8,12.4,55.7,18,83.6c-8.1,0.3-16.2,0.7-24.3,1.2c-0.9-6-1.4-9-2.3-15c-3.5,0.2-5.2,0.4-8.7,0.6
		c-0.1,6.1-0.2,9.1-0.2,15.2c-8.2,0.7-16.4,1.4-24.6,2.4C543.7,624.5,545.1,596.1,546.8,567.7z M587.2,360.8
		c-0.1,0.5-0.2,1.1-0.3,1.6c-0.3,1.3-0.5,2.5-0.8,3.9c-0.5-0.8-0.5-1.6-0.6-2.4c-0.4-1.9-0.7-3.8-0.9-5.7
		C585.4,359.1,586.3,360,587.2,360.8z M363.5,356.8c3.8-3.3,7-7.2,9.2-11.8c4.3-9.3,9.6-18.1,13.7-27.4c7-15.7,11.9-32.1,12.8-49.5
		c0.3-5.4,1.9-6.4,7.2-5.1c5.1,1.2,10,3.1,14.8,5.2c8.4,3.5,17.7,4.7,25.8,9.2c7.5,4.2,15,8.4,22.7,12.3c7.1,3.6,13.6,8.8,22,9.2
		c7.4,0.4,14.9,0.5,22.3,0.8c11.5,0.4,23,1.5,33.8,5.9c1.4,0.6,3.3,0.9,3.6,2.5c0.4,2.9,2.7,3.5,4.6,4.6c1.1,0.6,2.1,1.3,3.2,1.9
		c0.4,1.9,0.7,3.9,0.9,5.8c0.4,3.5,0.2,7.1-0.2,10.6c-0.2,1.3-0.2,1.4-1.7,1.4c-0.2,0-0.4,0-0.6,0c-1.2,0-1.2-0.1-1.4-1.3
		c-0.2-1.2-0.5-1.4-1.6-1.3c-0.9,0.1-1.1,0.2-1.3,1.2c-0.3,1.3-1.3,1.9-2.5,1.4c-0.5-0.2-0.5-0.7-0.6-1.2c-0.2-1.2-0.5-1.4-1.6-1.4
		c-0.7,0-1.1,0.4-1.4,1.1c-0.2,0.5-0.2,1-0.1,1.6c0.1,1.9,0.2,3.7,0.3,5.6c0.1,1.7-0.2,1.9-1.8,1.9c-1.8-0.1-3.5-0.1-5.3-0.1
		c-1.4,0-2.3,1-2.2,2.4c0,0.4,0.3,0.5,0.6,0.5c1.8-0.4,2.9,0.7,4,1.7c2.1,1.8,3.6,4,5,6.3c0.5,0.8,0.4,1.6,0.3,2.4
		c-0.5,3.3-0.9,6.7-1.6,9.9c-0.7,3.2-0.2,6.2,0.6,9.2c0.1,0.4,0.3,0.7,0.6,1c1,1.3,0.8,2.9-0.6,3.9c-0.9,0.7-1.9,1.3-2.9,1.9
		c-0.2,0.1-0.5,0.5-0.7,0.2c-0.7-0.7-1.2-0.3-1.8,0.1c-0.2,0.1-0.3,0.4-0.6,0.2c0.3-0.5,0.7-1,1-1.5c0.3-0.4,0.3-0.8-0.1-1.2
		c-0.4-0.4-0.8-0.3-1.2,0c-0.7,0.4-1.4,0.8-2.1,1.3c-0.4,0.2-0.8,0.6-1.5,0.5c0.8-1.2,1.5-2.2,2.1-3.2c0.3-0.4,0.6-0.8,0.7-1.2
		c0.1-0.5,0.1-0.9-0.4-1.1c-0.4-0.2-0.6,0.1-0.8,0.4c-0.7,0.7-1.5,1.5-2.2,2.2c-0.2,0.2-0.3,0.4-0.7,0.3c0.4-1,0.8-1.9,1.2-2.9
		c0.3-0.7,0.6-1.5,0.4-2.3c-0.2-0.7,0.2-1.2,0.5-1.7c1.1-1.5,2.2-3,3.3-4.5c0.3-0.4,0.5-0.8,0.8-1.2c-0.2-0.4-0.6-0.5-1-0.6
		c-1.2-0.4-1.6-0.3-2.4,0.7c-1,1.3-1.9,2.7-2.8,4c-2.3,3.4-4.5,6.9-7,10.2c-0.9,1.1-1.8,2.3-2.7,3.4c-1.3,1.6-1.3,1.9,0.1,3.7
		c0.5-0.3,0.7-0.7,1-1.1c1-1.4,2-2.7,2.9-4.1c0.4-0.6,0.8-1.1,1.6-0.8c0.5,0.2,0.7-0.4,1-0.6c0.2,0.3,0,0.6-0.1,0.8
		c-0.2,1.1-0.1,1.2,1.2,1.3c0.1,0.3-0.1,0.5-0.2,0.8c-0.1,0.9,0.4,1.4,1.3,1c0.7-0.3,1.4-0.7,2.2-1c-0.5,0.7-1.1,1.4-1.6,2.1
		c-0.2,0.3-0.5,0.6-0.5,0.8c0.3,1.1-0.5,1.4-1.1,1.9c-0.7,0.5-1.3,1.1-1.9,1.7c-0.8,0.7-1.2,0.7-1.9,0c-0.7-0.7-1-0.6-1.6,0.1
		c-0.3,0.3-0.4,0.8-0.5,1.2c-0.1,0.3-0.3,0.6-0.4,0.9c0,0.1-0.1,0.1-0.2,0.1c-0.5-0.3-0.6-0.8-1-1.2c-0.8-0.8-1.5-0.7-1.9,0.4
		c-0.1,0.4-0.2,0.8-0.2,1.3c0,0.5,0.1,1-0.6,1.1c-0.5,0.1-0.5-0.5-0.7-0.8c-0.4-0.9-1.1-1.5-1.9-2.2c-0.8,1.3-0.8,2.7-1.1,4.2
		c-0.7-0.8-1-1.7-1.8-2.1c-1,1.3-1,1.3-1.4,3.8c-0.5,0.1-0.5-0.3-0.6-0.6c-0.5-0.8-1.2-1.7-2.1-1.4c-0.7,0.3-0.9,1.5-0.7,2.4
		c0,0.2,0.1,0.4,0.1,0.6c0,0.3,0,0.6-0.4,0.7c-0.4,0.1-0.7,0-0.8-0.3c-0.3-0.8-0.9-1.4-1.7-1.8c-0.7,0.9-1.2,1.8-1.1,3
		c0,0.3,0,0.7-0.4,0.8c-0.4,0.1-0.5-0.3-0.7-0.6c-0.7-2.2-1.4-4.4-2.1-6.5c-0.2-0.7-0.1-1.4,1-1.2c1.2,0.2,2-0.2,2.3-1.6
		c0.1-0.5,0.4-0.6,0.9-0.4c1,0.3,2,0.6,3.1,0.6c0.9,0,1.7-0.3,2.3-1.2c-1.2-0.8-2.4-1.7-3.8-2.6c1.7-0.8,3.4-0.8,4.7-2.1
		c-1-0.5-2.1-0.5-3.1-0.8c-1-0.3-2-0.7-2.8-1.5c0.9-0.6,2-0.1,2.8-0.8c-0.8-1.3-2.2-2.1-3-3.4c3.8-0.2,4-0.3,5.7-1.3
		c-1.7-0.8-3.7-0.8-4.9-2.6c0.5-0.3,1-0.2,1.4-0.2c1-0.1,1.7-0.6,2.3-1.4c0.6-0.9,0.5-1.4-0.6-1.6c-2-0.3-3.9-1-5.7-1.8
		c-0.7-0.3-1.5-0.7-2-1.6c1.3,0,2.4,0,3.4-0.5c1-0.5,1.9-1,2.9-2c-2.7-0.7-5.5-0.3-8.1-1.7c1.6-1.1,3.2-1.8,4.7-3
		c-0.9-0.6-1.9-0.3-2.7-0.6c-0.9-0.3-1.7-0.7-2.3-1.4c-0.7-0.6-1.2-1.4-1.7-2.3c2.1,0.3,3.8-0.3,5.2-1.9c-3.2-1.5-6.7-2.2-8.9-5.4
		c1-0.2,1.8,0,2.6-0.3c0.7-0.3,1.4-0.5,1.9-1.2c-0.3-0.5-0.9-0.5-1.4-0.7c-1.3-0.5-2.6-1-3.8-1.8c-1.1-0.7-2-1.6-2.7-2.9
		c1.3,0,2.4,0.6,3.6,0.7c-0.1-0.2,0,0,0-0.2c0,0,0-0.1,0-0.1c-0.3-0.3-0.6-0.7-0.9-1c-3.6-3.6-7.1-7.1-10.9-10.9
		c-1,4.9-2,9.5-2.9,14.1c0.8,0.2,1-0.7,1.7-0.7c0.2,0.7-0.1,1.2-0.2,1.8c-0.2,0.7-0.4,1.4-0.6,2.1c-0.2,0.5-0.2,0.8,0.5,0.7
		c0.5-0.1,0.4,0.4,0.4,0.7c-0.1,1.8-0.7,3.5-1.6,5c-0.3,0.5-0.6,1.1-1,1.7c1.3,0.1,2-0.7,2.9-1.7c0.4,3.2-1,5.8-2.1,8.5
		c1.7,0.1,2.7-0.9,3.8-1.8c0.1,1.6-0.3,2.4-3.8,6.1c0.7,0.5,1.3,0.4,2,0c0.3-0.1,0.6-0.4,0.9-0.1c0.3,0.3,0.2,0.6,0,0.9
		c-0.3,0.8-0.8,1.5-1.4,2.2c-0.5,0.5-1,1-1.4,1.7c1.8,0.5,2.4,0.3,4.8-1.6c0.3,2.3-1.4,3.5-2.8,5c0.7,0.4,1.4,0.4,2.1,0.7
		c-0.2,1.1-0.7,2.1-1.2,3.1c-0.3,0.7-0.2,0.9,0.6,0.9c2-0.2,2.1,0,1.5,1.9c-0.3,1-0.8,1.9-1.2,2.8c-0.2,0.5-0.5,0.9-0.6,1.5
		c0.8-0.2,1.3-0.8,2.1-1c0.1,1.4-0.8,2.8-0.6,4.3c1.6-0.2,2.3-1.4,3.3-2.6c0.1,1.3-0.5,2.1-1,3c-0.2,0.3-0.3,0.6-0.5,0.9
		c-0.1,0.3-0.2,0.6,0.2,0.7c1,0.2,0.6,0.8,0.3,1.3c-0.3,0.4-0.7,0.8-0.8,1.4c1.2,0.2,2.3,0.2,3.4-0.2c0.8-0.3,1.1-0.1,0.9,0.7
		c-0.1,0.6-0.3,1.2-0.5,1.8c1.3-0.2,1.4-0.3,3-3c0.6,0.1,0.9,0.6,1.4,0.9c1.6,1.1,2.3,0.9,3.2-0.7c0.1-0.2,0.1-0.5,0.5-0.6
		c0.4,0.2,0.4,0.7,0.5,1.1c0.6,2.3,1.1,4.5,1.7,6.8c0.1,0.5,0.2,1-0.3,1.3c-0.5,0.3-0.8-0.1-1.1-0.3c-0.1-0.1-0.2-0.2-0.3-0.3
		c-1.1-0.8-1.5-0.6-1.6,0.8c0,0.2,0,0.5-0.1,0.7c-0.3,1.8-1.1,2.1-2.7,1.4c-0.1-0.1-0.3-0.1-0.4-0.2c-1.5-0.6-2-0.1-1.7,1.1
		c0.3,1.6-0.1,2.8-1.8,3.3c-0.2,0.1-0.3,0.3-0.6,0.2c-0.5-1-1.4-1.9-2.4-2.9c-0.5,1.5-1,2.8-0.4,4.2c0.1,0.1,0.1,0.3,0.1,0.4
		c0.1,0.3-0.1,0.5-0.4,0.7c-0.3,0.2-0.5,0-0.7-0.3c-0.4-0.9-1.2-1.1-2.1-1.4c-0.5-0.1-0.6,0.1-0.6,0.5c0,0.9-0.1,1.8,0.1,2.7
		c-0.1,0-0.2,0.1-0.3,0.1c-0.9-1.7-1.8-3.5-2.7-5.3c0.9-0.1,1.8,0.2,2.3-0.8c0.2-0.3,0.9-0.2,1.4-0.1c0.7,0,1.3,0,1.9-0.4
		c0.6-0.4,0.6-0.7,0.1-1.2c-0.5-0.4-1-0.8-1.6-1.2c0.2-0.8,1.1-0.8,1.3-1.7c-1.2-0.2-2.5,0.7-3.6-0.3c0.6-1,1.9-1.1,2.7-2
		c-0.8-0.7-2-0.7-2.8-1.4c0.8-0.4,1.7-0.3,2.5-0.8c-1-0.8-2.5-0.8-3.5-1.7c0.6-0.5,1.4-0.9,1.8-1.6c0.5-0.8,0.5-1-0.5-1.2
		c-1.2-0.3-2.4-0.4-3.4-1.3c1-0.5,2.2-0.7,2.7-2c-1.1-0.6-2.3-0.8-3.5-1.2c-1.1-0.4-2.2-0.9-3.2-1.8c1.1-0.4,2.3,0.1,3.4-0.7
		c-1.8-1.7-4.1-2.9-5.7-4.9c0.9-0.5,2,0,2.8-0.8c-1.5-1-3.2-1.5-4.7-2.4c0.4-0.7,1.1-0.4,1.6-0.9c-0.9-0.6-1.8-1.2-2.6-1.9
		c-0.9-0.7-1.7-1.4-2.4-2.3c-0.7-0.8-1.3-1.8-2-3c-1.4,4.5-2.2,8.8-2.3,13.3c0.7-0.2,0.8-0.9,1.4-1.1c-0.3,2.2-0.5,4.2-0.8,6.4
		c0.8-0.1,1.3-0.8,2.1-1.1c0.1,2-1.1,3.6-1.2,5.4c0.9,0,1.4-0.9,2.2-0.8c0.2,0.8-0.1,1.6-0.4,2.3c-0.4,1.3-0.9,2.6-1.3,4
		c-0.2,0.7,0,0.9,0.7,0.9c0.6-0.1,1.1-0.5,1.8-0.7c-0.3,1.7-1.1,3.1-1.5,4.7c0.8,0,1.1-0.8,1.8-0.8c0.2,0.5-0.2,0.9-0.3,1.3
		c-0.4,0.9-0.7,1.8-0.9,2.7c-0.2,0.8,0,1,0.8,0.8c0.5-0.1,1.1-0.4,1.7-0.3c-0.5,1.5-1.2,3-0.8,4.6c1-0.1,1.6-1,2.6-1.3
		c0.4,0.7,0,1.7,0.5,2.5c0.9-0.7,1.3-1.8,2.1-2.5c0.1,0,0.2,0,0.3,0.1c0.6,1.4,0.7,1.5,2,0.4c0.4-0.4,0.9-0.7,1.5-1.2
		c1,2.2,2.6,4,2.3,6.7c-0.7-0.1-1.2-0.5-1.7-0.8c-0.5-0.3-0.8-0.2-0.9,0.4c-0.2,1-0.2,2.1-0.7,3c-0.3,0.6,0.1,1.1,0.8,1.1
		c0.4,0,0.8,0,1,0.3c0.3,0.5,0.6,1.1,0.9,1.6c0.1,0.2-0.1,0.4-0.3,0.6c-0.5,0.4-0.2,0.9,0,1.3c0.3,0.5,0.6,0.2,1,0.1
		c0.5-0.2,0.8,0,1.1,0.5c0.4,0.7,0.9,1.5,1.3,2.2c0.6,1.1,0.6,1.4-0.2,2.3c-0.3,0.4-0.7,0.7-1,1c-2.9,2.7-6.5,4.3-10,6.2
		c-0.3-0.6-0.2-1.1-0.1-1.5c0.3-3.2,0.5-6.4,0.8-9.6c0-0.5,0.1-1,0.1-1.4c0-0.7-0.4-1.1-1.1-1.1c-0.5,0-1,0-1.4,0
		c-12.5,0.5-25,0.8-37.5,1.2c-0.6,0-1.3,0-1.9,0.1c-2.5-4-5.6-7.5-9.1-10.8c-9.3-8.9-20.7-14.9-31.5-21.7c-1.1-0.7-2.6-1-3.9-1.4
		c-1.7-0.6-4-0.4-3.4-3.5c0.3-1.6-1.6-1.5-2.5-1.8c-3-1-6-2.1-7.8-4.9c-1.2-1.9-2.8-2.2-4.7-2.2c-3.9,0-6.8-4.3-5.3-7.9
		c0.6-1.3,0.6-2.4-0.7-3.3c-0.8-0.5-1.4-1.3-2.1-1.8C361.7,359.9,361.2,358.8,363.5,356.8z M547.6,346.4c-0.1,0-0.2,0-0.3,0.1
		c-1-1.2-1.9-2.3-2.8-3.5c0.1-0.2,0.2-0.3,0.3-0.3c2.3-0.7,2.9-0.3,2.9,2C547.6,345.3,547.6,345.8,547.6,346.4z M487.6,417.1
		c0,0.1,0,0.3-0.1,0.4c-0.1,0.1-0.3,0.2-0.4,0c-0.6-0.8-1.4-1.6-1.6-3C486.7,415.2,487.1,416.2,487.6,417.1z M385,680.3
		C385,680.3,385,680.3,385,680.3c-4.3-2.4-8.5-5.8-8.2-10.9c0.6-8.8-4.7-15.1-7.7-22.4c-0.3-0.8-0.8-1.9-1.8-2
		c-2.9-0.1-2.9-2.3-3.4-4.3c-0.5-1.9-0.8-3.9-1.5-5.7c-1.6-3.8-1.5-7.4-0.2-11.2c4.5-12.9,7.7-26,9.1-39.6c0.4-4.3,0.2-8.4-2.2-12
		c-1-1.5-0.8-2.1,0.7-2.8c3.5-1.7,7-3.7,10.5-5.4c1.8-0.9,2.6-2.1,2.5-4.1c-0.2-6.3-0.8-12.5-3.5-18.4c-3.8-8.3-8.2-16.2-13.1-23.8
		c-1-1.6-1-2.4,0.5-3.8c3.3-3,3.8-5.6,2-9.7c-2.8-6.4-5.8-12.8-10.1-18.3c-9.1-11.5-8.5-12.1-23.3-8.4c-0.1,0-0.2,0.1-0.3,0.1
		c-2.5,0.9-4.1,0.1-5.2-2.4c-3.3-7.3-4.5-14.9-4.4-22.7c0.3-18.1,3.4-35.4,14.1-50.6c1.3-1.9,2.4-2,3.9-0.5c0.7,0.7,1.7,1.4,2,2.4
		c2,5.6,6.9,8.6,10.9,12.4c0.9,0.9,2,1.6,3.4,1.6c2.7,0,2.8,1.6,2.1,3.5c-1,3.1-0.7,5.9,0.8,8.8c4.4,8.7,8.8,17.4,13.2,26.1
		c3.4,6.5,8.7,10.7,15.7,12.9c2.4,0.8,4.7,0.5,6.5-1.1c1.9-1.7,3.5-1.8,5.7-0.6c2.1,1.1,4.3,1.6,6.3,0.4c0,36.4,0,72.7,0,109.1
		c3.5-0.4,7-0.8,10.6-1.3c5-0.6,10.1-1.3,15.1-1.9c4.2-0.5,8.4-1,12.6-1.5c-1.1,3.4-1.4,7.1-0.7,10.7l14.2,74.7
		c-0.1,0-0.2,0-0.3,0.1c-4.7,1-8.9,3.4-11.9,7c-2.1-0.4-4.3-0.6-6.5-0.7c-8.1-0.2-15.4,1.5-21.3,2.8l-1.7,0.4
		c-0.2,0-0.4,0.1-0.6,0.1c-8.2,2.1-16.5,4.4-24.6,6.7C391,675.2,387.6,677.4,385,680.3z M471.3,756.2c-0.7,3-2.4,5.4-5,6.9
		c-5,2.8-11.2,4.2-17,5.6c-8.3,2.2-16.7,4.4-24.9,6.8c-7.8-27-15.7-54-23.5-81c8-2.3,16-4.5,24-6.6c5.8-1.3,11.7-2.8,17.7-2.7
		c4.1,0.1,7.8,1.5,10.9,4.2c3.1,2.7,5.4,7.6,7,14.7c1,4.8,0.9,8.4-0.3,10.6c-1.2,2.3-4.1,4.4-8.7,6.6c5.6-0.1,9.6,0.9,12.1,3.1
		c2.5,2.2,4.3,6,5.4,11.3c0.7,3.1,1,4.6,1.6,7.6C471.8,749,472.1,753.3,471.3,756.2z M482.6,761.1c-5.6-27.5-11.2-55.1-16.8-82.6
		c8.1-1.7,16.2-3.2,24.4-4.6c4.8,27.7,9.5,55.4,14.3,83.1C497.2,758.3,489.9,759.7,482.6,761.1z M542,751.6
		c-1.1-9.3-2.2-18.6-3.3-27.8c-0.5-4.5-1.2-7.2-2.1-8.2c-0.9-1-2.9-1.3-6.1-0.9c1.6,12.6,3.2,25.1,4.9,37.7c-7.3,0.9-14.7,2-22,3.2
		c-4.4-27.8-8.9-55.5-13.3-83.3c5.8-0.9,11.6-1.8,17.3-2.6c7.8-1.1,15.9-2.2,23.7-1.7c4.1,0.3,7.7,2,10.6,5.1
		c2.9,3,4.6,8.1,5.3,15.3c0.6,6.5,0.1,11-1.4,13.4c-1.5,2.4-4.8,4.1-9.9,5.1c4.7,0.6,8,1.7,9.7,3.4c1.8,1.6,2.9,3.2,3.4,4.7
		c0.5,1.5,1.1,5.6,1.7,12.4c0.7,7.4,1.3,14.8,2,22.2C555.6,750.1,548.8,750.8,542,751.6z M600,679.5c0.8,22.5,1.6,44.9,2.4,67.4
		c-7.4,0.3-14.8,0.6-22.1,1.1c-1.5-22.4-3-44.9-4.5-67.3c-5.7,0.4-8.6,0.6-14.3,1.1c-0.6-6.7-0.9-10.1-1.4-16.8
		c18-1.4,35.9-2.4,53.9-2.8c0.1,6.7,0.2,10.1,0.3,16.9C608.6,679.2,605.7,679.3,600,679.5z M671.6,747.6c-7.4-0.4-14.8-0.7-22.1-1
		c0.3-11.8,0.7-23.6,1-35.4c-2.8-0.1-4.2-0.1-6.9-0.2c-0.2,11.8-0.4,23.6-0.7,35.4c-7.4-0.1-14.8-0.2-22.2-0.1
		c-0.3-28.1-0.6-56.2-1-84.3c8.2-0.1,16.5-0.1,24.7,0.1c-0.2,10.1-0.4,20.1-0.6,30.2c2.8,0.1,4.3,0.1,7.1,0.2
		c0.3-10,0.6-20.1,0.8-30.1c8.2,0.2,16.5,0.6,24.7,1.1C674.8,691.5,673.2,719.6,671.6,747.6z M665.2,648.9c1.3-28.1,2.6-56.2,4-84.2
		c8.9,0.5,17.7,1,26.6,1.7c7.2,0.6,12.7,1.5,16.4,2.9c3.8,1.3,6.5,3,8.2,4.9c1.7,2,2.8,4.2,3.2,6.8c0.4,2.6,0.3,6.5-0.3,11.7
		c-0.3,2.9-0.5,4.4-0.8,7.3c-0.6,5.3-1.7,9.2-3.2,11.5c-1.5,2.3-4.1,3.9-7.6,4.9c-3.5,1-7.9,1.2-13.4,0.7c-2.7-0.2-4-0.3-6.7-0.5
		c-0.9,11.3-1.8,22.6-2.6,33.9C681,649.8,673.1,649.3,665.2,648.9z M727.2,749.1c-2,1.2-4.3,1.9-7,2.1c-2.7,0.2-6.7,0-11.9-0.5
		c-9.3-1-18.6-1.8-27.9-2.5c2-28,4-56.1,5.9-84.1c6.1,0.4,12.3,0.9,18.4,1.5c8,0.8,16.4,1.5,23.9,4.1c4,1.4,7,3.5,8.9,6
		c1.9,2.5,2.9,5.1,3,7.9c0.2,2.8-0.3,8.1-1.4,16c-1.4,9.7-2.8,19.5-4.1,29.2c-1.1,7.5-2.1,12.5-3.2,14.9
		C730.7,746.1,729.2,747.9,727.2,749.1z M790,764.3c-7.4-1.7-14.8-3.2-22.3-4.7c0.7-6,1-9.1,1.7-15.1c-3.2-0.6-4.8-0.9-8-1.5
		c-1.6,5.9-2.4,8.8-4,14.7c-7.5-1.3-15.1-2.6-22.7-3.7c7.8-27.3,16.1-54.5,24.7-81.5c11.8,2,23.5,4.1,35.3,6.5
		C793.5,707.5,792,735.9,790,764.3z M825.6,741.6c-2.6,9.8-5.2,19.7-7.9,29.5c-6.7-1.7-13.3-3.4-20.1-5c2.3-9.9,4.7-19.8,7-29.7
		c-1.2-18.8-2.8-37.5-4.7-56.2c7.4,1.6,14.9,3.3,22.3,5.1c-0.3,11.2-0.5,22.6-2.2,33.7c4.4-10.5,9.5-20.5,14.8-30.5
		c7.4,1.9,14.7,3.9,22.1,6.1C846.2,710,835.7,725.7,825.6,741.6z"/>
	<path d="M445.8,738.5c-0.9-3.5-1.8-5.5-2.8-6.1c-1-0.5-3.2-0.4-6.6,0.3c2,7.6,3.9,15.2,5.9,22.9c3.1-0.9,4.9-1.9,5.6-2.9
		c0.6-1.1,0.6-3.2-0.2-6.5C447,743.1,446.6,741.6,445.8,738.5z"/>
	<path d="M630.9,599.6c0.7,0,1.3,0.1,1.9,0.1c2.3,0,3.9-0.5,4.9-1.4c0.9-1,1.4-3,1.4-6.2c0-2.8,0.1-4.2,0.1-6.9
		c0-2.9-0.5-4.8-1.5-5.6c-1.1-0.9-3.3-1.3-6.7-1.3C630.9,585.3,630.9,592.5,630.9,599.6z"/>
</g>
<g id="Preview_SVGDe_00000095335002883935359730000016064185028702923417_">
	<g>
		<defs>
			<rect id="SVGID_00000114059903062161370570000009330212869339823286_" x="-59.1" y="1354.9" width="1000" height="1500"/>
		</defs>
		<clipPath id="SVGID_00000073002389800290034480000007331104546865830809_">
			<use xlink:href="#SVGID_00000114059903062161370570000009330212869339823286_"  style="overflow:visible;"/>
		</clipPath>
		<g style="clip-path:url(#SVGID_00000073002389800290034480000007331104546865830809_);">
			<g>
				<defs>
					<rect id="SVGID_00000053506577332531863040000016331899951046770333_" x="-358.3" y="1305.8" width="1598.2" height="1598.2"/>
				</defs>
				<clipPath id="SVGID_00000158737217668062807140000000856274826290424203_">
					<use xlink:href="#SVGID_00000053506577332531863040000016331899951046770333_"  style="overflow:visible;"/>
				</clipPath>
				<g style="opacity:0.25;clip-path:url(#SVGID_00000158737217668062807140000000856274826290424203_);">
					<g>
						<g>
							<path class="st9" d="M592.2,888.6c-0.8-2-0.8-3.1-0.3-4.5c0.5-1.5,1.5-2.3,2.2-2.1c0.7,0.2,0.8,0.9,0.7,2.3
								c0,0.4,0,0.7,0,1.2c2,4.5,4.9,7.7,6.5,11c0.9,1.9,1.6,4,0.6,6.1c2.5-2.9,3-6.8,2.8-10c0-0.6,0.5-0.8,0.9-0.5
								c0.4,0.3,1,1.6,1,3.5c0,4.2-2.3,7.7-5.5,9.7c-2.7,1.6-5.7,2.3-8.9,0.2c-2.3-1.5-3.8-4.7-2.9-6.9c0.3-0.8,0.8-0.8,1.2-0.1
								c0.3,0.4,0.5,0.7,0.7,1.1C591.7,895.9,592.1,891.7,592.2,888.6z M593,901.9c2.2,2.3,4.6,3.5,5.9,2.2
								c1.8-1.8-2.9-8.8-5.1-12.5C593.7,894.8,593.4,898.4,593,901.9z"/>
							<path class="st9" d="M613.5,873.6c0.2-0.8,0.6-0.9,1-0.3c0.7,0.9,0.8,2.4,0.3,5.1c-0.7,4.2-2.6,11.1-3.2,20.7
								c0,0.5-0.1,1-0.7,1c-2.3,0.1-3.5-0.5-4.7-3.1c-1.6-3.4-4-10.8-5-16.6c-0.1-0.6,0.2-1,0.7-0.9c2.3,0.5,3.4,2.1,4.3,5.3
								c1.1,4.1,1.6,7.2,3.7,12.7C610.3,890.3,612.1,878.6,613.5,873.6z"/>
							<path class="st9" d="M631.8,890c0.8,7.7,1.5,17-1.5,20.6c-0.7,0.9-1.8,1.3-3.3,0.5c-1.8-0.9-3.5-2.1-4.1-5.3
								c-0.9-5,1.6-10,5.2-14.3c-0.1-1.3-0.3-2.6-0.4-4c-0.6,2.1-1.7,4-3.5,4.9c-4.3,2.3-8.4-3.1-7.6-10.8
								c0.7-7.4,3.4-11.6,5.8-12.9c1.9-1,3.6-0.1,4.5,1.6c0.1-1.2,0.1-2.4,0.1-3.4c0-0.9,0.5-1.2,1-0.9c1.2,0.5,2.6,2.3,2.7,5.2
								c0.1,3.6,0.2,10.9,0.7,16.5c2.9-4.1,4.1-8.1,4.6-11.6c0.1-0.5,0.5-0.8,0.9-0.3c0.3,0.4,0.6,1.5,0.5,3.2
								C637.3,882.8,635,886.5,631.8,890z M627.2,908.9c1.1,0.6,2.2-6.3,1.3-15.1C624.3,900.6,625.8,908.2,627.2,908.9z
								 M624.6,870.6c-1.5,0.7-3.3,5.6-3.7,11.1c-0.3,5.4,1.4,9.8,3.3,8.9c1.9-0.9,2.7-5.2,2.8-10.6
								C627.1,873.1,626,870,624.6,870.6z"/>
							<path class="st9" d="M652.3,875.7c1.9-1.1,2.7-5.7,2.6-9.8c0-0.6,0.3-0.7,0.7-0.5c0.4,0.3,1.1,1.5,1.2,3.1
								c0.1,3.3-1.4,7.3-4.1,8.6c-2.6,1.2-4.6,0.5-5.8-1.7c-0.5,2.7-1.7,5.6-3.9,6.8c-4.4,2.4-8.5-3.1-7.7-10.9
								c0.8-7.5,3.4-11.6,5.7-12.9c1.9-1,3.7-0.1,4.6,1.7c-0.1-6.2,0-14.6,0.4-17.9c0.1-0.9,0.6-1.1,1.1-0.6
								c1.5,1.2,2.5,3.3,2.4,7.9c-0.1,5.3-0.4,15.5,0,21.7C649.7,874.8,650.7,876.7,652.3,875.7z M639.5,871.6
								c-0.3,5.4,1.4,9.8,3.2,8.8c1.9-1,2.9-5.1,2.8-10.6c-0.1-6.7-1-10-2.4-9.3C641.6,861.3,639.8,866.1,639.5,871.6z"/>
							<path class="st9" d="M663.8,869.4c4-1.9,5.4-7.5,5.7-11.7c0-0.5,0.4-0.7,0.8-0.4c0.4,0.3,1,1.7,0.8,3.3
								c-0.4,3.9-2.9,8.1-6.5,10.1c-5.9,3.3-11.2-1.4-11.4-9.1c-0.2-7.7,3.2-12.8,6.3-12.7c1.6,0.1,2.8,0.3,4.1,0.9
								c1.5,0.7,2.6,3.7,2,7.2c-0.8,4.1-3.3,7-8,6.1C658.5,868.3,661.2,870.6,663.8,869.4z M661.8,856.5c0.4-2.8,0.1-5.8-0.8-6
								c-1.4-0.3-3.8,4.7-3.6,10.3c0,0.4,0,0.7,0.1,1C660.6,862.1,661.4,859,661.8,856.5z"/>
							<path class="st9" d="M679.8,838c0.1-0.8,0.4-1.1,1-0.9c1.2,0.5,2.6,2.3,2.8,5.2c0.1,2.7-0.3,7.5-0.1,10.6
								c0.3,3.3,1.3,5.3,2.8,4.4c1.9-1.1,2.7-5.7,2.6-9.9c0-0.6,0.3-0.8,0.7-0.5c0.4,0.3,1.1,1.5,1.2,3.1c0.2,3.2-1.4,7.4-4,8.7
								c-2.6,1.2-4.7,0.4-5.9-1.8c-0.5,2.7-1.6,5.6-3.9,6.9c-4.4,2.4-8.5-3.1-7.7-10.9c0.8-7.6,3.4-11.7,5.7-13
								c2-1.1,3.8-0.1,4.7,1.8C679.6,840.4,679.7,839.1,679.8,838z M677.1,842c-1.6,0.7-3.4,5.6-3.7,11.2c-0.3,5.4,1.3,9.9,3.2,8.9
								c2-1,2.8-5.3,2.9-10.8C679.7,844.5,678.5,841.4,677.1,842z"/>
							<path class="st9" d="M695.8,851.9c2.4-1,3.8-6.2,3.7-10.8c0-0.8,0.5-1.1,1-0.6c0.6,0.6,1,1.8,1.1,3.2c0.1,1.8-1.2,7.5-5,9.5
								c-3.3,1.7-6.3,0.4-7.9-5.3c-2.7-9.1-1.9-20.5,0.1-28.1c0.3-1.1,0.9-1.6,1.9-1.3c2,0.5,3.3,2.1,3.9,4.6
								c1.7,6.6-0.5,15.1-3.2,20.1C692,848.7,693.6,852.9,695.8,851.9z M692.4,822.9c-0.8,0-1.5,7.1-1.4,14.8c0,1,0,1.9,0.1,2.9
								C694.7,831.9,693.3,822.9,692.4,822.9z"/>
						</g>
					</g>
					<g>
						<g>
							<path class="st10" d="M838.9,863.9c-0.8-2-0.8-3.1-0.3-4.5c0.5-1.5,1.5-2.3,2.2-2.1c0.7,0.2,0.8,0.9,0.7,2.3
								c0,0.4,0,0.7,0,1.2c2,4.5,4.9,7.7,6.5,11c0.9,1.9,1.6,4,0.6,6.1c2.5-2.9,3-6.8,2.8-10c0-0.6,0.5-0.8,0.9-0.5
								c0.4,0.3,1,1.6,1,3.5c0,4.2-2.3,7.7-5.5,9.7c-2.7,1.6-5.7,2.3-8.9,0.2c-2.3-1.5-3.8-4.7-2.9-6.9c0.3-0.8,0.8-0.8,1.2-0.1
								c0.3,0.4,0.5,0.7,0.7,1.1C838.4,871.2,838.8,867,838.9,863.9z M839.7,877.2c2.2,2.3,4.6,3.5,5.9,2.2
								c1.8-1.8-2.9-8.8-5.1-12.5C840.4,870.2,840.1,873.7,839.7,877.2z"/>
							<path class="st10" d="M860.2,849c0.2-0.8,0.6-0.9,1-0.3c0.7,0.9,0.8,2.4,0.3,5.1c-0.7,4.2-2.6,11.1-3.2,20.7
								c0,0.5-0.1,1-0.7,1c-2.3,0.1-3.5-0.5-4.7-3.1c-1.6-3.4-4-10.8-5-16.6c-0.1-0.6,0.2-1,0.7-0.9c2.3,0.5,3.4,2.1,4.3,5.3
								c1.1,4.1,1.6,7.2,3.7,12.7C857,865.6,858.8,854,860.2,849z"/>
							<path class="st10" d="M878.5,865.3c0.8,7.7,1.5,17-1.5,20.6c-0.7,0.9-1.8,1.3-3.3,0.5c-1.8-0.9-3.5-2.1-4.1-5.3
								c-0.9-5,1.6-10,5.2-14.3c-0.1-1.3-0.3-2.6-0.4-4c-0.6,2.1-1.7,4-3.5,4.9c-4.3,2.3-8.4-3.1-7.6-10.8
								c0.7-7.4,3.4-11.6,5.8-12.9c1.9-1,3.6-0.1,4.5,1.6c0.1-1.2,0.1-2.4,0.1-3.4c0-0.9,0.5-1.2,1-0.9c1.2,0.5,2.6,2.3,2.7,5.2
								c0.1,3.6,0.2,10.9,0.7,16.5c2.9-4.1,4.1-8.1,4.6-11.6c0.1-0.5,0.5-0.8,0.9-0.3c0.3,0.4,0.6,1.5,0.5,3.2
								C884,858.1,881.7,861.8,878.5,865.3z M873.9,884.2c1.1,0.6,2.2-6.3,1.3-15.1C871,876,872.5,883.5,873.9,884.2z M871.3,846
								c-1.5,0.7-3.3,5.6-3.7,11.1c-0.3,5.4,1.4,9.8,3.3,8.9c1.9-0.9,2.7-5.2,2.8-10.6C873.8,848.5,872.7,845.3,871.3,846z"/>
							<path class="st10" d="M899,851.1c1.9-1.1,2.7-5.7,2.6-9.8c0-0.6,0.3-0.7,0.7-0.5c0.4,0.3,1.1,1.5,1.2,3.1
								c0.1,3.3-1.4,7.3-4.1,8.6c-2.6,1.2-4.6,0.5-5.8-1.7c-0.5,2.7-1.7,5.6-3.9,6.8c-4.4,2.4-8.5-3.1-7.7-10.9
								c0.8-7.5,3.4-11.6,5.7-12.9c1.9-1,3.7-0.1,4.6,1.7c-0.1-6.2,0-14.6,0.4-17.9c0.1-0.9,0.6-1.1,1.1-0.6
								c1.5,1.2,2.5,3.3,2.4,7.9c-0.1,5.3-0.4,15.5,0,21.7C896.4,850.1,897.4,852.1,899,851.1z M886.2,847c-0.3,5.4,1.4,9.8,3.2,8.8
								c1.9-1,2.9-5.1,2.8-10.6c-0.1-6.7-1-10-2.4-9.3C888.3,836.6,886.5,841.4,886.2,847z"/>
							<path class="st10" d="M910.5,844.8c4-1.9,5.4-7.5,5.7-11.7c0-0.5,0.4-0.7,0.8-0.4c0.4,0.3,1,1.7,0.8,3.3
								c-0.4,3.9-2.9,8.1-6.5,10.1c-5.9,3.3-11.2-1.4-11.4-9.1c-0.2-7.7,3.2-12.8,6.3-12.7c1.6,0.1,2.8,0.3,4.1,0.9
								c1.5,0.7,2.6,3.7,2,7.2c-0.8,4.1-3.3,7-8,6.1C905.2,843.6,907.9,846,910.5,844.8z M908.5,831.8c0.4-2.8,0.1-5.8-0.8-6
								c-1.4-0.3-3.8,4.7-3.6,10.3c0,0.4,0,0.7,0.1,1C907.3,837.4,908.1,834.4,908.5,831.8z"/>
							<path class="st10" d="M926.5,813.4c0.1-0.8,0.4-1.1,1-0.9c1.2,0.5,2.6,2.3,2.8,5.2c0.1,2.7-0.3,7.5-0.1,10.6
								c0.3,3.3,1.3,5.3,2.8,4.4c1.9-1.1,2.7-5.7,2.6-9.9c0-0.6,0.3-0.8,0.7-0.5c0.4,0.3,1.1,1.5,1.2,3.1c0.2,3.2-1.4,7.4-4,8.7
								c-2.6,1.2-4.7,0.4-5.9-1.8c-0.5,2.7-1.6,5.6-3.9,6.9c-4.4,2.4-8.5-3.1-7.7-10.9c0.8-7.6,3.4-11.7,5.7-13
								c2-1.1,3.8-0.1,4.7,1.8C926.3,815.7,926.4,814.4,926.5,813.4z M923.8,817.3c-1.6,0.7-3.4,5.6-3.7,11.2
								c-0.3,5.4,1.3,9.9,3.2,8.9c2-1,2.8-5.3,2.9-10.8C926.4,819.9,925.2,816.7,923.8,817.3z"/>
							<path class="st10" d="M942.5,827.3c2.4-1,3.8-6.2,3.7-10.8c0-0.8,0.5-1.1,1-0.6c0.6,0.6,1,1.8,1.1,3.2c0.1,1.8-1.2,7.5-5,9.5
								c-3.3,1.7-6.3,0.4-7.9-5.3c-2.7-9.1-1.9-20.5,0.1-28.1c0.3-1.1,0.9-1.6,1.9-1.3c2,0.5,3.3,2.1,3.9,4.6
								c1.7,6.6-0.5,15.1-3.2,20.1C938.7,824.1,940.3,828.2,942.5,827.3z M939.1,798.2c-0.8,0-1.5,7.1-1.4,14.8c0,1,0,1.9,0.1,2.9
								C941.4,807.2,940,798.3,939.1,798.2z"/>
						</g>
						<g>
							<path class="st10" d="M998,1033.7c1.9-1.1,2.7-5.7,2.6-9.8c0-0.6,0.3-0.7,0.7-0.5c0.4,0.3,1.1,1.5,1.2,3.1
								c0.1,3.3-1.4,7.3-4.1,8.6c-2.6,1.2-4.6,0.5-5.8-1.7c-0.5,2.7-1.7,5.6-3.9,6.8c-4.4,2.4-8.5-3.1-7.7-10.9
								c0.8-7.5,3.4-11.6,5.7-12.9c1.9-1,3.7-0.1,4.6,1.7c-0.1-6.2,0-14.6,0.4-17.9c0.1-0.9,0.6-1.1,1.1-0.6
								c1.5,1.2,2.5,3.3,2.4,7.9c-0.1,5.3-0.4,15.5,0,21.7C995.4,1032.8,996.4,1034.7,998,1033.7z M985.2,1029.6
								c-0.3,5.4,1.4,9.8,3.2,8.8c1.9-1,2.9-5.1,2.8-10.6c-0.1-6.7-1-10-2.4-9.3C987.3,1019.3,985.5,1024.1,985.2,1029.6z"/>
						</g>
					</g>
				</g>
			</g>
		</g>
	</g>
</g>
</svg>
