<?xml version="1.0" encoding="utf-8"?>
<!-- Generator: Adobe Illustrator 25.0.0, SVG Export Plug-In . SVG Version: 6.00 Build 0)  -->
<svg version="1.1" id="katman_1" xmlns="http://www.w3.org/2000/svg" xmlns:xlink="http://www.w3.org/1999/xlink" x="0px" y="0px"
	 viewBox="0 0 700 700" style="enable-background:new 0 0 700 700;" xml:space="preserve">
<style type="text/css">
	.st0{enable-background:new    ;}
</style>
<g>
	<g class="st0">
		<path d="M219.8,642.7h3.2l-4,11.8h-3.2l-2.2-8l-2.3,8h-3.2l-4-11.8h3.3l2.3,8.6l2.3-8.6h3l2.4,8.6L219.8,642.7z"/>
		<path d="M238.5,642.7h3.2l-4,11.8h-3.2l-2.2-8l-2.3,8h-3.2l-4-11.8h3.3l2.3,8.6l2.3-8.6h3l2.4,8.6L238.5,642.7z"/>
		<path d="M257.3,642.7h3.2l-4,11.8h-3.2l-2.2-8l-2.3,8h-3.2l-4-11.8h3.3l2.3,8.6l2.3-8.6h3l2.4,8.6L257.3,642.7z"/>
		<path d="M262.9,652.1c0.3,0.3,0.4,0.6,0.4,1c0,0.4-0.1,0.8-0.4,1.1c-0.3,0.3-0.6,0.4-1,0.4c-0.4,0-0.8-0.1-1-0.4
			c-0.3-0.3-0.4-0.6-0.4-1.1c0-0.4,0.1-0.8,0.4-1c0.3-0.3,0.6-0.4,1-0.4S262.6,651.9,262.9,652.1z"/>
		<path d="M265.1,642.7h8.8l0,2.5h-5.7v2.6h5.3v2.5h-5.3v4.3h-3.1V642.7z"/>
		<path d="M282.4,654.5l-1.7-3.3h-0.1h-2.2v3.3h-3.1v-11.8h5.3c1.6,0,2.8,0.4,3.6,1.1c0.9,0.7,1.3,1.7,1.3,3.1
			c0,0.9-0.2,1.7-0.5,2.3s-0.9,1.1-1.6,1.5l2.5,3.9H282.4z M278.4,648.8h2.2c0.6,0,1.1-0.2,1.5-0.5c0.3-0.3,0.5-0.8,0.5-1.4
			c0-0.6-0.2-1-0.5-1.3c-0.3-0.3-0.8-0.5-1.5-0.5h-2.2V648.8z"/>
		<path d="M287.5,642.7h9.3v2.5h-6.2v2.2h5.6v2.4l-5.6,0v2.2h6.4v2.5h-9.5V642.7z"/>
		<path d="M298.9,642.7h9.3v2.5H302v2.2h5.6v2.4l-5.6,0v2.2h6.4v2.5h-9.5V642.7z"/>
		<path d="M316.4,645.3c-0.7-0.2-1.3-0.4-1.8-0.4c-0.4,0-0.7,0.1-0.9,0.2c-0.2,0.1-0.3,0.3-0.3,0.6c0,0.3,0.1,0.5,0.3,0.6
			c0.2,0.2,0.4,0.3,0.7,0.4c0.3,0.1,0.7,0.2,1.2,0.4c0.8,0.2,1.5,0.5,2,0.7c0.5,0.2,1,0.6,1.4,1.1c0.4,0.5,0.6,1.1,0.6,1.9
			c0,0.8-0.2,1.5-0.6,2c-0.4,0.6-1,1-1.7,1.3c-0.7,0.3-1.5,0.4-2.4,0.4c-1,0-2-0.2-2.9-0.5c-1-0.3-1.8-0.8-2.5-1.4l1.2-2.4
			c0.6,0.5,1.3,1,2.1,1.3s1.5,0.5,2.2,0.5c0.5,0,0.8-0.1,1.1-0.3c0.3-0.2,0.4-0.4,0.4-0.7c0-0.3-0.1-0.5-0.3-0.7
			c-0.2-0.2-0.4-0.3-0.7-0.4c-0.3-0.1-0.7-0.2-1.3-0.4c-0.8-0.2-1.5-0.5-2-0.7c-0.5-0.2-1-0.6-1.4-1c-0.4-0.5-0.6-1.1-0.6-1.9
			c0-0.7,0.2-1.4,0.6-1.9c0.4-0.5,0.9-1,1.7-1.3c0.7-0.3,1.5-0.4,2.5-0.4c0.9,0,1.7,0.1,2.5,0.4c0.8,0.2,1.6,0.6,2.2,1l-1.2,2.5
			C317.7,645.9,317.1,645.6,316.4,645.3z"/>
		<path d="M319.9,642.7h3.3l2.9,8.5l3-8.5h3.2l-4.6,11.8h-3.2L319.9,642.7z"/>
		<path d="M341.1,648.5h2.7v4.7c-0.6,0.5-1.4,0.8-2.3,1.1c-0.9,0.3-1.8,0.4-2.6,0.4c-1.2,0-2.3-0.3-3.2-0.8s-1.7-1.3-2.3-2.2
			c-0.6-0.9-0.8-2-0.8-3.1c0-1.1,0.3-2.2,0.9-3.1s1.3-1.7,2.3-2.2c1-0.5,2.1-0.8,3.3-0.8c0.9,0,1.8,0.2,2.6,0.5
			c0.9,0.3,1.6,0.8,2.2,1.3l-1.8,2.2c-0.4-0.4-0.9-0.7-1.5-1c-0.6-0.2-1.1-0.4-1.6-0.4c-0.6,0-1.2,0.2-1.7,0.5
			c-0.5,0.3-0.9,0.7-1.2,1.2c-0.3,0.5-0.4,1.1-0.4,1.8c0,0.7,0.1,1.3,0.4,1.8s0.7,1,1.2,1.3c0.5,0.3,1.1,0.5,1.7,0.5
			c0.6,0,1.3-0.2,2-0.6V648.5z"/>
		<path d="M354.1,643.4c0.9,0.5,1.7,1.2,2.2,2.1c0.5,0.9,0.8,1.9,0.8,3.1c0,1.2-0.3,2.2-0.8,3.1c-0.5,0.9-1.3,1.6-2.3,2.1
			c-1,0.5-2.1,0.7-3.3,0.7h-5v-11.8h5.1C352.1,642.7,353.2,642.9,354.1,643.4z M352.5,651.6c0.5-0.3,0.8-0.7,1.1-1.2
			c0.3-0.5,0.4-1.1,0.4-1.8c0-0.7-0.1-1.3-0.4-1.8c-0.3-0.5-0.7-0.9-1.1-1.2s-1-0.4-1.7-0.4h-1.9v6.8h2.1
			C351.5,652,352.1,651.9,352.5,651.6z"/>
		<path d="M367.4,643.3c1,0.5,1.7,1.3,2.3,2.2c0.6,0.9,0.8,2,0.8,3.1c0,1.2-0.3,2.2-0.8,3.1s-1.3,1.7-2.3,2.2
			c-1,0.5-2.1,0.8-3.3,0.8s-2.3-0.3-3.3-0.8c-1-0.5-1.7-1.3-2.3-2.2s-0.8-2-0.8-3.1c0-1.1,0.3-2.2,0.8-3.1c0.6-0.9,1.3-1.6,2.3-2.2
			c1-0.5,2.1-0.8,3.3-0.8S366.4,642.8,367.4,643.3z M362.5,645.6c-0.5,0.3-0.9,0.7-1.2,1.3s-0.4,1.1-0.4,1.8c0,0.7,0.1,1.2,0.4,1.8
			s0.7,1,1.2,1.3c0.5,0.3,1,0.5,1.6,0.5c0.6,0,1.1-0.2,1.6-0.5c0.5-0.3,0.9-0.7,1.2-1.3c0.3-0.5,0.4-1.1,0.4-1.8
			c0-0.6-0.1-1.2-0.4-1.8c-0.3-0.5-0.7-1-1.2-1.3c-0.5-0.3-1-0.5-1.6-0.5C363.6,645.1,363,645.3,362.5,645.6z"/>
		<path d="M386.3,642.7h3.2l-4,11.8h-3.2l-2.2-8l-2.3,8h-3.2l-4-11.8h3.3l2.3,8.6l2.3-8.6h3l2.4,8.6L386.3,642.7z"/>
		<path d="M398.7,642.7h2.9v11.8h-2.7l-5.4-7.1v7.1h-2.9v-11.8h2.7l5.4,7.1L398.7,642.7z"/>
		<path d="M403.8,642.7h3.1v9.2h5v2.6h-8.1V642.7z"/>
		<path d="M422.2,643.3c1,0.5,1.7,1.3,2.3,2.2c0.6,0.9,0.8,2,0.8,3.1c0,1.2-0.3,2.2-0.8,3.1s-1.3,1.7-2.3,2.2
			c-1,0.5-2.1,0.8-3.3,0.8s-2.3-0.3-3.3-0.8c-1-0.5-1.7-1.3-2.3-2.2s-0.8-2-0.8-3.1c0-1.1,0.3-2.2,0.8-3.1c0.6-0.9,1.3-1.6,2.3-2.2
			c1-0.5,2.1-0.8,3.3-0.8S421.2,642.8,422.2,643.3z M417.4,645.6c-0.5,0.3-0.9,0.7-1.2,1.3s-0.4,1.1-0.4,1.8c0,0.7,0.1,1.2,0.4,1.8
			s0.7,1,1.2,1.3c0.5,0.3,1,0.5,1.6,0.5c0.6,0,1.1-0.2,1.6-0.5c0.5-0.3,0.9-0.7,1.2-1.3c0.3-0.5,0.4-1.1,0.4-1.8
			c0-0.6-0.1-1.2-0.4-1.8c-0.3-0.5-0.7-1-1.2-1.3c-0.5-0.3-1-0.5-1.6-0.5C418.4,645.1,417.9,645.3,417.4,645.6z"/>
		<path d="M435.2,654.5l-0.8-2.1h-5.1l-0.8,2.1h-3.2l5.1-11.8h3.2l5,11.8H435.2z M430.2,650.1h3.3l-1.6-4.2L430.2,650.1z"/>
		<path d="M447.9,643.4c0.9,0.5,1.7,1.2,2.2,2.1c0.5,0.9,0.8,1.9,0.8,3.1c0,1.2-0.3,2.2-0.8,3.1c-0.5,0.9-1.3,1.6-2.3,2.1
			c-1,0.5-2.1,0.7-3.3,0.7h-5v-11.8h5.1C445.9,642.7,447,642.9,447.9,643.4z M446.3,651.6c0.5-0.3,0.8-0.7,1.1-1.2
			c0.3-0.5,0.4-1.1,0.4-1.8c0-0.7-0.1-1.3-0.4-1.8c-0.3-0.5-0.7-0.9-1.1-1.2s-1-0.4-1.7-0.4h-1.9v6.8h2.1
			C445.3,652,445.9,651.9,446.3,651.6z"/>
		<path d="M454,652.1c0.3,0.3,0.4,0.6,0.4,1c0,0.4-0.1,0.8-0.4,1.1c-0.3,0.3-0.6,0.4-1,0.4c-0.4,0-0.8-0.1-1-0.4
			c-0.3-0.3-0.4-0.6-0.4-1.1c0-0.4,0.1-0.8,0.4-1c0.3-0.3,0.6-0.4,1-0.4S453.8,651.9,454,652.1z"/>
		<path d="M463.4,645.6c-0.5-0.3-1-0.4-1.6-0.4c-0.6,0-1.1,0.1-1.6,0.4c-0.5,0.3-0.9,0.7-1.2,1.2c-0.3,0.5-0.4,1.1-0.4,1.7
			c0,0.6,0.1,1.2,0.4,1.7c0.3,0.5,0.7,0.9,1.2,1.2c0.5,0.3,1,0.4,1.6,0.4c0.5,0,1-0.1,1.5-0.4c0.5-0.2,1-0.6,1.4-1l1.8,1.9
			c-0.6,0.7-1.4,1.2-2.3,1.6c-0.9,0.4-1.8,0.6-2.6,0.6c-1.2,0-2.2-0.3-3.2-0.8s-1.7-1.3-2.2-2.2s-0.8-2-0.8-3.1
			c0-1.1,0.3-2.2,0.8-3.1c0.5-0.9,1.3-1.6,2.3-2.2c1-0.5,2-0.8,3.2-0.8c0.9,0,1.7,0.2,2.6,0.5c0.9,0.4,1.6,0.9,2.2,1.5l-1.8,2.2
			C464.4,646.2,463.9,645.8,463.4,645.6z"/>
		<path d="M476.5,643.3c1,0.5,1.7,1.3,2.3,2.2c0.6,0.9,0.8,2,0.8,3.1c0,1.2-0.3,2.2-0.8,3.1s-1.3,1.7-2.3,2.2s-2.1,0.8-3.3,0.8
			c-1.2,0-2.3-0.3-3.3-0.8c-1-0.5-1.7-1.3-2.3-2.2s-0.8-2-0.8-3.1c0-1.1,0.3-2.2,0.8-3.1c0.6-0.9,1.3-1.6,2.3-2.2
			c1-0.5,2.1-0.8,3.3-0.8C474.5,642.5,475.6,642.8,476.5,643.3z M471.7,645.6c-0.5,0.3-0.9,0.7-1.2,1.3s-0.4,1.1-0.4,1.8
			c0,0.7,0.1,1.2,0.4,1.8c0.3,0.5,0.7,1,1.2,1.3c0.5,0.3,1,0.5,1.6,0.5s1.1-0.2,1.6-0.5c0.5-0.3,0.9-0.7,1.2-1.3
			c0.3-0.5,0.4-1.1,0.4-1.8c0-0.6-0.1-1.2-0.4-1.8c-0.3-0.5-0.7-1-1.2-1.3c-0.5-0.3-1-0.5-1.6-0.5S472.2,645.3,471.7,645.6z"/>
		<path d="M481.2,642.7h3.4l3.4,6.9l3.4-6.9h3.4v11.8H492l0-7.5l-3,6.3h-2l-3-6.3v7.5h-2.7V642.7z"/>
	</g>
</g>
<g id="Layer_x0020_1">
	<path d="M311.8,162.9c1.8,0,4.4,0.5,4.7,2.8c0.3,4.1,0.3,8.3,0.8,12.4c0.3,1,0.8,1.8,1.3,2.6c0,1-0.5,2.1-0.5,2.8
		c0,2.8,3.4,4.1,3.6,6.7c1,7.5,1.8,15,2.8,22.5c0.5,1.6-0.8,2.6-1.3,3.9c1.6,1.8,3.9,1,5.9,0.8c1.8-0.3,3.1-1.6,4.9-2.1
		c1,2.3,1.8,4.9,2.6,7.5c-1.6,1.3-3.6,2.1-5.4,3.1c-0.8,1.8-0.8,4.1,0.3,5.9c2.1,2.3,5.7,1.6,8,3.4c1,1.3,1.3,2.8,2.3,4.1
		c1.3,1.8,0.5,3.9,1,5.9c1.3,4.9,0.5,10.1,1.8,15c0.5,3.6,1.6,7.2,0.8,10.9c-1.3,4.1-7,5.2-10.3,2.8c-1.8-1.3-3.4-3.4-5.7-2.8
		s-4.7,1-7,1c0.3-2.8,0.8-5.4,0-8.3c-0.5-0.8-1.6-1-2.6-1c-1.3,1.3-1.3,3.1-1.8,4.7c-0.8,1.6,0.8,3.1,0.8,4.7c0,2.1-0.5,4.1,0.5,6.2
		c0.8,1.6-0.8,3.1-1,4.4c1.6,0,4.1-1,5.2,0.8c0.8,2.3,0,4.9-0.3,7.5s2.6,4.4,1.8,7.2c1,0.8,2.1,1.8,1.3,3.4c-1.6,1-3.9,1-5.7,1.8
		c0.8,2.1,3.1,1.3,4.7,1.8c1.8,0.8,2.8,2.6,3.9,3.9c-0.5,0.5-1,1-1.6,1.8c1.6,4.7,4.7,8.8,4.9,14c0.3,1.6-1.6,2.3-2.6,3.1
		c0.8,4.1,0,8.8-1.6,12.7c-1.3,2.1-1.8,4.4-1.8,7c1.6,0.3,2.6-0.8,3.4-2.1c2.8,0.3,3.1,3.4,3.6,5.4c0.8,4.1-1.3,7.8-1.8,11.9
		c-1,6.7-2.1,13.7-1.3,20.7c0.3,1.3-0.5,2.1-1,3.4c0.3,1,0.8,1.8,1,2.6c3.6-6.2,6.5-12.7,10.3-18.6c1.6-2.3,3.9-4.1,5.4-6.5
		c2.8-4.7,5.2-9.6,7.8-14c1-1.6,1.6-3.1,2.3-4.9c-0.3-0.3-1-0.8-1.3-1c1-1.8,2.1-3.6,2.8-5.4c1.8-3.4-4.9-4.9-2.8-8.3
		c0.8-1.6,2.8-1,4.1-1.6c2.1-0.5,2.8-2.6,2.6-4.4c0-4.7-0.3-9.3,1.3-13.7c1.3-3.4,1.6-7,3.1-10.1c0.3-2.1-0.3-4.4,1.6-5.7
		c-0.3-0.8-0.8-1.6-0.5-2.3c1.3-5.4,2.6-10.9,4.4-16.3c1-3.6,2.1-7.2,1.3-11.1c-1.6,0-2.8,0-4.4-0.3c0-1.6,0.3-2.8,0.3-4.4
		c0.3-2.1-3.4-2.6-2.6-4.7c1-1.6,2.8-2.8,2.8-5.2c-0.5-1-1.6-1.8-2.1-2.6c-0.3-1.6,1.6-2.3,2.3-3.6c1.3-2.3,2.1-4.9,3.9-6.7
		c2.1-1,3.9,0.5,5.9,1c0-2.3,0-4.7,0.5-6.7c1.8-0.3,3.4,0.5,5.2,0.8c-0.3-1.6-1.3-3.1-1-4.7c0.8-1.3,1.8-2.6,2.3-4.1
		c0.5-2.8,0.3-5.9,1.3-8.8c1.3-3.6,3.6-6.7,6.7-9.1c3.4-0.5,7.8-0.5,9.8,2.8c1.6,2.8,2.1,5.9,2.8,9.1c1,4.9-0.5,9.8,0.3,14.7
		c0.3,2.1-1,4.7,1,5.9c3.1,2.6,7,0.5,10.6,0.8c0.3,2.1-1.8,3.9-1,6.2c1,4.1,2.6,8,4.1,11.9c-0.5,1.3-1.8,2.6-1.3,3.9
		c0.8,4.7,3.1,9.1,4.9,13.4c1.6,3.4,1.3,7.5-0.8,10.6c-1.6,2.1-4.7,1-6.5,0c-2.3-1.3-3.1-3.9-3.6-6.2c-0.3-0.3-1-0.5-1.3-0.5
		c0.5,1.8,1.3,3.4,1.6,5.2c-0.3,1.6-1,2.8-1,4.4c0.5,3.1,2.6,5.7,3.4,8.8c0.5,2.3-2.6,3.6-1.6,5.9c1.8,7.2,2.6,14.7,3.6,22
		c0.8,4.4,3.1,8.8,1,13.2c-0.8,2.1-3.6,3.1-3.4,5.7c-0.3,3.4-0.8,7-3.1,9.6c0.3,6.2-1.6,12.2-2.3,18.4c-0.8,3.9-1.8,7.8-1.6,11.9
		c0.8,1.8,1.8,3.9,3.6,4.9c-1,0-1.8,0-2.8,0c-0.3,1.6-0.3,3.4,1,4.4c7.2,0.3,14.5,0,21.7,0c2.6,0,3.4,2.8,3.1,5.2
		c0.3,36.2,0.3,72.4,0.5,108.6c-0.3,3.4,0.3,6.7-0.3,10.1c-0.3,1.8-2.3,2.8-3.9,2.8c-5.2,0.3-10.3,0.5-15.3,1.3
		c-1.8,0.3-3.9,0.8-5.7,0c-1.3-0.8-2.1-2.3-2.6-3.6c-5.2-12.7-10.3-25.1-15.5-37.5c-1-2.3-1.8-4.9-3.4-7c0.5,11.4,0,23,1,34.4
		c0.3,2.6,0.5,5.2-0.3,7.5c-0.8,1.8-2.8,2.1-4.4,2.1c-7,0.3-13.7,0-20.7,0.3c-1.6,0-3.4,0-4.4-1.3c-1-1.3-0.5-3.1-0.8-4.4
		c0-32.6,0-65.2,0-97.5c-0.8,0-1.6,0.3-2.3,0.3c-0.3,5.2,0,10.3,0,15.5c0,1.6-0.8,3.4-2.3,3.9c-3.9,1-8-0.8-11.9,0
		c-2.3,0.5-3.9,2.6-3.9,4.9c-0.3,3.4,0.5,6.7,0.5,10.1c-0.3,22,0,43.7,0,65.7c0.3,2.3-1.3,5.2-4.1,5.2c-7-0.3-13.7,0-20.7,0
		c-2.3,0-4.9,0.5-7-0.5c-1.8-1-2.1-3.4-2.1-5.2c0.3-27.2,0-54.6,0-81.7c0-1.3-0.8-2.8-2.3-3.1c-3.9,0-7.8,0.3-11.6,0
		c-1.8-0.3-2.8-2.1-2.8-3.9c0-5.9,0-11.6,0-17.6c-2.3,0.3-4.7,0.5-7,1c-1.6,0.3-2.8-0.5-4.1-0.8c1,1.8,2.6,3.6,3.9,5.4
		c6.2,10.1,8.5,22.2,7,33.9c-1,8.3-4.4,16.6-10.6,22.5c-1.8,1.6-2.3,4.1-1.6,6.2c4.7,13.7,9.1,27.7,13.4,41.4
		c0.5,1.3,0.5,2.6,0.5,3.9c-1.3,0.5-2.6,1-3.9,1c-7.5,0.5-15,1-22.5,2.1c-1.8,0.3-3.9,0.3-5.4-0.8c-1.8-1.3-2.1-3.4-2.8-5.4
		c-2.8-10.6-6.2-20.9-9.1-31.6c-0.3,0-1-0.3-1.6-0.3c-0.3,8.5-0.3,17.1,0,25.6c0,2.1,0.3,4.4-0.5,6.5c-0.8,1.6-2.8,2.1-4.4,2.1
		c-7,0-13.7-0.3-20.7,0c-1.8,0-3.6,0.3-5.2-0.8c-1.3-1-1.3-2.8-1.3-4.7c0-32.8,0-65.7,0-98.8c0-5.2-0.3-10.3-0.5-15.8
		c0-1.6,0.3-3.1,1.8-3.9c1.8-0.8,3.9-0.5,5.9-0.5c7.5,0,15,0,22.2,0c1.8-2.1,0.5-5.2,0.3-7.5c-0.5-3.9-3.1-7.2-3.1-11.4
		c-1.3-2.6-1.6-5.7-2.8-8.3c-0.8-1.6,0.8-3.1,0.3-4.4c-0.5-1.3-1.3-2.6-1.8-3.9c1-1.6,2.8-2.8,2.8-4.9c-0.5-1-1.6-2.1-1.6-3.4
		c-0.3-2.6,0.3-5.4-1-7.8c-1-1.6-0.5-3.4-0.8-5.2c-0.3-2.6-1.8-4.9-2.3-7.5c-0.5-4.4-1.8-8.8-2.6-13.2c-2.1,3.6-3.4,7.5-5.2,11.4
		c-1.3,2.8-2.6,5.9-3.6,9.1c1.6,2.6,3.4,5.4,6.2,6.5c0.3,1.6-0.5,3.1,0.5,4.7c-1.6,0.8-3.4,1.8-5.2,2.1c-1-3.1-2.3-6.2-3.9-9.1
		c-1.6,3.6-0.8,7.8-3.1,11.1c0.3,2.8,1,5.9,0.3,8.8c-1,2.8,0.3,5.9-1.3,8.8c-1,1-2.8,1.3-3.4,2.8c-1.3,2.6-2.6,5.2-3.9,8
		c1.8,2.6,3.9,5.2,6.7,6.7c1.6,1.3,2.6,4.7,0,5.4c-3.9,0.8-8,0-11.6-1.6c-1.3,2.1,0.3,4.1,0.3,6.5c0,1.8-0.3,3.6,1,4.9
		c1.6,2.3,5.7,1.3,5.9,4.4c-3.1,1-6.2,1.3-9.3,2.3c2.6,4.7,4.7,9.6,5.7,14.7c4.9,22.5,5.2,46.3-1,68.5c-2.3,7.5-5.9,15-12.2,20.2
		c-6.7,5.7-16,7.2-24.6,7.5c-10.3,0-20.7-4.4-26.9-12.7c-6.5-8.5-9.3-19.4-10.9-30c-1-7.2-1-14.5-1-21.7
		c-0.5-11.9,0.8-24.1,4.1-35.4c0.8-2.8,2.1-5.7,3.6-8.3c-2.6-1-4.9-2.1-7.2-3.9c-0.3,2.6,0,5.4-1.3,7.8c-1,1.8-3.1,2.3-5.2,2.1
		c-5.4-0.3-10.9,0-16,0c-1.8,0-3.1,1.8-3.1,3.4c0,5.4,0,10.9,0,16.3c0,1.6,1,3.4,2.8,3.4c5.2,0.3,10.3,0,15.5,0
		c2.1,0,3.4,2.1,3.1,4.1c-0.3,8.3-0.5,16.6-0.8,25.1c0,1.8-1,3.6-2.8,3.6c-4.1,0.3-8.3,0.3-12.4,0c-1.3,0-2.6,0-3.9,0.8
		c-1.3,1-1.6,2.8-1.6,4.4c0.3,14.5,0,29.2,0.3,43.7c0,1.8,0,3.9-1.6,5.2c-1.3,1.3-2.8,1.6-4.7,1.8c-7.5,1-15,2.6-22.5,4.1
		c-1.3,0.3-2.6,0.5-3.9-0.3c-1.3-0.8-1.3-2.3-1.6-3.4c0-46.8,0.3-93.6,0-140.7c0-2.1,0.8-4.4,2.8-4.9c3.4-0.8,7,0,10.6-0.3
		c-1.6-3.4-3.1-7.5-1.6-11.1c0.5-0.8,1.6-0.8,2.1-1c0.8,1,1.3,2.3,1.8,3.4c0.5-0.8,1-1.8,0.8-2.6c-0.3-2.3,1-4.7,1-7
		c0.3-4.9-0.8-10.1,0.5-15c-0.3-2.8-1.6-5.7-1-8.8c1.8-8.3,0.5-16.6,1.6-24.8c0.3-3.4,1.6-6.7-0.5-9.8c-0.8,1.6-1.6,3.4-1.6,5.2
		c0.8,1.3,2.1,2.8,0.8,4.1c-0.8-0.3-1.3-0.8-2.1-1c-1.6,1.6-4.4,2.3-5.9,0.5c-1.3-1.8,1-3.1,2.1-4.4c1.6-2.8,3.1-5.4,4.4-8.5
		c0.3-1.6-0.3-3.4,0.5-4.9c1.3-3.1,2.8-6.2,4.4-9.3c1.3-3.4,1-7,1.3-10.6c-1.3,0-2.8,0-4.1,0c-1.6,3.1-4.9,5.2-8.3,5.7
		c-2.3-1.6-4.4-3.1-6.2-5.4c-1-1.3-2.8-1.8-3.6-3.1c-1.8-2.6-0.3-6.7,2.8-7.2c1.8-0.5,2.6,1.6,4.4,1.6c1.6,0.3,3.1-0.3,4.1-1.6
		c1-1.6,2.3-3.1,2.1-4.9c2.3-1,3.9-3.9,2.8-6.5c2.1-1.8,2.3-4.7,2.6-7.2c-0.3-2.6,0-4.9-0.3-7.5c2.6-2.3,5.7-4.4,8.3-6.5
		c1-2.3-1.3-4.7-2.6-6.5c-1.6-2.3-2.3-5.7-0.5-8.3c1.3-1.8,0-4.9,2.6-6.2c2.6-1,5.4-3.1,8.3-2.1c1,0.3,2.3,0,3.6,0
		c0,2.6,2.8,3.4,3.4,5.7c2.1,3.9,2.1,8.5,0.8,12.9c2.3,1,3.4,3.1,4.4,5.2c3.1-3.1,0.8-7.5,1-11.1c0.3-2.6-0.5-4.9-1.3-7.5
		c1.6-1,2.1-2.6,2.3-4.1c0.5-1.8,2.8-1.6,4.1-0.8c4.7,2.1,9.6,3.4,14,5.7c-0.3,3.1-2.8,5.2-4.7,7.2c-2.1,3.6-4.1,7.5-7.2,10.3
		c-1.3,1-1.3,3.1-1.6,4.7c0.8,0.8,2.3,1,2.3,2.1c-0.8,1.6-1.6,2.8-2.1,4.4c0.8,0.3,1.3,0.3,2.1,0.5c0.3,0.3,0.5,1,0.5,1.6
		c0.5-0.3,1.3-0.3,1.8-0.3c0.8-2.1,1.3-4.4,2.1-6.5c0.3,0,0.5-0.3,0.8-0.3c1.8,0.8,3.4,1.6,4.9,2.6c0.5,0.3,0.8,1.3,0.3,1.8
		c-1,1.6-2.6,2.6-3.4,4.1c-1,1.8-1.8,3.6-2.8,5.2c0.5,1.8,1,3.6,1,5.7c0,3.4,1.8,6.5,2.6,9.8c1.6-0.5,1.8-2.1,2.6-3.1
		c2.6-3.4,3.9-7.5,5.7-11.4c1.6-2.3,0.8-5.7,2.6-8c-0.3-3.1-0.3-7.8,3.6-8.8c-0.3-1.8,1.8-2.1,2.6-3.4c1.8,0.8,3.6-0.3,5.4-1.3
		c-0.3-2.1-1.6-3.1-2.8-4.4c-1.3-2.1,1-3.6,1.3-5.4c0.3-1.6,1.3-3.1,0.8-4.9c-0.5-2.1-0.3-4.7,1.6-5.9c1.6-0.8,1.6-2.6,1.8-4.1
		c3.1,2.3,7.5,3.1,9.6,6.7c0.3-1,0.3-2.1,0.5-3.1c1.8,2.8,0.8,6.5-0.3,9.1c-1.3,1.8,0.3,3.9,0.3,5.9c0.3,3.1-1.6,5.7-2.8,8
		c1.8,1.3,3.9,1.8,5.7,3.1c2.6,2.3,2.6,6.2,3.1,9.6c0.3,1.3-1,2.3-1.6,3.6c1.3,0.3,2.8,0,3.6,1c1,1,1.6,2.6,1.8,4.1
		c0.5,2.8,2.3,5.2,3.1,8c1,2.1,1.3,4.4,2.6,6.2c0.8,0.5,1.6,0.5,2.3,0.8c1.3,1.3,1.6,3.4,3.4,3.6c-0.3-3.1-2.8-4.9-4.4-7.2
		c-1-1.6,1.3-2.6,2.3-3.1c1.3-0.8,3.6-1.6,3.9,0.8c0.5,3.6,2.3,7.2,5.4,9.1c-0.3,0.8-0.8,1.6-1,2.6c1,0.3,2.3,0.5,3.4,0.8
		c0.5,1.8-1.3,3.6,0,5.2c0.8,0.5,1.8,0.8,2.6,1c0.8-1.6,2.1-2.6,3.6-3.4c-0.5-4.4,3.6-7.2,4.7-11.1c0.5-1.6-0.5-3.4-0.5-4.9
		c0.3-2.8,3.6-4.4,3.4-7.5c-0.3-2.8-0.5-5.9,1-8.3c2.3-3.6,6.7-5.4,10.9-5.7c1.8,0,3.1-1,4.4-2.1c-3.6-2.6-5.4-6.7-5.9-10.9
		c-0.5-3.4-4.4-6.5-2.3-10.1c1-2.3,1.6-4.9,3.6-6.2c4.1-2.6,10.1-2.8,13.7,0.5c2.8,2.8,2.8,7.2,3.6,10.9c0.3,4.1,0.5,9.1-2.6,12.4
		c0.5,1.6,0.8,3.4,2.1,4.1c1,0.3,1,1.3,1.3,2.3c1.8,0,2.6,1.8,3.9,2.8c2.1,2.1,5.4,2.3,7.2,4.4c2.3,2.8,3.9,6.5,3.6,10.1
		c-0.8,5.2,2.3,9.8,4.9,14c1.8-2.6,2.8-5.9,3.1-9.1c-0.5-1.3-1.3-2.3-2.1-3.4c2.3,0,3.1-2.3,3.9-4.1c0.3-2.1-0.3-4.1,0.3-6.2
		c0.8-4.7,4.7-8.8,9.6-9.6c0-0.8,0-1.8,0-2.6c2.8-1.3,5.4-4.1,8.8-3.6c0.5-2.1,2.3-3.1,3.4-5.2c0.3-1.8,0.3-3.6,1.8-4.7
		c-0.8-1.3-1.3-2.3-1.6-3.9c-0.3-1.6,1.6-2.3,1.6-3.9c0.3-2.3-0.8-4.9,0.8-6.7c2.8-3.6,8.5-4.1,12.7-1.8c2.1,1.6,4.1,4.4,3.1,7
		c-0.8,1.8-0.8,3.6-0.8,5.4c0.3,2.6-2.3,4.4-2.8,6.7c1,2.1,3.4,3.1,4.9,4.9c1-6.7,0-13.4,0.8-20.2c0.8-2.6,4.1-1.6,6.2-1.6
		c-1.3-1-3.1-1.3-3.1-3.1c-0.8-8.3-1-16.8-1.6-25.1c-1.3,0.5-2.3,1.3-3.6,1.8c-1-0.3-1.6-1.6-0.8-2.3c1.8-2.6,2.8-5.4,4.7-8
		c1.3-1.8,1-4.4,0.5-6.5C312.6,170.6,312.3,166.8,311.8,162.9L311.8,162.9z M314.6,222.1c0,4.1,0.3,8.3,0.3,12.7c0,1,0.5,1.8,1,2.6
		c0.8-2.1,0.3-4.4,0-6.5C315.4,228.1,315.7,224.9,314.6,222.1L314.6,222.1z M315.1,243.1c0,0.5,0,1.3,0,1.6c1.6,1.6,4.1,1.6,6.2,2.1
		C319.8,244.9,317.5,243.6,315.1,243.1L315.1,243.1z M326.5,244.1c-0.8,1.8,0.3,3.9,0.5,5.7c0.8,0.3,1.6,0.5,2.3,0.5
		c1,1.8,1.3,3.9,2.1,5.9c1,1.3,2.3,2.6,3.1,3.9c0.3-2.1,0.3-4.4,0.3-6.5c-0.5-2.3-1-5.2-3.4-6.2
		C329.6,246.9,328.6,244.3,326.5,244.1z M143.4,272.8c-1,2.6-1.8,5.4-1.8,8.3c0,2.1-1.3,3.6-1.6,5.7c-0.5,3.6,0,7.5-0.3,11.1
		c0.3,1.8,0.3,4.1,2.1,5.2c1.6,0.8,1.3,2.6,1.6,4.1c-0.8,0.5-1.3,0.8-2.1,1.3c1,0.3,2.1,0.3,3.4,0.5c-1.6-5.4-1.8-11.1-1.6-16.8
		c0-2.3,2.3-3.6,3.9-5.2c1.6-1.6,1.8-3.9,3.9-4.9c2.3-1.6,5.2-3.6,5.4-6.7c-0.3-1.8-2.3-2.1-3.6-3.1c-0.8-1.6-0.3-3.9-1.8-5.2
		c-1-1-2.1-2.3-2.8-3.4C146.8,266.8,145,269.7,143.4,272.8z M412.4,263.7c-0.8,1.6-1.8,3.4-0.8,4.9s1.8,3.1,2.3,4.7
		c0.3,0.3,1,0.5,1.3,0.5C414.2,270.7,413.7,267.1,412.4,263.7L412.4,263.7z M380.3,268.1c-1.8,9.3-1.6,19.1-5.4,27.9
		c-2.3,4.9-4.4,9.8-5.4,15c-0.3,1.3-0.5,2.6,0.3,3.6c2.8-1.8,2.6-5.9,4.4-8.5c0-1.8,0.3-3.9,2.1-4.7c2.6-1,5.9,1.3,5.4,4.1
		c-0.3,3.4-3.4,5.4-4.9,8.3c-1,2.1-1.8,4.1-2.8,5.9c0.8,1.6,1.8,3.1,1.3,4.9c-0.8,2.8-3.6,4.1-5.4,6.5c-0.5,1.6,1.3,2.8,2.3,3.9
		c1.3,1,0.8,3.1-0.5,4.1c-2.3,0.5-4.7,0.3-7,0.5c-0.8,0-1.3,0.8-1.6,1.6c-8,16.8-16,33.9-24.1,50.7c-1,1.8,0.3,3.6-0.3,5.4
		c-0.5,0-1.6,0-2.1,0c1.3,0.8,2.6,1.8,4.1,2.3c4.1,0.5,8,0.8,12.2,1c1.3,0,2.6,0.8,3.6,1.3c2.1-1.3,4.1-2.6,5.4-4.7
		c1-1.3,1-3.1,1.3-4.9c-1,0.5-1.8,0.8-2.8,1c0.8-1.3,2.1-2.6,2.8-4.1c0.5-1.8,2.3-2.6,3.6-3.6c0.3-3.9,1.6-7.5,1.8-11.4
		c0.8-5.2,1.3-10.6,2.3-15.8c1,0.5,1.8,1,2.8,1.6c0.5-1.6-0.3-2.8-1.8-3.6c0.3-0.8,1-1.6,0.8-2.6c-0.8-1.6-2.1-3.1-1.8-5.2
		c0.3-2.6,0.3-6.5,3.4-7.5c0.3,1,0.5,2.1,0.8,2.8c1.6,0.8,1.6-1.3,1-2.1c-1-1.8-1.8-3.6-2.1-5.7c-0.5-7.5,2.3-15,6.2-21.5
		c2.6-4.1,5.4-8.5,5.7-13.7c0.3-1.8-1.8-2.1-3.1-2.8c0.8-4.4,3.6-8.3,3.4-12.7c-0.3-1-1-2.1-1.6-3.1c0-2.1,1-4.1,0.8-6.2
		C385,273.6,382.9,270.5,380.3,268.1L380.3,268.1z M278.7,269.4c-0.5,2.8-1.6,5.2-2.8,7.5c-1.6,3.1-0.5,6.5-1.3,9.8
		c-0.3,2.6-1,5.2-2.1,7.5c-1.6,3.6-1.3,8,1.3,11.1c2.6,3.6,4.9,8,3.6,12.4c-0.5,0.3-1.3,0.3-1.8,0.5c-0.5-1-1-1.8-1.3-2.8
		c-0.3,1.6,0.3,3.4,0.5,4.9c0.8,1,1.3,2.3,1,3.6c-2.8-0.5-5.2-2.3-7.2-3.6c-1-0.8-2.6-1.8-3.1-3.4c-0.8-2.6-1-5.2-1-7.8
		c0.3-1.8,1-3.6,0.3-5.4c-4.4,1-8.3,3.9-12.7,4.7c1.3,9.3,0.8,18.9-0.3,28.2c-0.5,5.9-1.3,11.6-0.5,17.6c0.3,2.3,1.6,4.1,2.8,5.9
		c0,1.8-0.8,3.6,0,5.4c0.5,2.1,0.3,4.1-0.3,5.9c1-0.5,2.3-0.8,3.4-0.8c-0.8,2.3-3.9,3.1-4.4,5.4c0,1.6,0.5,2.8,0.8,4.1
		c1,0,2.1-0.3,2.8-0.3c0,0.3,0,1,0,1.6c-1.3,0.5-2.6,0.8-3.6,1.6c-1.3,1-1.3,2.8-1.3,4.1c0,2.8,0,5.7,0,8.8c3.4,0.3,6.5,0,9.8,0.8
		c4.4,1,8.5,3.4,12.2,6.2c1.3-3.4,2.1-6.7,2.6-10.3c0-3.9,2.1-7.2,3.1-10.9c-0.3-2.1-1-4.1-0.8-6.2c0.3-4.9-2.8-9.3-2.1-14.5
		c0.5-1.8-1.8-3.1-1-4.9c0.8-2.1,3.1-3.4,4.1-5.2c1-1.6,1.3-3.4,1.8-4.9c0.8-2.8-0.8-5.4-0.8-8c0-2.1-0.3-4.1-0.8-6.2
		c0.8-5.4,1.6-10.9,3.4-16c1-3.1,1.3-6.5,1.6-9.6c-0.3-1-1.3-1.6-2.1-2.1c0-3.1,0.8-6.2,0.8-9.3c0-2.6-0.3-5.4,0-8
		c0-1.3,0.8-2.3,0.8-3.6c-1-1.8-3.1-3.1-3.9-5.2c-0.5-1.8,0.5-3.4,1-4.9C280.5,272,279.7,270.7,278.7,269.4L278.7,269.4z
		 M171.9,274.3c-0.5,4.7,2.8,8.3,4.1,12.4c0.5,1.8-0.5,3.4-1.3,4.9c2.1,2.3,2.3,5.7,3.6,8.5s1.6,6.2,2.8,9.1c1,1.3,0.8,3.1,1.6,4.7
		c1.6-1.3,2.8-2.6,4.4-3.6c0-0.8-0.3-1.3-0.3-2.1c2.6-1.3,5.2-2.8,7.2-4.9c-0.8-0.8-1.3-1.8-2.3-2.3c-1.3,0-2.6,1-3.9,0.5
		c-1.6-1.8-2.8-4.1-4.1-6.5c0.3-1.3,1.3-2.1,2.1-2.8c-1-1.3-2.1-2.6-2.8-4.1c-2.6,1.6-6.7,0.3-7.2-3.1c-1-2.3,2.6-4.4,0.8-6.7
		C175.2,276.4,174.4,273.8,171.9,274.3L171.9,274.3z M121.4,279c0.5,0.8,1.8,1,2.8,1.3c-0.5-1.8-1-3.6-1.6-5.2
		C122.2,276.4,121.7,277.7,121.4,279z M249.4,282.1c0.8,0.5,1.3,1,2.1,1.6c-0.3,1-1.3,2.1-1,3.1c2.3,1,4.7-0.8,7-1
		c-0.5-1.3-0.8-3.1-2.6-3.6C253.3,281.8,251.3,282.1,249.4,282.1z M121.4,287.5c0.3,2.8,0.3,5.9,2.1,8.3c-0.8,0.8-1.6,1.3-2.1,2.3
		c0.5,1.6,1,3.1,1.8,4.4c0.8,0.8,2.1,1,3.1,1.3c0.8,2.3,1.3,4.4,2.1,6.7c0.5,1.6-0.3,3.1,0.3,4.7c0.3,1,0.8,2.1,0.5,3.1
		c-1,1.3-2.3,2.6-3.6,3.9c1,5.2,1.3,10.3,2.3,15.3c0.3,1.3,0.3,2.8,0.5,4.4c0.3,1.3,2.1,1.8,2.3,2.8c-0.3,4.7,3.1,8.5,3.4,13.2
		c0.5,5.4,1,10.9,2.3,16.3c0.8,2.8,4.1,3.6,6.7,4.7c0.8,1-0.3,2.3-0.8,3.1c-0.3,1.6-0.5,3.1-1.3,4.7c0.5,3.4,1,6.7,1,9.8
		s1.6,5.7,3.1,8c5.4-4.9,12.2-8.3,19.4-9.3c7.8-1.3,16,0.3,23,3.9c3.1-3.6,7.8-5.9,9.1-10.9c-1.8-4.9-0.8-10.1-2.6-15
		c-0.8-1.8-2.1-3.1-3.1-4.9c-0.8-1.6-1-3.4-2.1-4.9c-1.6-2.3-3.9-4.4-4.9-7c-0.8-1.8-2.8-2.8-3.1-4.9c-0.8-5.4-0.5-11.1-1.8-16.6
		c-0.8-3.1-2.3-5.9-3.9-8.8c-2.6,1.8-4.9,4.1-7.5,5.9c-1.6,1.3-3.6,0-4.9-1.3c2.3-2.3,5.2-3.4,7.8-5.4c1-0.8,2.1-1.6,3.1-2.1
		c-2.6-7-8-12.7-11.9-18.9c-1.3,4.7,0.5,9.1-0.3,13.7c-0.3,5.2-1.3,10.1-0.3,15.3c-2.3,6.5,1.3,12.9,0.5,19.4c0,3.1-1.6,6.2-1.3,9.3
		c0,3.9-0.8,7.8,0.5,11.4c1,2.6,1.8,5.4,2.3,8.3c0.5,1.6,2.3,2.1,3.6,2.3c2.1,0.5,4.1,1.3,5.2,3.1c0.5,2.1-1.8,2.6-3.1,3.6
		c-3.1,2.8-8,3.4-11.6,1.6c-2.8-1.6-3.4-5.4-3.1-8.3c0.3-3.4-0.5-6.7,0.3-10.1c0-4.7-1-9.3-2.6-14c-2.6-2.6-2.6-6.5-3.1-9.8
		c0-4.7,3.1-9.1,2.1-13.7c-0.5-2.3,0.3-4.7,0.3-7c-1-6.7-3.4-13.2-4.9-19.9c-0.5,3.6-2.8,6.2-4.9,8.8c-1.6-0.3-3.1,0-4.4-0.5
		c-1-1.6-2.1-3.4-3.1-5.2c-1.6-0.5-3.9-0.3-4.9-1.8c-0.8-1.3,0.8-2.6,0.8-3.9c-0.3-1-0.8-2.1-1-3.1c-0.3-1,0.8-1.6,1.3-2.1
		c-0.3-0.8-0.5-1.6-0.5-2.3c0.5-0.8,1-1.3,1.3-2.1c0-1.3-0.5-2.8-0.3-4.1c0-0.8,0.8-2.6-0.5-2.6
		C127.4,290.6,124.5,288.6,121.4,287.5L121.4,287.5z M205.5,309.3c0,1.8,1.3,3.4,2.3,4.9c1.6-2.3,3.1-4.9,4.1-7.5
		c-0.3-1.6-1.8-1.6-2.8-2.3C208.3,306.4,206.8,307.7,205.5,309.3z M106.2,315c-2.8,8.3-4.9,16.8-6.2,25.3c-0.3,1.8,0.3,3.9,0.3,5.7
		c0,3.9,1.3,8,0.3,11.9c-1,4.9-2.6,9.8-2.1,14.7c0.3,1.8,0.3,3.9,0.3,5.7c-0.5,1.3-1,2.3-1.3,3.9c0.3,1.6,0.5,3.1,0.8,4.7
		c10.1,0,20.2,0,30.3,0c0-1.6-0.5-3.1-2.3-3.1c-0.3-0.5-0.5-1.3-0.5-1.8c0.8-0.8,2.1-1.3,2.3-2.6c1.6-5.9-1.3-11.6-3.4-16.8
		c-1-2.3-0.5-5.2-1-7.5c-1-2.1-2.1-4.1-3.4-5.9c0.8-3.9-1-7.2-2.3-10.9c-2.1-5.4-4.4-10.6-7.8-15.5C108.8,320.1,109.3,316,106.2,315
		L106.2,315z M191,319.1c-2.1,0.5-3.6,2.8-5.9,2.6c0,6.5,4.1,11.9,4.4,18.4c0.8,0,1.3,0,2.1,0c0,1.8-0.3,3.6,0.3,5.4
		c0.8,2.8,2.8,5.2,4.7,7.5c-0.5,0.5-0.8,0.8-1.3,1.3c1.3,4.7,2.3,9.6,3.6,14.5c0.8-1,1.8-2.1,2.3-3.4c0.5-2.8,0.3-5.7,1-8.5
		c0.8-1.8,2.1-3.1,2.3-5.2c0.5-5.9,0.8-11.9,0.3-17.8c-0.5-3.1,1.6-6.2,0.8-9.3c-0.8-2.1-3.4-2.8-3.9-5.2c-0.5-1.3-0.3-2.8-1.3-3.6
		C197.2,316,194.6,319.1,191,319.1z M300.4,328.9c-0.8,2.6-0.5,5.2,0.3,7.5c-1,0.8-2.1,1.3-2.8,2.1c1.3,3.1,0,6.5-1.3,9.6
		c-0.8,1.8-2.8,2.8-2.8,4.9c-0.3,1.3-0.3,2.8-0.5,4.1c0.3-0.3,1-1,1.3-1.3c0.3,1,0.8,2.3,0,3.4c-1.8,2.1-1.6,5.2-0.3,7.5
		c-1.6,0.8-3.4,1.6-4.1,3.1c-2.3,3.9-2.3,8.5-4.1,12.7c0.5,2.8,0.8,5.7,1.6,8.5c0.8,2.3,0.3,5.2,1.6,7.2c1.3-0.8,2.8-1.6,4.4-1.3
		c8.8,0.8,17.8,1.6,26.6,2.1c-0.5-3.4,0.8-6.5,0.5-9.8c-0.5-5.9-3.4-11.4-5.7-16.8c-0.5-2.1-3.6-1.3-4.1-3.4
		c-1.3-2.1,1.3-4.1-0.3-5.9c-0.8-1.3-2.3-2.8-1.6-4.7c1.6-2.6,3.9-5.2,3.4-8.5c-0.3-3.4-3.1-5.4-3.9-8.5c-1-3.1,0-6.2-0.5-9.3
		c-0.5-2.8-0.8-5.9-2.3-8.5C303.2,324.5,301.7,326.9,300.4,328.9L300.4,328.9z M396.4,326.3c-1.6,2.3-2.8,5.4-2.8,8.3
		c0,1.8,0.3,3.9-1.3,5.2c-1.3,0.8-1.3,2.3-2.1,3.6c-1.6,1.3-3.4,1.8-4.7,3.6c-0.5,2.1-0.5,4.4-0.8,6.5c0.3,1.6,1.6,2.8,1.8,4.7
		c1,3.1-0.5,6.2,1,9.1c-1.3,1.8-2.1,3.9-2.6,5.9c-0.3,1.6-2.1,1.8-3.4,2.3c0,0.3,0,1-0.3,1.3c1.8,0.8,3.9,1.8,3.6,4.1
		c-0.3,3.6-2.3,7.2-5.7,8.8c-2.1,1-3.6,2.3-4.9,4.1c1.3,1,2.6,1.8,3.9,2.8c2.1,0,4.4-1.6,6.5-0.8c1.8,0.8,2.6,2.6,3.4,4.1
		c5.7,14.7,11.9,29.5,17.6,44.2c0.3,0.8,0.8,1.6,1.6,1.8c-0.8-14-2.1-27.9-3.1-41.9c-2.6-2.1-6.2-3.1-9.3-4.7c0-0.5,0-1.3,0-1.8
		c0.8-0.5,1.3-1.3,2.1-2.1c-0.8-1-1.3-2.1-2.1-3.1c1-1,2.3-2.1,3.6-3.1c-0.5-1.3-1.3-2.3-1.3-3.6c0.3-1.3-0.8-2.1-1-3.1
		c-1.6-2.8-2.1-6.5-1-9.8c0.5-1.6,2.3-1.6,3.4-2.3c0.5-1.3-1.3-2.1-1.8-2.8c0.5-4.7-0.3-9.8,1.6-14.2c0.5-1.8,2.3-2.8,3.4-4.1
		c0.5-1.8,1-3.9,0.8-5.7c-0.8-1.6-2.8-2.6-2.3-4.7c1-4.7-0.8-9.3-2.1-13.7C397.6,325.6,396.6,325.6,396.4,326.3L396.4,326.3z
		 M397.4,373.9c-1,3.4,0,7.2,2.3,9.8c-0.3-2.8,2.1-4.9,1.8-7.8C400.2,375,398.9,373.9,397.4,373.9z M377.2,379.1
		c-0.5,1.8-1.3,3.4-1,5.4c0.3,1.8-0.3,3.4-0.5,4.9c4.1-0.8,8-4.4,7.8-8.8C381.4,379.9,379,380.4,377.2,379.1z M168.8,423.6
		c-1.3,0.5-1.3,1.8-1.6,2.8c-1.3,4.1-1.6,8.3-1.6,12.4c-0.8,18.4-1.6,36.7,1.8,54.8c0,2.6,3.9,2.6,4.4,0.3
		c2.3-11.6,2.1-23.3,2.6-34.9c-0.5-11.1-0.3-22.2-2.6-33.4C171.6,424.4,170.3,422.8,168.8,423.6z M246.1,425.9
		c-1,2.1-0.5,4.1-0.8,6.2c0,8.3-0.3,16.6,0,24.8c0.8,0.3,1.8,0.5,2.6,0c3.4-2.1,4.7-6.2,5.2-9.8c0.8-5.2,0.8-10.9-1-16
		C251.5,428.5,249.2,425.7,246.1,425.9z M456.1,213.3c0.8-1.6,2.6-1.8,4.1-1.8c1.6,0.8,2.8,2.3,3.4,3.9c-1.3,0.8-2.6,1.3-3.6,2.6
		c-0.3,1.6,0.5,2.8,0,4.4c-0.5,1.6,0.3,3.4,1.8,3.9c-0.3,1.6-0.5,3.4-0.5,4.9c-0.8-0.3-1.8-0.8-2.6-1c-0.3,2.3-1.8,4.7-0.8,6.7
		c1.6,1.6,3.6,2.6,5.4,4.1c3.6,2.8,8.5,1.3,12.9,2.1c1.3,1,0.8,2.8,0.8,4.1c1.6,0.5,3.1,1,4.1,2.3c1.3,1.6,0.5,3.9,2.3,5.2
		c1.6,1,3.6,1.3,5.4,2.3c3.4-2.3,3.6-6.7,6.2-9.6c1.3-1.6,2.8-3.4,5.2-3.1c2.3,0,4.1-1,6.2-1.8c-0.5-0.3-1.3-0.8-1.6-1
		c0-3.1,3.4-5.4,1.8-8.5c-1.3-2.8-2.3-6.7,0-9.3c2.1-2.3,2.8-5.2,3.1-8c2.3-2.3,5.7-4.7,9.3-3.4c2.8,1.3,5.7,2.6,7.2,5.2
		c2.1,3.4,4.4,6.7,4.7,10.6c0.5,3.9,3.1,7.5,2.6,11.6c-0.5,2.8-4.1,1.6-5.9,2.6c1,2.6,3.1,4.7,5.4,6.2c-0.3-1.8-1.6-2.6-2.6-3.9
		c2.6-1.3,4.9-2.8,7-4.9c2.3-2.3,5.7-3.4,8.5-5.2c-1-3.4-5.7-2.1-7.8-4.1c-0.5-1.3,0-3.4,1.3-3.9c1.6,0,3.1,0.8,4.7,1
		c-1-0.8-2.1-1.8-1.6-3.4c3.9-0.8,7.8,1.3,11.4,2.3c0.5-0.8,1-1.3,1.6-2.1c0.8,0.3,1.6,0.3,2.3,0.5c1-2.3,2.3-4.7,2.8-7
		c0.5-1.8,2.1-3.4,3.9-3.4c2.6-0.3,5.2,0,7.8-0.5c0.3,0.8,0.3,1.3,0.5,2.1c0.8,0.5,2.3,0.5,2.6,1.6c-0.5,4.9-1,9.8-1.3,14.7
		c2.1,0.8,4.4,0.5,6.7,1.6c2.1,0.8,4.1,1,6.2,0.8c1-0.5,2.1-1.6,3.4-1.8c1.6-0.3,2.8,0.5,4.1,1c6.7-3.4,14.2-3.9,21.5-5.4
		c3.6-0.5,7-1.8,10.6-1.6c1,5.2,1.3,10.3,2.1,15.3c0.3,1,0.3,2.8-1,3.1c-5.9-0.5-11.9-2.8-18.1-3.1c0.5,7,4.1,13.4,3.4,20.4
		c-0.5,4.1-3.9,8.8-8.5,8.3c-2.1-0.5-2.8,2.1-4.7,1.8c-2.1-0.3-4.4,0-5.9-1.6c-1.8-2.1-4.4-3.4-7.2-3.9c-0.8,1.3-1.6,2.3-2.3,3.6
		c-2.3,5.7-0.5,11.9-2.1,17.8c-0.5,2.1,0.5,3.9,1.6,5.7c1,2.1,4.4,0.3,5.4,2.1c1.3,2.1,0.3,4.4,0.5,6.5c0.3,1.6-1,2.6-2.1,3.6
		c0.3,4.7,0.8,9.3,2.1,13.7c-1.6,1-4.4,0.8-5.2,2.8c0,4.4,0,9.1-0.5,13.4c0.8,0,1.6,0.3,2.6,0.3c0.5,2.6-1.6,4.7-2.1,7
		c0.3,0.8,0.5,1.6,0.8,2.6c-3.6,4.9-3.9,11.6-0.8,16.8c-0.5,0.8-1,1.6-1.6,2.3c1-0.3,2.1-0.5,3.4-0.5c-0.3,0.8-0.5,1.8-0.8,2.6
		c1.3,1.3,2.6,2.8,2.8,4.7c-1.6-1.6-2.8-3.4-4.4-4.7c1.3,3.4,1.3,7.8,4.7,9.8c2.6,1.3,5.4,1.6,7.5,3.6c1.8,1.8,4.9,0.8,6.5,2.8
		c1.6,1.8,0.8,4.1,0,6.2c1.6,0,3.4-0.5,4.7,0.3c1.3,1,1,2.8,1,4.1c0,9.3,0,18.9,0,28.2c0.3,1.8-0.8,3.9-2.8,4.1
		c-5.7,0.5-11.6,0.3-17.3,0.3c-2.1,0-3.6,1.8-3.6,3.9c0,3.4-0.3,6.5,0,9.8c0.3,2.1,1,4.1,3.4,4.7c4.9,1.3,10.1,0.3,15,1
		c1.8,0.5,1.8,2.8,1.8,4.4c0,7,0,14.2,0,21.2c0,1.8-1,3.9-3.1,3.9c-4.7,0.3-9.6,0-14.2,0c-1.8,0-3.1,1.8-2.8,3.4
		c0,5.2,0.3,10.3,0,15.8c0,1.3-0.3,2.8,0.8,3.9c0.8,0.8,2.1,1,3.1,1c5.2,0,10.3,0,15.5,0c1.6,0,3.4,0.5,3.6,2.1
		c0.5,2.3,0.3,4.4,0.3,6.7c0,7,0,13.7,0,20.7c0,1.6-0.3,3.4-1.8,4.1c-1,0.5-2.3,0.3-3.4,0.3c-15.5-1.3-31-2.6-46.8-3.6
		c-1.3,0-2.6-0.3-3.6-1.3c-1-1-1.3-2.6-1.3-4.1c0-41.1,0-82.5,0-123.6c-3.9,0.5-8.3,1.8-12.2-0.3c-3.1-1.3-2.3-5.2-3.6-8
		c1.3-5.7,1.8-11.6,2.1-17.6c0-2.3-0.8-4.4-2.3-6.2c-0.8,4.9-2.6,9.6-2.8,14.5c0,1.3-0.5,2.6-0.5,3.6c0.8,2.6,2.3,4.9,2.3,7.5
		c-0.5,1.3-1.8,1.3-3.1,1.6c0.5,2.3,1.6,4.7,1.8,7c3.1-0.3,6.5-0.5,9.6-0.5c1.6,0,3.6,0,4.7,1c1.3,1.3,1.3,3.1,1,4.9
		c-0.3,7.5,0,15-0.3,22.5c0,1.8-0.8,3.9-2.8,4.1c-3.9,0.3-7.8,0-11.9,0c-1.6,0-3.1,1-3.4,2.8c-0.5,2.3-0.3,4.9-0.3,7.2
		c0,25.6,0,51.2,0,76.8c0,2.1,0,5.2-2.6,5.4c-8.3,0.3-16.6-0.3-24.8,0.3c-1.6,0-3.4,0.3-4.7-0.8c-1.3-1-1.6-2.6-1.6-4.1
		c0.3-26.6,0-53.3,0-79.9c0-1.8-0.8-3.9-2.6-4.4c-4.1-0.5-8.5,0.5-12.9-0.3c-1.6-0.3-2.1-2.1-2.1-3.6c-0.3-7.5,0-15,0-22.5
		c0-1.6-0.3-3.4,0.8-4.9c1-1.3,2.6-1.6,4.1-1.8c11.1-0.5,22-1,33.1-1.6c2.1-2.8,3.4-6.5,3.9-10.3c-1,0-2.3,0-3.4,0
		c0.8-2.3,2.3-4.4,3.9-6.5c0.5-3.1,0.5-6.2,0.5-9.3c-0.3-4.9-2.3-9.6-2.6-14.2c-0.5-5.2,0.3-10.3,0.5-15.5c0.3-2.1-1-3.9-0.5-5.9
		s-0.5-3.9-1-5.9c-0.8-4.7-0.3-9.3-1-13.7c-0.5-1.8-1-3.6-1.3-5.4c-1.6,4.4-2.6,9.3-5.4,13.2c-2.3,2.8-4.7,5.7-7.2,8.3
		c-2.1,1.8-2.6,4.7-4.7,6.7c-0.3,2.3-0.3,5.4,1.8,6.7c1,0.8,2.8,1.6,2.6,3.4c-0.8,2.6-2.3,4.9-3.4,7.2c-0.8,1.6-1.3,3.6-3.1,4.4
		s-3.9,1.8-5.4,3.4c-1.8,1.8-2.6,4.4-4.4,6.2c-0.5,0.5-0.8,1-1.3,1.8c0.8,0,1.8,0,2.6,0c0.3,4.4,0.8,9.3,3.6,12.9
		c1.3,1.8,3.6,3.4,3.4,5.9c0.3,2.1-2.1,2.3-3.6,2.3c-2.8,0.3-5.2-1.8-6.5-3.9c-1.3-2.1-3.1-3.9-4.9-5.7c-0.8,1.6-1.8,3.4-1.6,5.2
		c1.6,1.8,4.4,1,5.9,2.8c1,1.8,0.8,4.4-0.8,5.7c-2.1,1.6-4.9,2.3-7.5,2.6c-0.3,15.3-0.3,30.8-0.3,46c0,21.7-0.3,43.5,0.3,64.9
		c0,1.8,0,4.1-1.3,5.4c-1.6,1.6-4.1,1-6.2,1c-7.8-0.5-15.8,0-23.5,0c-2.1,0-3.6-2.1-3.6-4.1c0-38.3,0-76.6,0-115.1
		c-0.3-2.1,0.8-4.4,2.8-4.9c2.8-0.5,5.7-0.3,8.5-0.3c0-0.8,0.3-1.6,0.3-2.3c1.3-1,3.1-1.6,4.7-2.3c-2.8-1.3-6.2-1.6-9.3-2.8
		c-3.1,0-6.2,1.3-9.3,1.6c-2.1,0-2.6-2.3-3.9-3.6c-1.3-1-0.8-3.1,0.3-4.1c1.8-1.3,4.1-1.6,5.7-3.1c1-1,2.1-2.3,2.6-3.6
		c0.8-1.3-0.3-2.8-0.5-4.1c0.5-0.3,1.3-0.8,1.8-1c-0.3-2.6-0.8-5.2-1.8-7.5c-0.8-3.9-2.3-7.2-3.4-11.1c-1.8-3.9-3.1-8.3-1.6-12.4
		c1-2.1-1-3.9-1.3-5.9c-1-5.2-1-10.6-2.1-15.8c-0.3,4.1-2.1,8-3.6,11.9c-1,1-2.3,1.3-3.6,2.1c-2.1,1-3.9,2.8-5.7,4.4
		c0.8-6.5,1.8-12.7,3.6-18.9c1.3-4.9,2.3-9.8,3.1-14.7c0.5-2.6-0.8-5.2-0.5-8c0-1,0-2.1-0.3-3.1c0.8-0.3,1.6-0.5,2.3-0.8
		c1-4.1,2.1-8.3,3.6-12.4c-1.6-2.3-3.4-4.9-4.4-7.8c-1.3-2.8-1.6-6.2-2.8-9.3c-1-2.8-2.6-5.4-2.8-8.5c0.5-1,1-2.3,1.3-3.6
		c4.4-2.1,8.8-3.9,12.7-6.7c1.3-0.8,1.8-2.3,2.1-3.6c0.3-1.6,1.3-2.6,2.3-3.6c0.8,0.3,1.6,0.8,2.3,1.3c0.5-0.5,1.3-0.8,1.8-1.3
		c1,0.8,1.8,1.8,3.4,1.8c-5.4-4.9-12.7-7.5-17.8-12.7c3.4,1,7,4.9,10.9,2.6c-2.3-2.3-5.4-4.1-8-6.2c0.5-0.5,1-1.3,1.8-1.8
		c2.8,1.8,5.4,4.1,8.5,5.7c-0.5-2.6-1.8-5.4-1-8c-1.6-2.1-1.3-4.9,1-5.9C448.6,213.3,452.5,211.2,456.1,213.3L456.1,213.3z M589,234
		c0,0.8,0,1.6,0,2.3c0.8,0.3,1.8,0.5,2.8,0.5c0.3-0.8,0.5-1.8,0-2.6C591.1,233.7,590.1,234,589,234z M594,245.4
		c-0.3,1-0.8,2.3-0.3,3.4c0.8,1.3,1.8,2.3,2.8,3.4c-0.5,0.5-1,0.8-1.3,1.3c1,0.8,2.3,1.3,3.6,1c0.5-2.3,0-4.7,0.3-7
		C597.1,247.2,595.5,246.4,594,245.4L594,245.4z M430,256.5c0.5,3.4,1,7.2,2.8,10.3c0.8,1.3,2.8,2.3,4.1,1.3c1-4.9-0.3-10.1,0.5-15
		C434.6,254.2,432,255.2,430,256.5z M542.7,253.9c1,2.8,2.1,5.7,3.6,8.3C546.4,259.1,545.3,256,542.7,253.9z M469,255.2
		c1,4.4,2.8,8.5,4.9,12.4c1.3-1.8,2.1-3.9,1.8-5.9c-1.8-1.8-2.8-3.9-4.4-5.7C471.1,255.2,470.1,255.2,469,255.2z M464.4,261.4
		c-0.3,1.8-1,3.4-2.3,4.7c1,4.4,0,8.8,1,12.9c-0.5-0.8-1.3-1.3-1.8-2.1c0.3,5.2,1.3,10.3,3.1,15.3l7.2,19.1
		c2.3,5.2,5.2,10.3,7.2,15.5c2.6-6.5,5.7-12.7,7.8-19.4c0.5-1.8-1.6-2.8-2.6-3.6c0-1,0-1.8,0-2.8c-2.8-0.5-5.7,0-8.3-1.3
		c-1-4.1,0.5-8.5,0-12.7c-0.8-1.8-3.1-2.6-3.9-4.7c-0.8-2.1-1.3-4.1-2.1-6.2c-0.5-1.3,1.3-2.8,0.5-4.1
		C468.5,268.7,466.4,265,464.4,261.4L464.4,261.4z M457.1,274.6c0.3,2.1,1.8,3.9,3.4,5.2c-0.3-3.6-0.8-7.2-1.6-11.1
		C457.9,270.7,456.9,272.5,457.1,274.6L457.1,274.6z M488.7,276.7c0.8,3.4,3.1,5.9,3.9,9.6c0.8-1.8,1.3-3.6,1.6-5.7
		c-0.3-1-0.5-2.1-0.8-3.1c0-1.6,0.8-3.4,0.3-4.9C491.8,273.6,490.5,275.4,488.7,276.7L488.7,276.7z M481.4,283.4
		c0.3,0.3,0.5,1,0.8,1.3c1.6-1.3,3.4-2.3,4.7-3.9l-0.3-0.5C484.5,280.6,483,282.1,481.4,283.4L481.4,283.4z M449.1,300.2
		c-2.1,9.8-3.1,19.7-4.1,29.5c-0.3,3.6,0,7.8,1.6,11.1c3.1,1.3,4.9,4.1,5.9,7.2c0.3,2.3,0.3,4.9,0.5,7.2c-0.5,1-1.3,1.8-1.8,2.6
		c-0.5,2.3,3.1,2.3,3.1,4.4c1.3,4.7-1.6,9.1-2.3,13.4c1.3,1.8,3.6,2.6,5.2,4.4c-1.3,1.6-2.8,2.8-4.4,3.6c1.3,0.3,2.8,0.5,3.9,1.3
		c1,1,1.6,2.6,2.8,3.4c1,0.5,2.3,0.8,3.6,1c-0.5-1.8-2.3-2.8-2.8-4.7c0.3-1.8,2.1-2.6,3.6-3.6c2.3-1.6,5.4-3.4,5.9-6.5
		c0-1.8,1.8-2.6,2.1-4.4c0.3-2.1,0.5-3.9,1-5.9c0.3-1,0.8-2.3,0-3.1c-2.3-2.3-2.1-5.9-4.4-8c-0.5-0.5-1.3-1-1.3-1.8
		c0-2.6,1-5.2,0.8-8c-0.5-5.9-3.4-11.6-5.4-17.1C458.2,317.8,454,308.7,449.1,300.2L449.1,300.2z M467.2,303.8
		c0.8,7.5,2.1,15,4.1,22.5c1.6,4.9,2.1,10.3,4.4,15c0.5,0.8,1.3,1.6,2.1,1.8c1-0.3,1.3-1.6,1-2.6c-1-3.9-1.8-8-3.6-11.9
		C472.4,320.4,470.3,311.9,467.2,303.8L467.2,303.8z M558,337.7c-0.8,3.4-2.3,6.7-2.8,10.1c-0.3,1.6-1,3.1-2.1,4.4
		c0.5,0.8,1.6,1.3,1,2.3c-1.8,5.4-3.6,10.9-5.4,16c-1,0.3-2.1,0.5-2.8,1c1,0.5,1.8,0.8,2.8,1.3c-0.5,1.3-2.1,1.6-3.4,2.1
		c0.8,3.1,1,6.2,0.3,9.1c2.3,0,4.9,0,6.7,1.6c1.6,2.3,1.8,4.9,2.3,7.5c12.9-1.6,25.9-1.8,38.8-3.4c-4.4,0.3-9.1-0.5-13.2-2.1
		c-2.1-0.8-4.1-0.8-6.2-1.3c-2.1-1-1.3-3.9-1-5.7c0.3-2.6,1.3-4.9,1.8-7.5c-0.3-2.3-1-4.7-2.1-6.7c-0.8-2.1-4.1-2.3-3.6-5.2
		c0.3-2.6,0-4.9-0.8-7.5c-0.5-1.6-0.3-3.4,0.3-4.9c1.3-3.6,1-7.2,1.3-10.9c0-2.8-1.3-5.4-2.3-8c-1.3-3.6-1-8-4.4-10.6
		C560.3,325.3,559.6,331.8,558,337.7L558,337.7z M540.9,323.2c-1.3,2.8-1.6,5.9-1.6,8.8c0,2.1,0.3,4.1-0.8,5.9c-1,0.3-2.1,0-3.1,0
		c0,1.8,0.8,3.6,1.3,5.2c-1.8,2.6-1.6,5.7-0.8,8.5c0.3,0,0.5,0,0.8,0c2.1-2.3,4.4-4.4,5.2-7.5c0.5-1.8,1.3-3.6,0.8-5.7
		c-0.5-4.4-0.3-8.8-0.5-13.2C542.5,324.8,541.7,324,540.9,323.2L540.9,323.2z M478.6,328.7c1,3.4,0.5,7.2,2.3,10.3
		c2.6-2.6,0.3-6.7,1.8-9.8C481.2,329.2,479.9,328.9,478.6,328.7L478.6,328.7z M449.1,364.9c0,2.8,0.8,5.9,1,8.8
		c2.1-3.4,3.1-7.2,2.6-10.9C451.2,362.8,449.1,363.1,449.1,364.9z"/>
</g>
</svg>
