<?xml version="1.0" encoding="utf-8"?>
<!-- Generator: Adobe Illustrator 25.4.1, SVG Export Plug-In . SVG Version: 6.00 Build 0)  -->
<svg version="1.1" id="Layer_1" xmlns="http://www.w3.org/2000/svg" xmlns:xlink="http://www.w3.org/1999/xlink" x="0px" y="0px"
	 viewBox="0 0 1000 1000" style="enable-background:new 0 0 1000 1000;" xml:space="preserve">
<style type="text/css">
	.st0{fill:#414042;}
	.st1{fill:url(#SVGID_1_);}
	.st2{fill:#FFFFFF;}
	.st3{fill:url(#SVGID_00000038413322213153035060000018338636685957021824_);}
	.st4{fill:#754C29;}
	.st5{fill:url(#SVGID_00000003077231090951477910000012063020809771360439_);}
	.st6{fill:#363F45;}
	.st7{clip-path:url(#SVGID_00000092456360198648272050000013724221307507650746_);}
	.st8{opacity:0.25;clip-path:url(#SVGID_00000133529928716346527460000015390914738797450143_);}
	.st9{fill:#414141;}
	.st10{fill:#939598;}
	.st11{fill:url(#SVGID_00000152255063332506665540000001531673816505196730_);}
	.st12{fill:url(#SVGID_00000128478599972494548400000010448093691504763568_);}
	.st13{fill:url(#SVGID_00000124883679013344757870000014668491203877830786_);}
</style>
<g>
	<path d="M390.9,446.2c0,3.6,0.1,7.3,0.1,10.9c0,1.8,0.1,1.8,1.7,1.6c2.6-0.4,4.7-1.7,6.5-3.7c1.9-2.2,2.8-4.8,3.3-7.6
		c1.1-5.9,1.1-11.9,0.3-17.8c-0.4-3.1-1.1-6.1-2.4-8.9c-0.7-1.4-1.5-2.8-2.7-3.9c-1.8-1.6-3.8-2.3-6.2-2.2c-0.7,0-1,0.3-1,1
		c0,0.5,0,1.1,0,1.6c0,6.5,0,13,0,19.5c0.1,0,0.3,0,0.4,0C390.9,439.9,390.9,443,390.9,446.2z"/>
	<path d="M303.8,500.2c0.2,2.4,0.5,4.8,1.5,7c0.6,1.4,1.6,2.4,3.2,2.4c1.7,0,2.4-1.2,2.9-2.5c0.5-1.3,0.8-2.6,1-4
		c0.8-5.2,1.1-10.4,1.2-15.6c0.2-9.3,0.3-18.5,0.4-26.9c-0.2-13-0.1-25.2-0.8-37.3c-0.2-3.1-0.5-6.1-1.2-9.2
		c-0.3-1.2-0.7-2.4-1.5-3.3c-1-1-2.4-1.4-3.6-0.8c-1,0.5-1.7,1.4-2.1,2.4c-0.5,1.3-0.8,2.8-1,4.2c-0.9,6.4-1,12.8-1.1,19.3
		c-0.1,10.9-0.1,21.8-0.1,32.7C302.5,479.3,302.7,489.8,303.8,500.2z"/>
	<path d="M622.9,727.8c-1.3-0.9-3.8-1.5-7.6-1.9c-2.7,26.3-5.3,52.6-8,78.9c4.6,0.5,7.6-0.1,8.9-1.8c1.3-1.7,2.3-6.5,3.2-14.5
		c1.7-15.5,3.4-31.1,5.2-46.6c0.6-5.4,0.8-8.9,0.6-10.5C625,729.9,624.2,728.6,622.9,727.8z"/>
	<path d="M364.9,737.4c-0.5-3.8-1.5-6.2-3.1-7.2c-1.6-1-4.5-1.3-8.5-0.7c1.1,8.9,2.3,17.7,3.4,26.6c3.8-0.5,6.4-1.3,7.8-2.4
		s1.8-4.4,1.2-9.6C365.3,741.4,365.2,740.1,364.9,737.4z"/>
	<path d="M229,777.7c0.5-1.7-0.1-6-1.8-13c-0.9-3.7-1.9-6.1-3-7.4c-1.1-1.3-2.3-2-3.6-2c-1.3-0.1-3.7,0.3-7.2,1.1
		c2.2,8.7,4.5,17.3,6.7,26c1.4-0.4,2.5-0.7,3.3-0.9C226.6,780.7,228.5,779.4,229,777.7z"/>
	<path d="M601,612.4c1.4-1.3,2.3-4.2,2.7-8.6c0.3-3.9,0.5-5.9,0.9-9.9c0.4-4.1-0.2-6.8-1.6-8.2c-1.4-1.4-4.5-2.3-9.4-2.6
		c-0.8,10.2-1.6,20.4-2.4,30.6c1,0.1,1.9,0.2,2.7,0.3C597.2,614.2,599.6,613.7,601,612.4z"/>
	<path d="M410.2,639.9c4.9-0.4,7.3-0.6,12.2-0.9c-3.4-16.7-6.2-33.4-9.1-50.2C411.8,605.8,410.4,622.8,410.2,639.9z"/>
	<path d="M708.4,745.5c-5.5,16.1-11.1,32.2-15.5,48.7c4.5,0.8,6.7,1.2,11.2,2.1C705.2,779.3,706.8,762.4,708.4,745.5z"/>
	<path d="M854.9,735.7c-3.3-9.2-10.8-16.3-20.2-19.1c-10.7-3.1-21.6-6.1-32.4-8.9c-3.2-0.8-6.4-1.1-9.6-0.9
		c-2.7-1.7-5.7-2.9-8.9-3.7c-10.8-2.6-21.8-5.2-32.7-7.5c-1.3-0.3-2.6-0.5-4-0.6c-1.3-0.5-2.7-0.8-4.1-1.1
		c-9.5-1.9-19.2-3.8-28.8-5.5l4.5-26.8c11.9-22,24.3-44,37-65.6c4.2-7.2,5.3-15.8,3-23.7c2.2,0.3,4.4,0.5,6.6,0.8
		c9.9,1.1,19.9,2.2,29.8,3.4c3,0.3,6,0.8,9,1.2c0-74.5,0-149,0-223.5c-2.9-0.3-5.7,0.3-8.6,0.5c-8.9,0.7-17.9,1.6-26.8,2.4
		c-9.7,0.9-19.4,1.8-29.1,2.7c-8.4,0.8-16.8,1.5-25.2,2.3c-1.5,0.1-2.5-0.4-3.1-1.7c-1.5-3.2-3.4-6.3-4.8-9.6
		c-0.9-2.1-2.2-4-4.6-4.7c-1.2-0.3-2.4-0.5-3.6-0.8c-0.6-0.1-1.2-0.4-1.8-0.6c-1.8-0.6-2-0.9-1.9-2.8c0.5-5.8,1.5-11.5,2.6-17.3
		c0.2-0.9,0.3-1.7,0.5-2.6c0.6-3.2,3.3-5.1,6.5-4.8c0.7,0.1,1.3,0.3,2,0.5c0.9,0.3,1.4,0.9,1.6,1.9c0.3,2,0.3,4,0.2,5.9
		c-0.1,0.9-0.5,1.5-1.2,2c-3.5,2.9-4.5,8.4-2.2,12.3c0.9,1.6,2.3,2.6,4.2,2.6c1.9,0,3.1-1.2,3.9-2.9c1.2-2.7,1.4-5.6,0.6-8.4
		c-0.3-1.3-1-2.4-2.1-3.2c-1.3-1-1.8-2.4-1.8-3.9c0-1.5,0.1-3,0-4.5c-0.1-2.6,1.4-4.1,3.4-5.4c0.8,2.5,0.8,2.5,2.9,1.1
		c1.2-0.8,1.4-0.7,1.8,0.7c0.1,0.2,0.1,0.4,0.1,0.6c0.3,1,1.3,0.5,1.8,0.9c0.6,0.4,0,1.5,0.8,2c0.3,0.2,0.5,0.1,0.8,0
		c5.1-2.5,8.6-9.2,7.9-13.5c-0.1-0.5-0.1-1-0.2-1.4c-2.1-5.3-5.1-10-10.5-12.4c-5.3-2.3-10.4-1.1-15,1.9c-2.6,1.7-3.4,4.6-3.9,7.5
		c-0.5,3.1-0.4,6.1,0.2,9.2c0,0.2,0.1,0.4,0.1,0.6c0.4,1.3,1,1.4,2.3,0.3c0.3,0.6,0.4,1.5,1.4,1.4c0.9-0.1,1-1,1.7-1.4
		c0.1,0.1,0.3,0.1,0.3,0.2c1.3,2.4,1.3,2.4,3.4,0.4c0.6,1,0.4,2,0.1,2.9c-0.3,0.9-1.1,1-1.9,0.7c-0.9-0.3-1.8-0.8-2.6-1.3
		c-1.3-0.7-2.6-1.3-4-0.2c-0.5,0.4-0.9,0.3-1.1-0.4c-1.2-3.9-3-7.7-3.6-11.8c-0.3-2-0.6-4.1-0.6-6.1c0.2-4.9,0.4-9.7,0.6-14.6
		c0-0.9,0-1.8,1-2.3c0.6-0.3,1.1-0.4,1.1,0.5c0.1,1.1,0,2.2,0.4,3.3c0.5,1.4,1.1,1.6,2.3,0.7c0.6-0.4,1-1.1,1.7-1.4
		c0.1-0.1,0.3,0,0.4-0.1c0.5,0.4,0.4,1,0.6,1.5c0.5,1.4,1.2,1.6,2.5,1c1.1-0.5,1.9-1.3,2.6-2.3c0.5-0.8,0.9-1.7,1.7-2.3
		c0.2,0.1,0.4,0.2,0.4,0.4c1,1.6,1.9,1.6,3,0.1c0.6-0.8,0.6-2,1.5-2.9c0.2,0.6,0.3,1.1,0.5,1.5c0.5,1.2,1.2,1.3,2.2,0.6
		c0.5-0.4,0.8-1,1.4-1.1c-0.1,3.3-0.1,3.3,1.2,5c0.6-0.2,0.7-0.8,1-1.2c0.3-0.4,0.6-0.9,1-1.5c0.5,0.3,0.5,0.8,0.7,1.2
		c0.2,0.5,0.5,0.8,1.1,0.8c0.6,0,0.8-0.4,0.9-0.9c0.4-1.4,0.8-2.9,1.3-4.6c0.6,1,0.6,1.9,0.9,2.7c0.3,1,0.9,1.2,1.6,0.3
		c3.6-4.4,6-9.3,6.4-15.1c0.1-1.5-0.3-3-0.9-4.4c-2.2-5.4-4.8-10.6-8.6-15.1c-1.6-1.9-2.9-4-4.2-6.1c-4-6.4-9.5-11.3-16-15.1
		c-1.4-0.8-2.8-1.4-4.3-1.9c-2.8-0.8-5.5-0.9-8.3,0.1c-2.5,1-5,1.8-7.7,2.3c-2.5,0.5-4.6,1.8-6.3,3.6c-3.3,3.4-6.8,6.5-10.9,9.1
		c-1.2,0.8-2.3,1.7-3.3,2.8c-6.3,7.3-8.1,15.8-6,25.1c0.5,2.4,1.8,4.4,3.3,6.3c1.2,1.4,1.7,1.4,2.4-0.3c0.4-0.9,0.6-1.5,1.7-0.9
		c0.7,0.4,1.1-0.1,1.3-0.8c0.2-0.6,0.2-1.2,0.1-1.8c0-0.6-0.3-1.2,0-1.8c0.8-0.1,1.2,0.6,1.7,1c0.8,0.6,1.3,0.4,1.9-0.4
		c0.8-1.2,1-2.5,1.3-3.9c0.9,0.2,0.8,0.9,1,1.4c0.9,2.1,2.2,2.3,3.6,0.5c0.3-0.4,0.4-0.9,1.1-1.2c0.6,1.1,0.8,2.4,1.1,3.6
		c0.1,0.7,0.3,1.4,1.1,1.6c0.8,0.2,1.3-0.3,1.8-0.8c0.4-0.4,0.8-0.9,1.2-1.5c0.6,1.1,0.4,2.1,0.5,3.1c0,0.5,0,1.1,0,1.6
		c0.1,1.6,0.4,1.8,2.1,1.2c0.4,1.5,0.1,3,0.2,4.5c0,0.7-0.4,1.3-1.1,1.6c-0.7,0.3-1.2-0.2-1.6-0.6c-0.3-0.3-0.5-0.8-1.2-0.9
		c0.9,1.3,1.2,2.9,3.1,3c0.4,0,0.6,0.3,0.7,0.6c0.5,1.2,1.4,1.7,2.6,2.2c2.7,1,3.3,1.9,2.9,4.8c-1.1,8.1-0.6,16.1,0.8,24.2
		c0.3,1.6,0.4,3.1-0.3,4.6c-0.6,1.3-1.2,1.4-2.4,0.9c-1.6-0.7-2.4-2.1-3-3.9c-0.3,0.8-0.1,1.4-0.1,1.9c-0.2,1.8,0.7,3,2.3,3.7
		c0.4,0.2,0.7,0.4,1.1,0.5c0.9,0.3,1,0.9,0.7,1.8c-2.2,6.1-4.4,12.2-6.6,18.4c-0.3,0.8-0.7,1.3-1.7,1c-1.9-0.5-3.8-1-6.1-1.6
		c2-3.5,3.8-6.9,5.7-10.3c-1.4,0.3-2.3,1.3-3.3,2.1c-1,0.8-1.9,1.7-2.9,2.6c-1,0.9-2,1.8-2.9,2.7c-0.7-0.1-0.7-0.6-0.8-1
		c-0.5-1.9-1-2.2-2.9-2.2c-1.8,0-1.9,0-2.2-1.6c-0.3-1.7-1.1-2.9-3.3-2.8c1.3-2.1,3.2-3.4,4.5-5.6c-1.5,0.2-2.5,1-3.5,1.6
		c-2.1,1.3-3.2,1.2-5.3-0.3c-0.9-0.6-1.2-1.4-1.1-2.4c0.1-0.9,0.2-1.7-0.2-2.7c-2.1,1.4-2.6,4.6-5.7,5.2c2.2-6.3,4.4-12.3,6.6-18.6
		c-1.1,0.4-1.4,1.1-1.8,1.8c-2.9,4.6-5.7,9.2-8.6,13.8c-0.3,0.5-0.6,1.1-1,1.6c-0.3,0.5-0.8,0.8-1.4,0.4c-0.5-0.4-0.3-0.8,0-1.3
		c1.1-2,2.1-4,3.2-6c0.1-0.2,0.2-0.5,0.4-0.9c-0.8,0-1.2,0.5-1.7,0.9c-1.5,1.2-2.9,2.5-4.4,3.7c-0.3,0.3-0.6,0.5-0.9,0.8
		c-0.6,0.4-1.1,0.4-1.7,0c-0.7-0.4-0.6-0.9-0.5-1.6c0.6-3.2,1.2-6.5,1.8-9.7c0-0.3,0.1-0.5-0.1-0.9c-2.2,2.5-3.4,5.7-5.4,8.3
		c-0.6-0.3-0.5-0.7-0.6-1.1c-1.8-10.3-3.6-20.6-5.4-31c-0.1-0.5-0.2-0.9-0.3-1.4c-0.5-1.9-1.1-2.5-3.1-2.7c-4.4-0.4-8.7-1-13-1.7
		c-0.3-0.6,0.1-1.1,0.3-1.5c0.3-0.8,0.6-1.5,0.8-2.3c0.4-1.5,0-2.4-1.4-3c-1.1-0.4-1.2-1.1-1.1-2.1c1-6.3,0.3-12.6-0.9-18.8
		c-0.6-3.2-0.6-3.1,2.6-3.9c2.9-0.7,5.7-1.4,8.6-2.2c0.3-0.1,0.7-0.2,1-0.3c1.3-0.6,1.6-1.7,0.8-2.9c-0.6-0.9-1.4-1.6-2.3-2.3
		c-11-8-23.5-2.7-28.7,6.6c-0.2,0.4-0.4,0.7-0.5,1.1c-0.3,1.2,0.3,2,1.5,2.1c3.7,0.1,7.4,0,11.1-0.7c2.9-0.5,3-0.5,3.5,2.5
		c0.8,4.5,1.6,8.9,1.5,13.5c-0.1,1.8-0.3,3.5-0.7,5.3c-0.2,1-0.5,1.7-1.7,1.6c-0.7-0.1-1.1,0.4-1.4,1c-0.5,1.1-0.4,2.1-0.2,3.2
		c0.1,0.7,0.3,1.3,0.5,2.2c-1.6-0.1-2.9-0.3-4.2-0.4c-1-0.1-1.4-0.6-1.3-1.6c0.2-1.6,0.4-3.1,0.1-4.7c-0.5-2.9-1.9-4.2-4.7-4.6
		c-3-0.4-3-0.4-2.8-3.5c0.1-1.5,0-3-0.5-4.5c-0.7-2.1-2.5-3.6-4.5-3.7c-1.9-0.1-3.2,0.9-3.3,2.9c-0.1,1.3,0,2.6,0.2,3.9
		c0.5,3.7,0.3,7.4-1.2,10.9c-1,2.2-1.4,2.5-3.7,2.2c-2-0.2-3.9-0.6-5.9-0.8c-1.8-0.2-2,0-2.1,1.9c-0.2,6.1-0.5,12.2-0.4,18.3
		c0.1,3.2-0.4,6.3-1.8,9.2c-0.8,1.6-1.1,3.2-1.1,5c0,2.1-0.1,4.2,0.2,6.4c0.1,0.7,0.2,1.6-0.9,1.7c-0.9,0.1-1.4-0.3-1.6-1.5
		c-0.1-0.7-0.1-1.4-0.1-2.1c-0.6-13.8-0.6-27.7-0.6-41.5c0-1.5,0.2-2.7,1.7-3.4c1.1-0.5,1.3-1.4,0.9-2.4c-0.1-0.3-0.2-0.6-0.4-0.9
		c-2-4.5-2.7-9.2-2.4-14c0.2-3.4,0.1-6.7,0-10.1c0-2.3-0.4-2.5-2.7-2.6c-2.4-0.1-2.6-0.2-3.3-2.5c-0.9-2.8-1.8-5.6-2.7-8.5
		c0.9,0,1.3,0.7,1.8,1.1c5.6,5,12.2,8.1,19.5,9.7c2.4,0.5,4.9,0.6,7.4,0.2c2.1-0.3,2.6-1,2.1-3.1c-0.4-1.7-1.1-3.2-1.8-4.8
		c-1.5-3.2-3.1-6.3-5-9.2c-0.9-1.4-1.2-2.8-0.9-4.5c0.7-4.4,1.2-8.8,1.5-13.3c0.2-3.3,1.4-5.9,5.4-6.5c-2.3-2.8-4.6-5.2-6.8-7.6
		c-0.9,0.5-0.9,1.2-1.2,1.8c-0.7,1.5-1.1,1.7-2.9,1.5c-2.8-0.4-5.5-0.9-8.3-1.4c-1.3-0.2-2.6-0.4-3.9-0.6c-2.2-0.2-3.9-1.3-5.1-3.1
		c-2.1-3.1-4.8-5.7-7.5-8.1c-0.7-0.6-1.4-1.1-2.2-1.5c-1.1-0.6-1.9-0.3-2.5,0.9c-0.6,1.2-0.8,2.5-1,3.8c-1.5,9.1-0.9,18,1.7,26.8
		c0.6,1.9,0.3,3.1-1.3,4.4c-4.7,3.9-5.3,8.7-1.9,13.9c0.6,1,1.3,2,1.9,3c1.2,2,1.6,4.2,1,6.5c-0.2,0.6-0.1,1.2,0,1.8
		c0.2,0.6,0.2,1.2,0.2,1.8c-0.1,1.3-0.4,1.7-1.7,2c-1.6,0.3-2.9,0-4.2-1c-2.9-2.1-5.8-4.2-8.7-6.2c-1.5-1.1-1.8-1-2.5,0.7
		c-0.9,2.2-1.8,4.3-2.6,6.5c-0.6,1.5-1.3,2.5-3.1,2.3c-1.2-0.1-1.6,0.4-1.7,1.5c0,0.4,0,0.8,0.1,1.2c0.4,4.1-0.4,8.1-2.1,11.8
		c-1.4,3-2.6,6-3.9,9.1c-0.7,1.7-0.7,1.8,0.8,2.8c1.5,0.9,1.9,2.3,1.9,3.9c0,6,0.6,11.9,0.2,17.9c-0.2,2.2-0.4,4.5-0.8,6.9
		c-1.2-0.7-1.6-1.8-2.1-2.8c-2-4.1-2.9-8.5-3.3-13.1c-0.7-8.1,0.2-16,1.4-24c0.4-2.5,0.6-5,0.6-7.6c-0.1-12.5-0.3-25-0.4-37.4
		c0-1.8-0.5-3.3-1.4-4.9c-2.9-4.9-5.6-9.9-8.5-14.8c-2-3.5-3.4-7.1-3.4-11.3c0-1.2-0.1-2.3-0.3-3.5c-0.9-5.5-0.2-10.9,1.1-16.3
		c0.1-0.5,0.2-0.9,0.3-1.4c0.1-0.9-0.3-1.4-1.1-1.6c-3.8-1.2-4.8-2.7-4.8-6.6c0-1.6,0-3.2,0.1-4.7c0-1.9,0.3-2.1,2.3-2.2
		c0.4-0.6,0-1.2-0.2-1.7c-0.8-2.1-1.7-4.2-2.5-6.3c-0.9-2.3-1.1-4.7-0.9-7.1c0.1-0.8,0.2-1.6-0.5-2.3c-0.5-0.4-0.4-1,0-1.5
		c3-4.3,6.6-7.9,12-9c0.1,0,0.3-0.1,0.4-0.1c1.2-0.1,1.6,0.3,1.5,1.5c-0.1,1-0.6,2-0.9,2.9c-0.8,2.5-0.3,3.4,2.2,4
		c5.1,1.4,10.2,0.8,15.2-0.5c6.4-1.6,12-4.9,17.1-9.1c0.3-0.2,0.5-0.5,0.7-0.7c0.1-0.1,0-0.3,0.1-0.5c-1.5-0.1-3,0.3-4.4,0.5
		c-5.3,0.8-10.6,1.5-16,0.6c-2-0.3-4-0.8-5.9-1.6c-1.3-0.5-1.4-0.8-1.2-2.2c0.1-0.4,0.2-0.8,0.3-1.2c0.6-4.3-14-10.1-22.3,0.2
		c-0.8,1-1.8,0.5-1.8,1.9c0.1,1.8,0.3,3.6,0.5,5.3c0.5,3.4,0.5,6.7-0.9,9.9c-0.8,1.8-0.7,3.9-0.7,5.9c0,1.7-0.2,1.9-1.9,1.9
		c-2.6,0-5.2,0-7.8,0c-1.1,0-1.8,0.3-2.1,1.5c-0.3,1.1-0.6,2.1-1,3.1c-0.4,1-0.8,1.8,0.5,2.5c0.5,0.3,0.7,3.7,0.3,4.1
		c-0.5,0.5-1,0.2-1.5,0c-2.5-1.2-5-2.3-7.4-3.5c-0.3-0.1-0.6-0.3-0.9-0.5c-1.7-0.7-2.2-0.6-3.4,0.7c-1.9,2.3-3.7,4.6-5.6,6.8
		c-1.6,1.9-3.3,3.9-5,5.8c-1.6,1.8-2.1,3.8-1.8,6.1c0.6,4.5,1.7,9,1.6,13.7c0,1.2-0.1,2.5-0.2,3.7c-0.1,1.6-0.9,2.8-2.1,3.9
		c-2.6,2.3-5,4.7-7.6,6.9c-1.5,1.3-2.2,2.8-2.3,4.8c-0.3,10.8-0.7,21.5-1.2,32.3c-0.5,8.8-0.5,17.7-1,26.5c-0.3,4.7-1.3,9.4-2.3,14
		c-0.4,1.8-0.7,3.6-1.2,5.6c-0.7-1.2-0.7-2.3-0.9-3.4c-0.7-3.4-1.3-6.9-1.4-10.4c0-0.7-0.2-1.4,0.4-1.9c1-0.8,0.9-1.7,0.8-2.8
		c-0.2-1.8-0.5-3.7-0.7-5.5c-0.3-2.9-0.3-5.9,0.3-8.8c1-5.7,0.7-11.5,0.5-17.2c-0.1-2-0.7-2.6-2.5-2.4c-1.3,0.1-1.5,0.4-1.8,1.8
		c-0.4,1.8-1.7,2.5-3.4,1.9c-0.6-0.2-0.6-0.7-0.6-1.2c0-2.2,0-4.4,0-6.6c0-1.5,0.1-3,0.1-4.5c-0.1-2.6-1.3-4.4-3.7-5.4
		c-2.1-0.9-2.2-1.2-2.1-3.4c0-0.5,0.1-1.1,0.1-1.6c0-1.3-0.2-2.7,1.8-2.8c0.6,0,0.6-0.7,0.6-1.2c0-1.5,0-3,0-4.5
		c-0.1-2.9-0.2-5.8-0.3-8.6c0-0.7-0.1-1.2-0.9-1.3c-0.9-0.1-1.3-0.8-1.8-1.5c-2.9-4.2-5.8-8.3-8.7-12.5c-1.4-2-1.5-2-3,0
		c-3,4.2-6,8.3-9,12.5c-0.8,1.1-1.4,2.1-3.1,2c-1.2-0.1-1.1,1-1,1.8c0.3,1.9,0.7,3.8,0.9,5.7c0.5,5.4,1.9,10.7,2.5,16
		c0.5,5.1,0.3,10.1-0.3,15.2c-0.2,1.9-0.3,1.9-2.4,2c-0.3,0-0.5,0-0.8,0c-1.7,0-1.8-0.1-2.1-1.8c-0.3-1.7-0.6-2-2.3-1.9
		c-1.4,0.1-1.6,0.3-1.9,1.7c-0.4,1.8-1.9,2.7-3.6,2c-0.8-0.3-0.8-1-0.9-1.7c-0.3-1.7-0.7-2-2.3-2c-1,0-1.6,0.5-1.9,1.5
		c-0.2,0.7-0.2,1.5-0.2,2.2c0.1,2.7,0.3,5.3,0.4,8c0.1,2.5-0.3,2.8-2.6,2.7c-2.5-0.1-5.1-0.1-7.6-0.1c-2,0-3.3,1.4-3.1,3.4
		c0,0.5,0.4,0.7,0.8,0.7c2.5-0.6,4.1,1,5.8,2.4c2.9,2.5,5.2,5.7,7.1,9c0.7,1.1,0.6,2.2,0.4,3.4c-0.7,4.7-1.3,9.5-2.3,14.2
		c-1,4.5-0.3,8.8,0.8,13.2c0.1,0.6,0.5,0.9,0.8,1.4c1.5,1.9,1.1,4.1-0.8,5.5c-1.3,1-2.7,1.9-4.1,2.8c-0.3,0.2-0.7,0.7-1.1,0.3
		c-0.9-1-1.7-0.4-2.5,0.1c-0.3,0.1-0.5,0.5-0.9,0.3c0.5-0.7,1-1.4,1.5-2.2c0.4-0.6,0.4-1.2-0.1-1.7c-0.5-0.6-1.1-0.4-1.7-0.1
		c-1,0.6-2,1.2-3,1.8c-0.6,0.3-1.1,0.8-2.2,0.7c1.1-1.7,2.1-3.1,3-4.6c0.4-0.6,0.8-1.1,1-1.8c0.2-0.6,0.1-1.3-0.5-1.6
		c-0.6-0.3-0.9,0.2-1.2,0.5c-1.1,1.1-2.1,2.1-3.2,3.2c-0.2,0.2-0.4,0.6-1,0.5c0.6-1.4,1.2-2.7,1.8-4.1c0.5-1.1,0.9-2.1,0.6-3.4
		c-0.3-0.9,0.2-1.7,0.8-2.5c1.6-2.2,3.1-4.3,4.7-6.5c0.4-0.6,0.8-1.1,1.2-1.7c-0.3-0.6-0.9-0.7-1.4-0.9c-1.7-0.6-2.3-0.5-3.4,0.9
		c-1.4,1.9-2.7,3.8-4,5.7c-3.3,4.9-6.4,9.9-10,14.6c-1.2,1.6-2.6,3.2-3.9,4.8c-1.9,2.3-1.9,2.8,0.2,5.3c0.7-0.4,1-1.1,1.4-1.6
		c1.4-1.9,2.8-3.9,4.2-5.8c0.6-0.8,1.2-1.5,2.4-1.2c0.8,0.2,1-0.6,1.5-0.8c0.3,0.5,0,0.8-0.1,1.2c-0.2,1.6-0.1,1.8,1.7,1.8
		c0.2,0.4-0.2,0.7-0.2,1.1c-0.2,1.4,0.5,1.9,1.8,1.4c1-0.5,2.1-0.9,3.2-1.4c-0.8,1-1.6,1.9-2.3,2.9c-0.3,0.4-0.8,0.9-0.7,1.2
		c0.5,1.6-0.7,2-1.6,2.7c-1,0.8-1.9,1.6-2.8,2.4c-1.1,1-1.7,1-2.8,0c-1-0.9-1.5-0.9-2.3,0.1c-0.4,0.5-0.6,1.1-0.8,1.7
		c-0.2,0.4-0.4,0.9-0.6,1.3c0,0.1-0.2,0.1-0.3,0.2c-0.7-0.4-0.9-1.2-1.4-1.7c-1.2-1.2-2.2-1-2.8,0.6c-0.2,0.6-0.3,1.2-0.3,1.8
		c0,0.7,0.1,1.5-0.8,1.6c-0.7,0.1-0.8-0.7-1-1.1c-0.6-1.2-1.6-2.2-2.7-3.2c-1.2,1.8-1.1,3.8-1.6,5.9c-1-1.1-1.5-2.4-2.6-3
		c-1.4,1.8-1.4,1.8-1.9,5.4c-0.7,0.2-0.7-0.5-0.9-0.8c-0.7-1.2-1.8-2.5-3-2c-1,0.4-1.3,2.1-1,3.4c0.1,0.3,0.1,0.5,0.1,0.8
		c0,0.4-0.1,0.8-0.5,1c-0.5,0.2-1,0.1-1.2-0.4c-0.5-1.1-1.2-1.9-2.4-2.6c-1,1.3-1.8,2.5-1.5,4.2c0.1,0.5,0.1,1.1-0.6,1.1
		c-0.6,0.1-0.8-0.5-0.9-0.9c-1-3.1-2-6.2-3-9.4c-0.3-1.1-0.1-1.9,1.4-1.7c1.8,0.3,2.9-0.3,3.2-2.2c0.1-0.7,0.6-0.8,1.2-0.6
		c1.4,0.4,2.9,0.9,4.4,0.8c1.3,0,2.4-0.4,3.3-1.7c-1.7-1.2-3.4-2.4-5.4-3.7c2.4-1.1,4.9-1.1,6.7-3c-1.5-0.7-3-0.7-4.4-1.1
		c-1.4-0.5-2.8-1-3.9-2.2c1.2-0.9,2.8-0.1,4-1.1c-1.1-1.9-3.1-3-4.3-4.9c5.4-0.4,5.8-0.4,8.1-1.9c-2.4-1.2-5.4-1.2-7.1-3.7
		c0.7-0.4,1.4-0.2,2-0.3c1.4-0.2,2.4-0.9,3.2-2c0.9-1.3,0.7-2-0.9-2.3c-2.9-0.5-5.6-1.5-8.2-2.6c-1.1-0.4-2.1-1-2.9-2.3
		c1.8-0.1,3.4,0.1,4.9-0.7c1.4-0.7,2.8-1.5,4.1-2.9c-3.9-1-7.9-0.4-11.5-2.4c2.2-1.6,4.6-2.6,6.8-4.2c-1.3-0.8-2.7-0.4-3.8-0.8
		c-1.2-0.5-2.4-1-3.4-1.9c-1-0.9-1.7-2-2.5-3.3c3,0.5,5.4-0.4,7.5-2.8c-4.5-2.1-9.5-3.2-12.7-7.8c1.4-0.3,2.6,0,3.7-0.4
		c1-0.4,2-0.8,2.7-1.8c-0.5-0.7-1.3-0.8-1.9-1.1c-1.8-0.8-3.7-1.4-5.4-2.5c-1.6-1-2.9-2.3-3.9-4.2c1.9,0.1,3.4,0.9,5.1,1
		c-0.1-0.3,0,0,0.1-0.2c0-0.1,0-0.2,0-0.2c-0.4-0.5-0.8-0.9-1.2-1.4c-5.1-5.1-10.2-10.2-15.6-15.6c-1.4,7-2.8,13.5-4.2,20.1
		c1.2,0.3,1.5-0.9,2.4-1c0.3,0.9-0.1,1.8-0.3,2.6c-0.2,1-0.6,2-0.9,2.9c-0.3,0.8-0.3,1.2,0.8,1c0.7-0.1,0.6,0.6,0.6,1
		c-0.2,2.6-1,5-2.3,7.2c-0.5,0.8-0.9,1.5-1.5,2.4c1.9,0.1,2.8-1.1,4.2-2.4c0.6,4.6-1.5,8.3-3.1,12.2c2.4,0.1,3.8-1.3,5.4-2.6
		c0.2,2.3-0.5,3.4-5.4,8.8c0.9,0.8,1.9,0.5,2.9,0.1c0.4-0.2,0.8-0.6,1.3-0.1c0.4,0.4,0.3,0.9,0.1,1.3c-0.5,1.1-1.2,2.2-2,3.1
		c-0.7,0.8-1.5,1.4-1.9,2.4c2.5,0.7,3.4,0.4,6.8-2.2c0.4,3.3-2,5.1-3.9,7.2c1,0.6,2.1,0.5,3,1c-0.3,1.6-1.1,3-1.7,4.4
		c-0.5,1-0.2,1.3,0.9,1.2c2.8-0.3,3-0.1,2.2,2.7c-0.4,1.4-1.1,2.7-1.7,4c-0.3,0.7-0.8,1.3-0.8,2.2c1.1-0.2,1.8-1.2,3-1.4
		c0.1,2.1-1.1,3.9-0.8,6.1c2.3-0.3,3.3-2,4.7-3.6c0.1,1.8-0.7,3-1.4,4.3c-0.2,0.4-0.5,0.8-0.7,1.3c-0.2,0.4-0.3,0.8,0.3,1
		c1.4,0.4,0.9,1.1,0.4,1.8c-0.4,0.6-1,1.1-1.2,2.1c1.7,0.3,3.2,0.2,4.8-0.3c1.2-0.4,1.5-0.1,1.4,1c-0.1,0.9-0.5,1.7-0.7,2.5
		c1.8-0.3,1.9-0.4,4.2-4.2c0.8,0.1,1.3,0.9,2,1.3c2.3,1.5,3.3,1.3,4.6-1c0.2-0.3,0.2-0.7,0.7-0.8c0.5,0.3,0.6,1,0.7,1.5
		c0.8,3.2,1.6,6.5,2.4,9.7c0.2,0.7,0.2,1.4-0.5,1.8c-0.7,0.4-1.1-0.1-1.6-0.5c-0.2-0.1-0.3-0.3-0.5-0.4c-1.5-1.1-2.1-0.8-2.3,1.1
		c0,0.3,0,0.7-0.1,1c-0.5,2.5-1.6,3.1-3.9,2c-0.2-0.1-0.4-0.2-0.6-0.3c-2.1-0.8-2.8-0.1-2.5,1.6c0.4,2.3-0.2,4-2.6,4.7
		c-0.2,0.1-0.4,0.4-0.9,0.3c-0.7-1.5-2-2.7-3.4-4.1c-0.7,2.1-1.4,4-0.6,6c0.1,0.2,0.2,0.4,0.2,0.6c0.1,0.5-0.1,0.8-0.5,1
		c-0.5,0.3-0.8,0-1-0.4c-0.6-1.2-1.8-1.6-3-2c-0.6-0.2-0.9,0.1-0.9,0.7c-0.1,1.3-0.2,2.6,0.1,3.9c-0.1,0-0.3,0.1-0.4,0.1
		c-1.3-2.5-2.5-5-3.8-7.6c1.3-0.1,2.5,0.3,3.2-1.1c0.3-0.5,1.3-0.2,2-0.2c1,0,1.9,0,2.8-0.6c0.9-0.6,0.9-1.1,0.1-1.8
		c-0.7-0.6-1.5-1.2-2.2-1.8c0.2-1.1,1.6-1.2,1.8-2.4c-1.7-0.3-3.5,1-5.2-0.4c0.9-1.4,2.7-1.6,3.9-2.9c-1.1-1-2.8-1-4-2
		c1.1-0.6,2.4-0.5,3.5-1.2c-1.5-1.2-3.5-1.1-5-2.5c0.9-0.8,2-1.3,2.6-2.3c0.8-1.2,0.7-1.4-0.7-1.7c-1.6-0.4-3.4-0.5-4.8-1.8
		c1.4-0.7,3.1-1,3.8-2.9c-1.6-0.9-3.3-1.1-5-1.8c-1.6-0.6-3.1-1.3-4.6-2.6c1.6-0.5,3.3,0.2,4.8-1c-2.6-2.5-5.9-4.1-8.1-7.1
		c1.3-0.7,2.8-0.1,4-1.1c-2.2-1.4-4.6-2.2-6.8-3.5c0.5-1,1.6-0.6,2.3-1.3c-1.3-0.9-2.6-1.8-3.8-2.7c-1.3-0.9-2.4-2.1-3.4-3.3
		c-1-1.2-1.8-2.5-2.8-4.3c-1.9,6.5-3.2,12.6-3.2,19c1-0.3,1.1-1.2,2-1.5c-0.4,3.1-0.7,6-1.1,9.1c1.2-0.2,1.8-1.2,3-1.6
		c0.1,2.8-1.5,5.1-1.8,7.7c1.3,0,1.9-1.3,3.2-1.1c0.2,1.2-0.2,2.3-0.5,3.4c-0.5,1.9-1.2,3.8-1.8,5.7c-0.3,1,0,1.3,1.1,1.3
		c0.9-0.1,1.6-0.8,2.6-1c-0.4,2.4-1.6,4.4-2.2,6.7c1.1,0.1,1.5-1.2,2.5-1.1c0.3,0.8-0.2,1.3-0.5,1.9c-0.6,1.3-1.1,2.5-1.3,3.9
		c-0.2,1.2,0,1.4,1.1,1.2c0.8-0.1,1.5-0.6,2.5-0.4c-0.8,2.1-1.7,4.2-1.1,6.6c1.4-0.2,2.3-1.5,3.7-1.9c0.6,1,0,2.4,0.7,3.5
		c1.3-1,1.9-2.6,3.1-3.6c0.1,0,0.3,0,0.4,0.1c0.9,1.9,1.1,2.1,2.9,0.6c0.6-0.5,1.3-1,2.2-1.7c1.4,3.1,3.8,5.7,3.3,9.6
		c-1-0.2-1.7-0.7-2.4-1.1c-0.7-0.4-1.1-0.3-1.3,0.5c-0.3,1.5-0.3,3-1.1,4.4c-0.4,0.8,0.2,1.6,1.2,1.6c0.6,0,1.1-0.1,1.5,0.5
		c0.5,0.8,0.9,1.5,1.3,2.3c0.2,0.3-0.2,0.6-0.4,0.8c-0.7,0.6-0.3,1.2,0,1.9c0.4,0.8,0.9,0.3,1.4,0.1c0.7-0.2,1.2,0.1,1.6,0.7
		c0.6,1.1,1.3,2.1,1.9,3.2c0.8,1.5,0.8,2-0.3,3.3c-0.4,0.5-0.9,1-1.4,1.5c-4.2,3.8-9.3,6.1-14.2,8.8c-0.5-0.8-0.2-1.5-0.2-2.2
		c0.4-4.6,0.8-9.2,1.1-13.7c0.1-0.7,0.1-1.4,0.1-2.1c0-1-0.6-1.5-1.6-1.5c-0.7,0-1.4,0-2.1,0c-17.9,0.8-35.8,1.2-53.7,1.7
		c-12.4,0.3-24.8,0.8-37.2,0.8c-0.3,0-0.7,0-1,0c0,74.2,0,148.4,0,222.6c5-0.6,10.1-1.2,15.1-1.8c7.2-0.9,14.4-1.8,21.6-2.7
		c6-0.7,12-1.4,18-2.1c-1.6,4.9-2,10.1-1,15.2L261,693c-0.1,0-0.3,0-0.4,0.1c-6.7,1.4-12.7,4.9-17.1,10.1c-3-0.6-6.1-0.9-9.3-1
		c-11.5-0.3-22,2.1-30.4,4l-2.4,0.5c-0.3,0.1-0.6,0.1-0.9,0.2c-11.7,3-23.6,6.3-35.2,9.6c-16.2,4.7-25.5,21.6-20.8,37.8l33.7,115.8
		c3.9,13.3,16,22,29.3,22c2.8,0,5.6-0.4,8.4-1.2c11.5-3.3,23.2-6.5,34.7-9.4l1.5-0.4c8.9-2.2,20-4.9,30.4-10.7c0,0,0,0,0,0
		c2.7,0.8,5.5,1.2,8.3,1.2c2,0,4.1-0.2,6.1-0.6c10.1-2,20.3-4,30.4-5.7c2.1-0.4,4.1-0.9,6-1.7c0.5,0,0.9,0,1.4,0
		c1.6,0,3.2-0.1,4.8-0.4c10.1-1.6,20.4-3.1,30.5-4.4c1.6-0.2,3.1-0.5,4.6-1c1.5,0.1,3,0,4.6-0.2c9.6-1.1,19.2-2.1,28.7-3
		c4.4-0.4,8.4-1.7,12-3.8c3.4,1.2,6.9,1.9,10.6,1.9c0.7,0,1.3,0,2-0.1c10.2-0.7,20.5-1.2,30.7-1.6c4.5-0.2,8.8-1.3,12.6-3.2
		c3.8,1.7,8,2.6,12.4,2.6c0.1,0,0.2,0,0.4,0c10.2-0.1,20.6-0.1,30.8,0.1c1.6,0,3.1-0.1,4.6-0.3c1.5,0.3,3,0.4,4.6,0.5
		c10.2,0.3,20.6,0.7,30.7,1.3c0.6,0,1.2,0.1,1.8,0.1c1.5,0,3-0.1,4.4-0.3c1.9,0.5,3.9,0.9,6,1c12.9,1,26,2.1,38.9,3.5
		c6.7,0.7,12,1.1,16.6,1.1c2.3,0,4.4-0.1,6.4-0.3c0.7-0.1,1.5-0.2,2.2-0.3c3.5,2.1,7.3,3.5,11.4,4.1c10.5,1.5,21.1,3.2,31.5,5.1
		c2.5,0.4,4.9,0.6,7.3,0.4c2.2,1,4.5,1.8,7,2.2c10.3,2,20.7,4.2,30.9,6.5c1.8,0.4,3.6,0.6,5.4,0.7c1.6,0.7,3.3,1.3,5.1,1.7
		c9.3,2.3,18.8,4.6,28.1,7.1c2.6,0.7,5.2,1,7.7,1c13.5,0,25.8-9,29.5-22.7l10-37.6c13.5-20.9,27.5-41.9,41.7-62.5
		C856.8,755.2,858.2,744.9,854.9,735.7z M709.5,332.4c0.5,0.7,0.4,1.5,0.5,2.4c0,0.7,0.1,1.5-0.4,2.2c-0.5,0.9-1.3,0.9-1.7,0.1
		c-0.7-1.5-0.7-3,0-4.5C708.2,331.7,709,331.7,709.5,332.4z M687.8,277.9c-0.1-1.2,0-2.3,0.5-3.4c0.2-0.4,0.4-0.8,0.9-0.6
		c0.5,0.1,0.9,0.6,0.7,1c-1.3,2.3,0.1,4.1,1.4,6.2C688.4,280.7,688,280.3,687.8,277.9z M573.7,201.3c0.4-0.2,0.7-0.4,1.1-0.6
		c0.5-0.3,0.9-0.7,1.4-0.1c0.5,0.5,0.5,1.1,0.1,1.6c-1,1.4-2,2.7-3.1,4.2C570.5,203.5,570.5,203.2,573.7,201.3z M579.6,199.8
		c0.1-0.4,0.4-0.7,0.9-0.6c0.4,0.1,0.7,0.5,0.7,0.9c0,0.5,0,1.1-0.1,1.6c-0.8,3.9-1.6,7.8-2.4,11.6c-0.1,0.3,0,0.6-0.5,0.8
		c-0.1-0.1-0.3-0.2-0.4-0.3c-2.7-3-3.1-6.2-0.8-9.7C578,202.8,579,201.4,579.6,199.8z M570.4,194.7c2,0,4.1,0,6.1,0
		c0.8,0,1.5,0,1.8,1c0.2,0.6-0.1,1-0.6,1.4c-0.5,0.3-0.8,1-1.5,0.6c-0.2-0.1-0.4-0.3-0.8-0.5c-0.6,2.8-3,2.4-4.9,2.8
		c-1.8,0.4-2.9-0.7-3.8-2.1c-0.5-0.9-1.1-1.7-1.9-3C567,194.7,568.7,194.7,570.4,194.7z M383.2,248c-1.4-1.7-2.7-3.3-4.1-5
		c0.2-0.2,0.3-0.4,0.4-0.4c3.2-1.1,4.1-0.5,4.1,2.9c0,0.8,0,1.6,0,2.4C383.5,248,383.3,248,383.2,248z M297.7,349.6
		c-0.1,0.2-0.4,0.3-0.5,0.1c-0.9-1.2-2-2.3-2.3-4.3c1.7,1.1,2.2,2.5,3,3.8C298,349.1,297.9,349.4,297.7,349.6z M731.2,477.8
		c-0.4-33.3-0.7-66.6-1-100c0-1.8,0-1.9,1.9-2.1c9.9-1.2,19.9-2.3,29.8-3.6c8-1,16.1-1.9,24.1-2.6c1.6-0.1,3.1-0.2,4.7-0.3
		c1.5-0.1,1.6-0.1,1.6,1.6c0,5,0,10,0,15c0,1.6,0,3.3,0,4.9c0,0,0,0,0,0c0,6,0,11.9,0,17.9c0,1.8,0.2,3.7,0.2,5.5
		c0,1.6,0,1.6-1.5,1.7c-6.6,0.2-13.3,0.5-19.9,0.4c-1.8,0-3.6,0.1-5.3,0.2c-1.4,0.1-1.5,0.1-1.5,1.5c0,2.6,0,5.2,0,7.8
		c0,5.6,0,11.1,0.1,16.7c0,1.8,0,1.8,1.8,1.8c5.8,0.2,11.7,0.1,17.5-0.1c1.1,0,2.2,0,3.3,0c0.7,0,1,0.3,1,1c0,0.3,0,0.7,0,1
		c0.1,10.6-0.2,21.1,0.2,31.7c0.1,1.7,0,1.7-1.7,1.7c-5.4,0-10.8-0.1-16.2-0.3c-1.3,0-2.6,0-3.9,0c-0.8,0-1.1,0.3-1.1,1.1
		c0,0.4,0,0.8,0,1.2c0,7.5,0,15.1,0.5,22.6c0.1,1.7,0.1,1.7,1.7,1.8c7.7,0.5,15.5,1,23.2,1.5c2.1,0.1,1.8,0.3,1.8,1.8
		c-0.4,14.4-0.3,28.8-0.3,43.2c0,0.3,0,0.5,0,0.8c0.1,0.9-0.3,1.2-1.2,1.1c-1.5-0.2-3-0.2-4.5-0.4c-8.8-0.8-17.6-1.6-26.4-2.4
		c-7.5-0.6-15-1.2-22.5-1.8c-1.9-0.2-3.8-0.3-5.7-0.3c-1.1,0-1.4-0.4-1.4-1.5c0.1-4.2,0-8.5,0.3-12.7
		C731.3,516.2,731.4,497,731.2,477.8z M651.3,389.5c9.9-0.5,19.9-0.9,29.8-1.2c12.1-0.5,24.2-1,36.4-1.5c2.2-0.1,4.4-0.1,6.6-0.2
		c1.4,0,1.4,0,1.3,1.4c-0.4,12.5-0.8,24.9-0.6,37.4c0,1.8,0,1.8-1.8,1.8c-5.3-0.1-10.7-0.2-16-0.3c-0.5,0-1,0-1.4,0
		c-0.7,0-1,0.3-1,1c0,0.5,0,1.1,0,1.6c0,19.1-0.1,38.3,0.2,63.9c0.3,12.7,0.3,31.9,0.5,51.1c0,0.2,0,0.4,0,0.6
		c-1.7-0.3-3.5-0.6-5.2-0.9c-3.5-0.6-6.9-0.5-10.3,0.1c-3-1.6-6.3-2.7-9.8-3.2c-3.1-0.4-6.2-0.9-9.3-1.3c0.1-4.7,0.2-9.5,0.2-14.2
		c-0.1-30.9-0.3-61.8-0.4-92.8c0-2,0-2-2.1-2c-5.6,0-11.1,0.1-16.7,0.1c-1.8,0-1.9,0-1.8-1.7c0.2-12.3,0-24.7-0.3-37
		c0-0.3,0-0.7,0-1C649.6,389.6,649.6,389.6,651.3,389.5z M675.5,571.5c1.2,16,2.9,32.3,1.9,48.3c5-15.5,11.2-30.4,17.6-45.4
		c11.5,1.9,22.9,3.9,34.4,6c-13.8,23.4-27.1,47.1-40,71c-2.4,14.4-4.8,28.7-7.2,43.1c-10.4-1.7-20.9-3.3-31.3-4.8
		c2-14.4,4-28.8,6-43.3c-4.8-26.6-10.1-53.2-15.9-79.6C652.5,568.3,664.1,569.8,675.5,571.5z M612.2,383.8
		c9.9-0.1,19.9-0.1,29.8-0.1c1.1,0,2.2-0.1,3.3-0.1c0.7,0,1,0.3,1,1c0,0.3,0,0.7,0,1c0.1,25.9,0.3,51.8,0.4,77.8
		c0.2,24.6,0.2,49.1,0.6,73.7c-0.9-0.1-1.9-0.2-2.8-0.3c-4.8-0.6-9.6,0-14.1,1.7c-0.5-0.2-0.9-0.4-1.4-0.5
		c-5.4-1.9-11.7-3.3-19.2-4.4c0-24,0.1-48,0-72.1c-0.1-24.8-0.5-49.6-0.7-74.5C609.1,383.2,608.6,383.8,612.2,383.8z M595.2,273.8
		c0.2-1,0.6-1.8,1.7-2c1.2-0.2,2.1,0.3,2.6,1.2c0.6,1.3,1.1,2.6,1.8,4.1c-2.2,0.5-3.8-0.4-5.6-0.3c-0.4,0-0.6-0.4-0.6-0.7
		C595.1,275.3,595,274.6,595.2,273.8z M589.6,271.6c1.7-1.1,2.4-0.8,2.8,1.2c0.6,3.5,0.6,3.5-2.9,3.2c-1-0.1-2-0.2-3.4-0.6
		C587.4,274,588.1,272.5,589.6,271.6z M554.8,224.2c0,1.1-0.2,2.1-0.7,3.6c-0.5-2.1-0.9-3.6-1.3-5.2
		C554.6,222.7,554.8,222.8,554.8,224.2z M550.8,215.9c0.3,1.9-0.4,3.6-0.6,5.4c-0.2,1.8-0.5,3.6-0.8,5.7
		C544.8,222.2,546.7,216.8,550.8,215.9z M521,383.2c8-1.6,16-3.3,23.9-4.9c1.1-0.2,2.2-0.4,3.2-0.6c1.5-0.2,1.6-0.2,2,1.3
		c1,3.2,1.9,6.4,2.9,9.6c5.3,17,10,34.2,15.2,51.2c1.7,5.5,3.3,11,5,16.5c0.1,0.3,0.2,0.6,0.7,0.9c0-0.7,0-1.5,0-2.2
		c-0.4-7.7-0.7-15.5-1.2-23.2c-0.4-7.7-0.9-15.5-1.4-23.2c-0.4-6.6-1-13.3-1.5-19.9c-0.3-3.8-0.6-7.5-0.8-11.3
		c-0.1-1.8-0.1-1.9,1.9-1.9c4.9,0,9.7,0.1,14.6,0.1c4.5,0,9.1,0,13.6-0.1c2.3,0,2.3,0,2.3,2.2c0,10.6-0.1,21.1-0.1,31.7
		c0,23.2-0.1,46.4-0.1,69.5c0,17.8,0,35.6,0.2,53.4c-1.2-0.1-2.4-0.2-3.6-0.3c0,0-0.1,0-0.1,0c-8.9-0.7-17.9-1.2-26.9-1.8
		c-0.5-1.6-1-3.3-1.4-4.9c-2.4-8.6-5.7-16.9-8.5-25.3c-3.8-11.4-7.2-23-10.8-34.5c-0.3-0.8-0.6-1.7-0.8-2.5c-0.5,4.3-0.1,8.6,0,12.9
		c0.4,12.1,0.8,24.3,1.3,36.4c0.2,5.9,0.6,11.9,0.9,17.8c-3.4,0.7-6.7,1.9-9.7,3.7c-2.3-0.9-4.6-1.6-7.1-2.3
		c-4.8-1.3-10.3-2.2-16.6-2.7c0.1-11.1,0.2-22.2,0.2-33.3c0-36.3-0.1-72.6-0.2-108.8C518.2,383.8,518.2,383.8,521,383.2z M527,561.1
		c5.5,1.5,9.6,3.5,12.3,6.1c2.7,2.6,4.4,5.8,5.3,9.4c0.8,3.6,1.1,9.2,0.8,16.8c-0.2,4.2-0.2,6.3-0.4,10.5
		c-0.3,7.7-1.4,13.3-3.4,16.7c-1.9,3.5-5.4,6-10.2,7.8c-4.9,1.8-11.2,2.6-19,2.5c-3.8,0-5.7-0.1-9.6-0.1c0,16.2-0.1,32.4-0.1,48.6
		c-11.4,0-22.7,0.1-34.1,0.4c-1.1-40.2-2.3-80.4-3.4-120.6c12.7-0.3,25.4-0.5,38.1-0.5C513.5,558.8,521.5,559.7,527,561.1z
		 M442.3,378c5.5,0.4,11.1,0.9,16.6,1.4c5.3,0.5,10.6,0.9,16,1.4c8.2,0.8,16.4,1.6,24.6,2.4c4.8,0.5,9.7,1,14.5,1.7
		c1.6,0.2,1.6,0.3,1.6,1.7c-0.4,12.5-0.3,25-0.2,37.4c0,3.2,0.4,2.8-2.9,2.8c-4.7,0-9.5-0.2-14.2-0.2c-1.9,0-1.9,0-1.9,1.9
		c0,16.9,0,33.7,0.1,50.6c0.1,16.4,0.4,32.7,0.6,49.1c-10.9,0.1-21.8,0.2-32.7,0.5c-1.4,0-2.9,0.2-4.3,0.4c0.1-17.1,0.1-34.6,0-57.7
		c0-12.3-0.1-31.1-0.3-50c0-0.3,0-0.6,0-0.8c0.1-1-0.3-1.4-1.3-1.3c-2.1,0.1-4.3,0.1-6.4,0.1c-3.3,0-6.6,0.1-9.9,0.1
		c-1.5,0-1.5,0-1.5-1.4c0.1-12.8,0-25.6-0.3-38.5C440.4,377.9,440.4,377.9,442.3,378z M462.8,680.1c-11.6,0.4-23.2,1-34.8,1.7
		c-1.3-8.6-2-12.9-3.3-21.5c-5,0.3-7.4,0.5-12.4,0.9c-0.2,8.7-0.2,13.1-0.4,21.8c-11.7,0.9-23.4,2.1-35.1,3.4
		c1.3-40.7,3.3-81.3,5.8-121.9c18.2-1.7,36.3-3,54.6-4C446.3,600.2,454.9,640,462.8,680.1z M360.5,309.8c0.1-0.1,0.5-0.1,0.6,0
		c0.6,0.6,0.2,1.2-0.3,1.9C360.3,311,359.9,310.4,360.5,309.8z M365.1,378.8c11.4-0.1,22.8-0.1,34.1,0.4c3.3,0.1,6.6,0.6,9.8,1.4
		c5.4,1.3,10,4.1,13.7,8.2c8.3,9,14,19.4,16.3,31.5c1.3,7.1,1.2,14.2,0.8,21.3c-0.2,3.6-0.7,7.2-1.7,10.7c-2.2,8.2-6.5,15.2-12.7,21
		c-1,1-1.2,1.8-0.8,3c3.6,13.1,7.3,26.3,11.5,39.2c1.6,4.8,3.1,9.7,4.6,14.5c-1.7-0.2-3.5-0.3-5.2-0.2c-10.3,0.6-20.7,1.3-31.1,2.1
		c-0.6-2.7-1.2-5.5-1.8-8.2c-2.9-11.8-5.4-23.6-8.3-35.4c-0.2-0.7,0-1.7-1.3-1.7c-1.8,0-1.9,0.1-1.9,1.9c0.2,10.5,0.3,21,0.5,31.5
		c0.1,4.3,0.2,8.6,0.2,12.9c-4,0.3-8,0.7-12.1,1.1c-3.4,0.3-6.5,1.2-9.5,2.5c-2,0-4,0-6,0c-2.2,0-4.4,0.1-6.6,0.2
		c-0.1,0-0.1,0-0.2,0c-0.5,0-1,0-1.5,0c-0.8-0.1-0.8-0.5-0.8-2.3c0.1-13.2,0.2-26.3,0.4-39.5c0.2-16.6,0.3-33.2,0.4-49.8
		c0.1-19.4,0.4-38.8,0.7-58.2c0-2,0-4,0-6c0-1.5,0.1-1.7,1.6-1.8C360.6,379.1,362.8,378.9,365.1,378.8z M357.9,320.9
		c-0.1,0.4-0.1,0.9-0.5,1c-0.2,0.1-0.4-0.2-0.5-0.5c0-0.4,0.1-0.8,0.5-1C357.7,320.4,358,320.6,357.9,320.9z M355.7,312.3
		c0.4-0.1,0.6,0.2,0.7,0.5c0.3,1.3,0.7,2.6,0.9,3.7c0,0.8,0,1.3-0.6,1.4c-0.5,0.1-0.6-0.4-0.7-0.8c-0.3-1.3-0.6-2.7-0.8-4
		C355.2,312.8,355.3,312.4,355.7,312.3z M356.8,567.2c4.7,39.9,9.4,79.9,14.1,119.8c-11.3,1.3-22.6,2.8-33.9,4.5
		c-2.5-16.7-5-33.4-7.5-50.1c-4.2,0.6-6.4,1-10.6,1.6c2.6,16.7,5.3,33.4,7.9,50c-11.3,1.8-22.5,3.8-33.7,5.9
		c-7.5-39.5-15.1-79-22.6-118.5c12.4-2.3,24.9-4.5,37.4-6.5c2.3,14.2,4.5,28.4,6.8,42.6c4.3-0.7,6.5-1,10.8-1.7
		c-2.1-14.2-4.2-28.4-6.4-42.7C331.7,570.4,344.2,568.7,356.8,567.2z M350.5,314.4c0.5-0.1,0.7,0.3,0.8,0.7c0.3,1.4,0.6,2.8,0.8,4.2
		c0,0.5,0,0.9-0.5,1c-0.6,0.2-0.6-0.4-0.7-0.7c-0.4-1.2-0.7-2.3-1-3.5c-0.1-0.3-0.1-0.5-0.1-0.8
		C349.8,314.8,350.1,314.5,350.5,314.4z M345.2,316.9c1.3,1.5,1.3,3.3,1.7,5.1c0,0.2-0.1,0.4-0.3,0.4c-0.2,0.1-0.5-0.1-0.5-0.2
		C345.6,320.5,345.1,318.8,345.2,316.9z M340.3,318.8c0.4-0.1,0.6,0.3,0.7,0.6c0.4,1.5,0.7,3.1,1,4.6c0.1,0.3,0,0.7-0.4,0.8
		c-0.5,0.1-0.6-0.3-0.7-0.6c-0.4-1.5-0.8-3-1.1-4.4C340,319.3,339.9,318.9,340.3,318.8z M335.3,320.9c0.5-0.1,0.6,0.4,0.7,0.8
		c0.4,1.5,0.7,3.1,1.1,4.5c0,0.4,0,0.8-0.5,0.9c-0.4,0-0.6-0.3-0.7-0.6c-0.4-1.4-0.9-2.9-1.3-4.3
		C334.5,321.6,334.6,321.1,335.3,320.9z M332.1,332.5c0-0.3,0.1-0.5,0.4-0.6c0.3,0,0.5,0.1,0.7,0.3c0.1,0.2,0.2,0.5,0.3,0.8
		c0.4,0.8,1,1,1.9,0.5c0.3-0.2,0.6-0.4,0.9-0.5c1.1-0.4,1.6-1,1.1-2.2c-0.1-0.2-0.2-0.5,0.2-0.9c0.7,1.2,1.7,1.5,3,0.9
		c1.1-0.5,1.8-0.9,1.4-2.2c0-0.1,0-0.3,0-0.4c0-0.3,0-0.7,0.5-0.8c0.3-0.1,0.5,0.2,0.6,0.4c0.1,0.2,0.2,0.4,0.2,0.6
		c0.4,1,1.1,1.1,2,0.6c0.2-0.1,0.5-0.2,0.7-0.3c1.4-0.6,1.4-0.6,1.1-2c-0.1-0.3-0.1-0.5-0.2-0.8c0-0.3,0.1-0.5,0.4-0.6
		c0.3-0.1,0.5,0.1,0.7,0.3c0.1,0.2,0.1,0.5,0.2,0.8c0.3,0.9,0.8,1.2,1.7,0.7c0.3-0.2,0.6-0.3,0.9-0.5c1.5-0.6,1.5-0.6,1.2-2.1
		c-0.1-0.3-0.2-0.5-0.2-0.8c0-0.4,0.1-0.7,0.5-0.7c0.3,0,0.5,0.2,0.6,0.5c0.2,1.1,0.1,2.2,1.6,2.5c0.3,0.1,0.2,0.7-0.1,0.8
		c-0.4,0.3-0.8,0.4-1.3,0.6c-6.1,2.3-12.2,4.8-18.1,7.7c-2,1-2.6,0.7-2.9-1.6C332.1,333.2,332.1,332.9,332.1,332.5z M329.8,323.3
		c0.5-0.2,0.7,0.3,0.9,0.7c0.5,1.6,1.1,3.2,1.5,4.5c0.1,1-0.2,1.2-0.6,1.3c-0.4,0.1-0.6-0.2-0.7-0.5c-0.5-1.6-1-3.1-1.5-4.7
		C329.1,324,329.2,323.5,329.8,323.3z M323.9,325.9c0.3-0.1,0.5,0.2,0.6,0.4c0.3,1.2,0.8,2.3,0.5,4c-0.9-1.4-1.2-2.5-1.5-3.6
		C323.4,326.3,323.5,326,323.9,325.9z M318.5,329.1c0.2-0.2,0.5-0.3,0.8-0.5c1.4,2.3,2.2,4.6,3.2,6.9c0.2,0.5,0.2,1-0.3,1.2
		c-0.5,0.2-0.8-0.2-1-0.5c-1.1-1.5-2.1-3-3.1-4.6C317.2,330.1,317.2,330.1,318.5,329.1z M309.7,335.4c0.8-0.9,1.7-1.7,2.9-2.2
		c0.7-0.3,1.2,0.1,1.6,0.6c1.1,1.5,2.1,3,3.2,4.5c0.2,0.3,0.4,0.6,0,0.9c-1.4,0.8-2.8,1.7-4.3,2.1c-0.9,0.1-1.5-0.3-1.8-1
		c-0.6-1.2-1.1-2.5-1.7-3.7C309.5,336.2,309.5,335.7,309.7,335.4z M305,338.7c0.3-0.2,0.7-0.2,0.9,0.1c0.9,1.6,1.7,3.2,2.3,4.6
		c0.1,0.7-0.1,0.9-0.4,1c-0.3,0.1-0.6,0-0.7-0.2c-1-1.5-1.8-3-2.5-4.6C304.5,339.2,304.7,338.9,305,338.7z M305.3,349.9
		c0.8,0.7,1.6,0.9,2.6,0.3c1.1-0.7,1.3-1.2,0.9-2.5c-0.1-0.4-0.3-0.8,0.2-1.1c0.5-0.3,0.8,0.1,1,0.4c0.5,0.8,1,0.6,1.7,0.1
		c1-0.7,2.3-1,2-2.7c0-0.1,0-0.1,0-0.2c0.4-0.9,4.2-3.1,5.2-2.8c1.6,0.5,2.6-0.1,3.5-1.3c0.1-0.2,0.2-0.3,0.4-0.5
		c0.3-0.3,0.5-1,1.1-0.7c0.6,0.3,0.6,1,0.4,1.6c-0.2,0.6-0.8,1-1.3,1.3c-5.6,3.2-10.7,7.1-15.7,11.2c-1.2,0.9-1.2,0.9-1.9-0.4
		c-0.6-1-1.2-2.1-1.4-3.3C304.8,349,305,349.6,305.3,349.9z M302.7,346.2c-1.2-0.8-1.5-2-1.7-3.2C302,343.8,302.4,345,302.7,346.2z
		 M301.2,355.5c-0.9-1-1.8-2-2-3.4C300.5,352.9,300.7,354.3,301.2,355.5z M283.7,386.8c4.7-4.5,10.3-7.1,16.8-8.1
		c5.9-0.9,11.7-0.8,17.6,0.4c8.7,1.7,15.5,6.4,20.6,13.6c4.2,5.8,6.5,12.5,8.3,19.3c1.9,7.2,2.7,14.5,3.3,21.9
		c0.9,11.6,1.2,23.3,0.9,34.9c-0.4,13.2-1.5,26.4-4.9,39.3c-1.3,4.8-3,9.5-5.4,13.9c-5.7,10.6-14.6,16.4-26.5,17.7
		c-5.4,0.6-10.7,0.5-15.9-0.7c-10.1-2.3-17.2-8.4-22.2-17.2c-3.9-6.8-6.2-14.2-7.7-21.8c-1.8-8.8-2.6-17.7-3-26.7
		c-0.2-4.4-0.2-8.8-0.3-12.3c0.1-11.1,0.5-21.3,1.7-31.4c1.2-10,3.1-19.9,7.4-29.1C276.5,395.4,279.6,390.7,283.7,386.8z M246,410.1
		c-2.7,0-5.3,0.1-8,0.2c-1.6,0.1-1.6,0.1-1.6,1.8c0,8.8,0,17.6,0,26.3c0,1.9,0,2,1.9,2c6.5,0.1,13-0.1,19.5-0.4
		c1.8-0.1,1.8-0.1,1.8,1.7c0.1,9.9,0,19.7-0.6,29.6c-0.1,2.5-0.2,4.9,0.1,7.4c0.1,0.4,0,0.8,0,1.2c0,0.6-0.2,0.9-0.9,0.9
		c-0.3,0-0.5,0-0.8,0c-6.2-0.4-12.3-0.1-18.5,0c-2,0.1-2,0.1-2,2.1c0.2,15.9,0.3,31.8,0.5,47.7c0.1,6.2,0,12.3,0.3,18.5
		c0.1,1.6,0,1.6-1.8,2.1c-9,2.2-18.1,4.4-27.1,6.6c-2.6,0.6-5.2,1.3-7.7,1.9c-0.6-0.8-0.4-1.5-0.4-2.1c-0.1-26.4-0.1-52.8-0.3-79.2
		c-0.2-27.5-0.5-55-0.9-82.5c-0.1-9.1-0.3-18.2-0.5-27.4c0-2,0-2,2.1-2c10.9,0,21.8,0.1,32.7,0.3c10.4,0.2,20.7,0,31.1,0
		c0.2,0,0.4,0,0.6,0c1.4,0,1.5,0.1,1.4,1.5c-0.3,4-0.2,8-0.2,11.9c-0.1,9.1-0.1,18.2-0.1,27.4c0,2.4,0.3,2.4-2.4,2.2
		C258.2,409.6,252.1,410,246,410.1z M274.6,834.1c-1,4.2-3.5,7.8-7.1,9.8c-7.1,4-16,6-24.3,8c-11.9,3.1-23.8,6.3-35.7,9.7
		c-11.2-38.6-22.4-77.2-33.7-115.8c11.4-3.3,22.8-6.4,34.3-9.4c8.3-1.9,16.8-4.1,25.3-3.8c5.9,0.2,11.2,2.2,15.6,6
		c4.4,3.8,7.7,10.8,10,21c1.5,6.9,1.4,11.9-0.4,15.2c-1.7,3.2-5.9,6.3-12.4,9.4c8-0.2,13.8,1.3,17.3,4.5c3.5,3.1,6.1,8.5,7.7,16.2
		c0.9,4.4,1.4,6.6,2.4,10.9C275.3,823.8,275.7,829.9,274.6,834.1z M290.8,841.2c-8-39.4-16.1-78.8-24.1-118.2
		c11.6-2.4,23.2-4.5,34.9-6.6c6.8,39.6,13.7,79.2,20.5,118.9C311.6,837.1,301.1,839.1,290.8,841.2z M375.6,827.5
		c-1.6-13.3-3.2-26.5-4.8-39.8c-0.8-6.4-1.8-10.3-3-11.7c-1.3-1.4-4.2-1.8-8.7-1.2c2.3,18,4.6,36,6.9,53.9
		c-10.5,1.4-21,2.9-31.4,4.5c-6.3-39.7-12.7-79.4-19-119.1c8.2-1.3,16.5-2.6,24.8-3.7c11.2-1.5,22.7-3.2,33.9-2.4
		c5.9,0.4,11.1,2.9,15.2,7.2c4.1,4.3,6.6,11.6,7.5,21.9c0.9,9.3,0.2,15.7-2,19.2c-2.2,3.5-6.9,5.8-14.2,7.3
		c6.8,0.8,11.4,2.4,13.9,4.8c2.5,2.4,4.1,4.6,4.9,6.7c0.7,2.1,1.6,8,2.4,17.7c1,10.6,1.9,21.1,2.9,31.7
		C395.2,825.3,385.4,826.4,375.6,827.5z M458.6,724.3c1.2,32.1,2.3,64.3,3.5,96.4c-10.6,0.4-21.1,0.9-31.7,1.6
		c-2.1-32.1-4.3-64.2-6.4-96.3c-8.2,0.5-12.3,0.9-20.4,1.5c-0.8-9.6-1.2-14.4-2-24.1c25.7-2,51.4-3.4,77.1-4
		c0.2,9.7,0.3,14.5,0.4,24.1C471,723.9,466.8,724,458.6,724.3z M561,821.8c-10.5-0.6-21.1-1.1-31.7-1.4c0.5-16.9,0.9-33.8,1.4-50.6
		c-4-0.1-6-0.2-9.9-0.2c-0.3,16.9-0.6,33.8-1,50.7c-10.6-0.2-21.1-0.2-31.7-0.1c-0.5-40.2-0.9-80.4-1.4-120.6
		c11.8-0.1,23.6-0.1,35.3,0.1c-0.3,14.4-0.5,28.8-0.8,43.1c4.1,0.1,6.1,0.1,10.2,0.2c0.4-14.4,0.8-28.7,1.2-43.1
		c11.8,0.3,23.5,0.8,35.3,1.5C565.7,741.6,563.3,781.7,561,821.8z M551.8,680.7c1.9-40.2,3.8-80.3,5.7-120.5
		c12.7,0.6,25.4,1.4,38,2.4c10.3,0.8,18.1,2.2,23.5,4.1c5.4,1.9,9.3,4.2,11.8,7.1c2.5,2.8,4,6.1,4.6,9.8c0.6,3.7,0.4,9.3-0.4,16.8
		c-0.5,4.2-0.7,6.3-1.2,10.4c-0.9,7.7-2.4,13.1-4.6,16.4c-2.2,3.3-5.8,5.6-10.8,7c-5,1.4-11.4,1.7-19.1,1c-3.8-0.3-5.7-0.5-9.5-0.8
		c-1.3,16.1-2.5,32.3-3.8,48.4C574.5,681.9,563.2,681.2,551.8,680.7z M640.6,823.9c-2.8,1.7-6.2,2.7-10,3.1
		c-3.8,0.3-9.5,0.1-17.1-0.8c-13.3-1.4-26.5-2.6-39.8-3.6c2.8-40.1,5.7-80.2,8.5-120.3c8.8,0.6,17.6,1.3,26.4,2.2
		c11.4,1.1,23.5,2.1,34.2,5.8c5.7,2,10,5,12.7,8.6c2.7,3.6,4.1,7.3,4.3,11.3c0.2,4-0.5,11.6-2.1,22.9c-2,13.9-3.9,27.9-5.9,41.8
		c-1.5,10.7-3.1,17.8-4.6,21.3C645.6,819.7,643.4,822.2,640.6,823.9z M730.4,845.7c-10.6-2.4-21.2-4.6-31.9-6.7
		c1-8.6,1.4-13,2.4-21.6c-4.6-0.9-6.8-1.3-11.4-2.1c-2.3,8.4-3.4,12.6-5.7,21c-10.8-1.9-21.6-3.7-32.4-5.3
		c11.2-39,23-77.9,35.3-116.6c16.9,2.8,33.7,5.9,50.4,9.3C735.4,764.4,733.2,805.1,730.4,845.7z M781.3,813.3
		c-3.7,14.1-7.5,28.1-11.2,42.2c-9.5-2.5-19.1-4.9-28.7-7.2c3.4-14.2,6.7-28.3,10.1-42.5c-1.8-26.8-4-53.6-6.7-80.4
		c10.6,2.3,21.3,4.7,31.8,7.3c-0.5,16-0.7,32.3-3.2,48.2c6.3-14.9,13.6-29.3,21.2-43.6c10.6,2.8,21.1,5.6,31.6,8.7
		C810.8,768.1,795.8,790.5,781.3,813.3z"/>
	<path d="M238.2,808.8c-1.2-5-2.6-7.9-4-8.7c-1.4-0.8-4.5-0.6-9.4,0.5c2.8,10.9,5.6,21.8,8.4,32.7c4.4-1.3,7.1-2.7,8-4.2
		c0.9-1.5,0.8-4.6-0.4-9.4C239.8,815.4,239.2,813.2,238.2,808.8z"/>
	<path d="M502.8,610.1c1,0.1,1.9,0.1,2.7,0.1c3.3,0,5.6-0.7,7-2.1c1.3-1.4,2-4.3,2-8.8c0-4,0.1-5.9,0.1-9.9c0.1-4.1-0.7-6.8-2.2-8.1
		c-1.5-1.3-4.7-1.9-9.5-1.9C502.9,589.7,502.9,599.9,502.8,610.1z"/>
</g>
</svg>
