<?xml version="1.0" encoding="utf-8"?>
<!-- Generator: Adobe Illustrator 25.4.1, SVG Export Plug-In . SVG Version: 6.00 Build 0)  -->
<svg version="1.1" id="Layer_1" xmlns="http://www.w3.org/2000/svg" xmlns:xlink="http://www.w3.org/1999/xlink" x="0px" y="0px"
	 viewBox="0 0 1000 1000" style="enable-background:new 0 0 1000 1000;" xml:space="preserve">
<style type="text/css">
	.st0{fill:#414042;}
	.st1{fill:url(#SVGID_1_);}
	.st2{fill:#FFFFFF;}
	.st3{fill:url(#SVGID_00000160170296943407698840000006639690022460531369_);}
	.st4{fill:#754C29;}
	.st5{fill:url(#SVGID_00000175313050781883063590000004651703175830177415_);}
	.st6{fill:#363F45;}
	.st7{clip-path:url(#SVGID_00000034787272368631551060000008054190016226927027_);}
	.st8{opacity:0.25;clip-path:url(#SVGID_00000090273817985066915480000004259915594130253221_);}
	.st9{fill:#414141;}
	.st10{fill:#939598;}
	.st11{fill:url(#SVGID_00000030471295998860356090000001195007564921228456_);}
	.st12{fill:url(#SVGID_00000068643004323816398540000010531482434008689284_);}
	.st13{fill:url(#SVGID_00000048473948376757150780000016824886738571878025_);}
</style>
<g>
	<path d="M465.2,698.4v36.5c1.1,0.1,2,0.1,2.7,0.1c3.4,0,5.8-0.8,7.1-2.5c1.3-1.7,2-5.2,2-10.5v-11.8c0-4.9-0.8-8.1-2.3-9.6
		C473.2,699.1,470,698.4,465.2,698.4z"/>
	<path d="M396.7,542.5c-1.5-2.5-3.7-4-6.5-4.6c-1.1-0.3-1.3,0-1.3,1.1c0,6.2,0,12.4,0,18.6c0,5.6,0,11.3,0,16.9c0,1-0.5,2.6,0.2,2.9
		c0.9,0.4,2.1-0.5,3.1-1.1c4-2.4,5.9-6.3,6.9-10.6c1-4.4,0.7-8.8,0.6-13.3C399.7,548.8,398.5,545.5,396.7,542.5z"/>
	<path d="M304.8,557.7c-0.2-5.2-0.5-10.5-1.5-15.6c-0.4-2.2-0.8-4.3-2.2-6.1c-1.1-1.4-2-1.4-3.1,0c-0.8,1-1.2,2.2-1.5,3.4
		c-1.4,5.1-1.9,10.3-2.1,15.5c-0.5,12.9-0.4,25.9-0.3,38.8c0.1,7.8,0.4,15.7,2,23.4c0.4,1.7,0.8,3.3,1.8,4.7c1,1.4,2.4,1.4,3.4,0
		c0.6-0.8,0.9-1.7,1.2-2.6c1-3.5,1.5-7,1.8-10.6c0.8-10.1,1-20.1,0.9-31.3C305.3,571.5,305.1,564.6,304.8,557.7z"/>
	<path d="M501.3,214.7c-3.8,27.5-6.2,47.6-7.2,60.3H507C505.1,258.7,503.2,238.6,501.3,214.7z"/>
	<path d="M842.4,595.5c0-8.4-0.1-19.6,0-30.8c0-3.3-0.4-6.6-1.3-9.6c3.4-5.2,5.4-11.4,5.3-18.3c-0.1-4.6-0.1-9.3,0-14.1
		c0-1.7,0-3.5,0-5.2l0-5c0-5,0-10,0-14.9c0.1-9-3.5-17.3-9.9-23.2c-6.4-6-14.9-8.8-23.9-8c-3.9,0.3-7.9,0.7-11.8,1
		c-2.7,0.2-5.3,0.4-8,0.6c-4.1,0.3-8.2,0.7-12.4,1c-3.8,0.3-7.5,0.6-11.3,0.9c-6.6,0.5-13.1,1.1-19.7,1.6c-9,0.7-16.7,4.9-22,11.3
		c-0.7,0-1.4,0.1-2.1,0.1l-39.3,2.1v-28.7c4.3-1,8.3-2.3,12-3.9c11.8-5.2,20.7-13.8,25.6-24.8c3.7-8.3,5.5-18.6,5.5-32.4v-12.5
		c0-11.5-0.7-19.9-2.2-26.6c-2.1-9.4-6.4-17.6-12.7-24.5c-6.5-7.1-15.3-12.3-26.1-15.5c-8.3-2.4-18.7-3.6-31.9-3.6h-29v-72
		c12.8-3.4,22.2-15.1,22.2-29v-28.7c0-16.6-13.4-30-30-30H538c-1.9,0-3.8,0.2-5.6,0.5c-1.8-0.3-3.7-0.5-5.6-0.5h-53.9
		c-4.2,0-8.2,0.9-11.9,2.5c-3.6-1.6-7.7-2.5-11.9-2.5h-62.2c-16.6,0-30,13.4-30,30v127.7c-4.6-0.6-9.4-1-14.4-1
		c-13.2,0-25,2.4-35.2,7c-12.2,5.6-21.4,13.9-27.4,24.7c-5.4,9.8-8,22.1-8,38.6c0,11.6,1.7,21.4,5.1,30c0.8,2,1.7,4,2.7,5.9
		c-4.2,5.2-6.7,11.7-6.7,18.9v9.4c0,10.7,0.9,19.7,2.8,27.5c-5.5-5-12.7-7.8-20.2-7.8h-72c-16.6,0-30,13.4-30,30v176
		c0,8.7,3.7,16.9,10.3,22.6c5.7,5,12.9,7.6,20.5,7.6c2.1,0,4.2-0.2,6.3-0.6l7.5-1.4c8.7-1.6,17.6-3.3,26.5-4.9v124.4
		c0,16.6,13.4,30,30,30h37.3c1.9,0,3.8-0.2,5.7-0.5c1.8,0.4,3.7,0.5,5.7,0.5H338c2.5,0,4.9-0.3,7.2-0.9c2.3,0.6,4.7,0.9,7.2,0.9
		h64.7c1.8,0,3.6-0.2,5.4-0.5c1.7,0.3,3.5,0.5,5.4,0.5h37.3c11.8,0,22-6.8,26.9-16.7c4.9,9.9,15.1,16.7,26.9,16.7h64.7
		c0.4,0,0.8,0,1.2,0c0.4,0,0.7,0,1.1,0h38.6c3.1,0,6-0.5,8.8-1.3c2.8,0.9,5.7,1.3,8.8,1.3h38.1c2,0,4-0.2,6-0.6c2,0.4,4,0.6,6,0.6
		h37.3c16.6,0,30-13.4,30-30v-85.8c12.8-3.4,22.2-15.1,22.2-29v-9.3c1.2,0.1,2.4,0.2,3.6,0.3c3.3,0.2,6.6,0.5,10,0.7
		c4.7,0.3,9.1,0.6,13.5,0.9l0.2,0c1.2,0.1,2.8,0.2,4.7,0.2c5.9,0,14.4-1.2,22.2-8.4c10.2-9.4,10.3-21.2,10.3-26.2
		c0-4.9,0-9.7,0-14.6c0-6.2,0-12.4,0-18.6c0-7.2-2.2-14-6.4-19.5C841.5,604.6,842.5,600.4,842.4,595.5z M690.5,514.6
		c10.5-0.6,21.1-1.1,31.6-1.7c6.9-0.4,13.8-0.7,20.7-1.1c1.1-0.1,2.5-0.8,3.1,0c0.6,0.7,0.3,2.1,0.3,3.2c0.3,10.9,0.1,21.8,0.2,32.7
		c0,1.1-0.3,1.4-1.4,1.4c-6.1,0-12.1,0-18.2,0c-2.3,0-2-0.2-2,2c0,17.6,0,35.3,0,52.9c0,17.7,0,35.4,0,53.1c0,1.4-0.4,1.7-1.7,1.7
		c-11.9-0.1-23.7-0.1-35.6,0c-1.4,0-1.7-0.5-1.7-1.8c0-33.9,0-67.7,0.1-101.6c0-1.4-0.3-1.9-1.8-1.9c-5.8,0.1-11.5,0-17.3,0.1
		c-1,0-1.4-0.2-1.4-1.3c0-10.5,0-21.1,0-31.6c0-1.2,0.2-2.4,0.2-3.6c0-0.9,0.5-1.2,1.3-1.2C674.8,515.5,682.7,515,690.5,514.6z
		 M656.4,342.4c10.2,0,18,0.8,23.4,2.4c5.5,1.6,9.6,3.9,12.3,6.9c2.7,3,4.6,6.7,5.6,10.9c1,4.3,1.5,10.9,1.5,19.9v12.5
		c0,9.2-0.9,15.8-2.8,20c-1.9,4.2-5.4,7.4-10.4,9.7c-5.1,2.2-11.7,3.4-19.8,3.4h-10v57.8h-37.3V342.4H656.4z M661.2,652.2
		c0,1.4-0.3,1.8-1.8,1.8c-12.1-0.1-24.1-0.1-36.2,0c-1.4,0-1.8-0.4-1.8-1.8c0-23.6,0-47.2,0-70.7c0-23.5,0-47.1,0-70.6
		c0-2.3-0.2-2,2-2c12,0,24,0,36,0c1.4,0,1.7,0.3,1.7,1.7C661.1,557.7,661.1,605,661.2,652.2z M538,182.7h81.6v28.7h-22.2v114.8
		h-37.3V211.4H538V182.7z M604,398.3v27.3h-23.3v31.6h27.4v28.7h-64.7V342.4h62.2v28.7h-24.9v27.2H604z M472.8,182.7h53.9
		l21.3,143.5H510l-2-25.8h-13.3l-2.2,25.8h-38.6L472.8,182.7z M528.5,398.3v27.3h-23.3v31.6h27.4v28.7h-64.7V342.4h62.2v28.7h-24.9
		v27.2H528.5z M458.9,457.2v28.7h-60V342.4h37.3v114.8H458.9z M386.8,182.7H449v28.7h-24.9v27.2h23.3v27.3h-23.3v31.6h27.4v28.7
		h-64.7V182.7z M306.1,355.6c2.8-5.1,7.3-9.1,13.6-11.9c6.3-2.9,13.8-4.3,22.7-4.3c9.7,0,18,1.6,24.8,4.7
		c6.8,3.1,11.3,7.1,13.6,11.8c2.2,4.8,3.3,12.8,3.3,24.2v5.7h-34.7v-10.6c0-5-0.4-8.1-1.3-9.5c-0.9-1.4-2.4-2-4.4-2
		c-2.2,0-3.9,0.9-5.1,2.8c-1.2,1.8-1.7,4.6-1.7,8.3c0,4.8,0.6,8.4,1.9,10.8c1.2,2.4,4.8,5.4,10.5,8.8c16.6,9.9,27.1,18,31.4,24.3
		c4.3,6.3,6.5,16.5,6.5,30.6c0,10.2-1.2,17.8-3.6,22.6c-2.4,4.8-7,8.9-13.9,12.2s-14.8,4.9-23.9,4.9c-10,0-18.5-1.9-25.6-5.7
		c-7.1-3.8-11.7-8.6-13.9-14.4c-2.2-5.9-3.3-14.2-3.3-24.9v-9.4h34.7V452c0,5.4,0.5,8.8,1.5,10.4c1,1.5,2.7,2.3,5.2,2.3
		c2.5,0,4.3-1,5.5-2.9c1.2-2,1.8-4.8,1.8-8.7c0-8.5-1.2-14-3.5-16.6c-2.4-2.6-8.2-6.9-17.5-13c-9.3-6.1-15.4-10.6-18.4-13.4
		c-3-2.8-5.5-6.6-7.5-11.5c-2-4.9-3-11.2-3-18.8C301.9,368.7,303.3,360.7,306.1,355.6z M250.5,531.9c-8.7,0-17.3,0.1-26,0
		c-1.3,0-1.7,0.3-1.7,1.7c0.1,8.4,0.1,16.8,0,25.2c0,1.2,0.3,1.6,1.6,1.6c7.3-0.1,14.6,0,21.9-0.1c1.4,0,1.9,0.3,1.8,1.8
		c-0.2,8-0.3,16-0.4,24c0,3.3-0.1,6.7,0,10c0,1.4-0.3,1.9-1.8,1.8c-7.2-0.1-14.3,0-21.5-0.1c-1.4,0-1.6,0.4-1.6,1.7
		c0,20.4,0,40.9,0.1,61.3c0,1.5-0.5,1.9-1.8,2.2c-12,2.2-24,4.5-36.1,6.7c-0.5,0.1-1,0.2-1.4-0.1c0-58.7,0-117.3,0-176
		c24,0,48,0,72,0c-0.5,5.4-1,10.8-1.6,16.2c-0.7,6.9-1.4,13.8-2,20.7C252,531.7,251.6,531.9,250.5,531.9z M332.3,749.8
		c2.5,3.1,4.1,5.9,4.7,8.5c0.6,2.6,0.9,9.6,0.9,21.2v37.9h-34.7v-47.7c0-7.7-0.6-12.4-1.8-14.3c-1.2-1.8-4.4-2.7-9.5-2.7v64.7h-37.3
		V673.8H281c17.6,0,29.5,0.7,35.8,2c6.2,1.4,11.3,4.8,15.2,10.4c3.9,5.6,5.9,14.5,5.9,26.7c0,11.2-1.4,18.7-4.2,22.5
		c-2.8,3.8-8.2,6.1-16.4,6.9C324.8,744.2,329.7,746.7,332.3,749.8z M346.8,582.7c-0.3,13-1.5,25.8-5.3,38.3
		c-2.9,9.8-8,18.1-16.1,24.4c-5,3.9-10.8,6-17,6.9c-8.5,1.3-16.8,0.8-25-2.1c-8.1-2.9-14.2-8.2-18.7-15.4c-4.8-7.6-7.3-16-9-24.7
		c-2.1-11-2.7-22.1-2.4-33.2c0.2-8,0.1-16,1.2-23.9c1.6-11.5,4.4-22.6,11.1-32.4c6.7-9.7,16.1-14.7,27.7-16
		c6.4-0.7,12.7-0.6,18.9,0.9c12.7,3,21.2,11.1,26.6,22.8c3.4,7.4,5.2,15.3,6.3,23.3C346.4,562,347,572.3,346.8,582.7z M417.1,817.3
		h-64.7V673.8h62.2v28.7h-24.9v27.2H413V757h-23.3v31.6h27.4V817.3z M419.2,654c-4.4,0.3-8.8,0.6-13.2,0.9c-1.3,0.1-1.8-0.4-2.2-1.6
		c-4.4-14.4-8.3-28.9-12.9-43.2c-0.2-0.6-0.4-1.2-0.7-1.8c-0.1,0-0.3,0-0.4,0c-0.2,3.5-0.4,7-0.5,10.5c-0.3,9.8-0.7,19.6-0.9,29.4
		c0,1.4-0.4,1.9-1.9,1.9c-11.2-0.1-22.3-0.1-33.5,0c-1.3,0-1.6-0.3-1.6-1.6c0-47.5,0-95,0-142.5c0-1.2,0.3-1.5,1.5-1.5
		c15.5,0.2,30.9,0.3,46.4,0.4c11.6,0.1,20.6,5.5,27.9,14.1c6,7.1,10,15.4,11.6,24.5c2.7,15.2,1.2,29.9-7.9,43
		c-1.7,2.4-3.6,4.6-5.9,6.5c-0.8,0.7-1,1.2-0.7,2.3c5.8,17.8,11.7,35.5,17.3,53.3c1.1,3.4,1.1,3.5-2.4,3.8
		C432.7,652.9,426,653.4,419.2,654z M508.2,726.5c0,9.2-0.9,15.8-2.8,20c-1.9,4.2-5.4,7.4-10.4,9.7s-11.7,3.4-19.8,3.4h-10v57.8
		h-37.3V673.8h37.6c10.2,0,18,0.8,23.4,2.4c5.5,1.6,9.6,3.9,12.3,6.9c2.7,3,4.6,6.7,5.6,10.9c1,4.3,1.5,10.9,1.5,19.9V726.5z
		 M501.6,548.4c-1.5,0-1.8,0.4-1.8,1.8c0,32.3,0,64.6,0,96.8c0,2.5,0.2,2.1-2.1,2.1c-11.6,0-23.2,0-34.8,0c-1.3,0-1.7-0.3-1.7-1.7
		c0-17.3,0-34.7,0-52c0-17.3,0-34.6,0-51.9c0-1.3-0.3-1.8-1.7-1.8c-5.8,0.1-11.6,0-17.4,0c-0.9,0-1.4-0.1-1.3-1.2
		c0.2-11.4-0.2-22.9,0.2-34.3c0.1-1.6,0.7-1.8,2-1.7c8.8,0.7,17.5,1.4,26.3,2.1c9.1,0.7,18.1,1.5,27.2,2.3
		c6.8,0.6,13.6,1.1,20.5,1.6c3.6,0.3,3.6,0.2,3.6,3.8c0,10.8,0,21.6,0,32.4c0,1.2-0.3,1.6-1.6,1.6
		C513.3,548.4,507.4,548.5,501.6,548.4z M583.7,817.3H519V673.8h62.2v28.7h-24.9v27.2h23.3V757h-23.3v31.6h27.4V817.3z M582.9,650.1
		c-7.2-17.5-14.6-35-21.9-52.4c-0.7-1.7-1.4-3.4-2.4-5c-0.5,0.5-0.3,1-0.3,1.5c0.4,16.6,0.8,33.2,1.7,49.7c0.1,1,0.5,2.4,0.1,2.9
		c-0.7,0.8-2.1,0.3-3.2,0.3c-10.3,0-20.5,0-30.8,0c-1.2,0-1.6-0.2-1.6-1.5c0-44.9,0-89.7,0-134.6c0-1,0.2-1.4,1.3-1.6
		c9.3-2,18.6-3.9,27.9-5.5c1.4-0.2,2.1,0.1,2.6,1.5c8.2,20.2,16.4,40.5,24.6,60.7c0.2,0.5,0.5,1,0.7,1.6c0.1,0,0.2,0,0.2-0.1
		c-0.2-3.5-0.5-6.9-0.7-10.4c-0.6-7.6-1.1-15.1-1.7-22.7c-0.6-7.3-1.1-14.5-1.7-21.8c-0.2-3.2-0.4-6.4-0.8-9.6
		c-0.1-1,0.2-1.2,1.1-1.1c5.8,0,11.5,0,17.3,0c5.4,0,10.7,0,16.1,0c1.3,0,1.6,0.3,1.7,1.6c0.1,25.9,0.2,51.9,0.4,77.8
		c0.1,22.2,0.3,44.5,0.5,66.7c0,1.4-0.4,1.9-1.8,2c-8.5,0.6-16.9,1.3-25.4,2c-0.2,0-0.5,0-0.7,0.1
		C584.4,652.6,583.5,651.8,582.9,650.1z M642.1,817.3l-2-25.8h-13.3l-2.2,25.8h-38.6l19-143.5h53.9l21.3,143.5H642.1z M751.8,702.5
		h-22.2v114.8h-37.3V702.5h-22.1v-28.7h81.6V702.5z M788.4,561.4c0,1.1,0.3,1.4,1.4,1.4c7,0,13.9,0,20.9,0c1.3,0,1.8,0.2,1.8,1.7
		c-0.1,10.4-0.1,20.8,0,31.2c0,1.2-0.3,1.5-1.5,1.5c-6.8-0.1-13.5,0-20.3,0c-1.1,0-1.6,0.2-1.5,1.5c0.1,8.6,0,17.2,0,25.8
		c0,1.1,0.3,1.5,1.5,1.5c8.1-0.1,16.1,0,24.2-0.1c1.2,0,1.6,0.3,1.6,1.5c-0.1,11.1,0,22.2-0.1,33.3c0,5-0.1,5-5.1,4.6
		c-7.9-0.6-15.8-1.1-23.6-1.6c-7.6-0.5-15.3-1.2-22.9-1.7c-4.3-0.3-8.6-0.7-12.9-0.9c-1.1-0.1-1.5-0.4-1.5-1.6
		c0-52.2,0-104.3,0-156.5c0-1.2,0.4-1.5,1.5-1.6c6.6-0.5,13.3-1.1,19.9-1.6c7.9-0.7,15.7-1.3,23.6-2c6.6-0.5,13.3-1.1,19.9-1.6
		c1-0.1,1.3,0.2,1.3,1.2c0,6.7,0,13.4,0,20.1c0,6.6,0,13.2,0,19.8c0,1.4-0.5,1.7-1.7,1.7c-8,0.3-16.1,0.6-24.1,1
		c-2.2,0.1-2.2,0.1-2.2,2.3C788.4,548.5,788.4,554.9,788.4,561.4z"/>
	<path d="M666,401c1.3-1.7,2-5.2,2-10.5v-11.8c0-4.9-0.8-8.1-2.3-9.6c-1.5-1.5-4.7-2.2-9.6-2.2v36.5c1.1,0.1,2,0.1,2.7,0.1
		C662.3,403.6,664.7,402.7,666,401z"/>
	<path d="M291.9,698.4v31.9c4.2,0,7.1-0.6,8.8-1.7c1.7-1.2,2.5-4.9,2.5-11.2v-7.9c0-4.5-0.8-7.5-2.4-9
		C299.2,699.1,296.3,698.4,291.9,698.4z"/>
	<path d="M626.3,766.1h12.8c-1.9-16.3-3.8-36.3-5.7-60.3C629.7,733.3,627.3,753.4,626.3,766.1z"/>
</g>
<g id="Preview_SVGDe_00000095335002883935359730000016064185028702923417_">
	<g>
		<defs>
			<rect id="SVGID_00000114059903062161370570000009330212869339823286_" x="960.9" y="1354.9" width="1000" height="1500"/>
		</defs>
		<clipPath id="SVGID_00000108306542316006953960000010788935660489102747_">
			<use xlink:href="#SVGID_00000114059903062161370570000009330212869339823286_"  style="overflow:visible;"/>
		</clipPath>
		<g style="clip-path:url(#SVGID_00000108306542316006953960000010788935660489102747_);">
			<g>
				<defs>
					<rect id="SVGID_00000053506577332531863040000016331899951046770333_" x="661.7" y="1305.8" width="1598.2" height="1598.2"/>
				</defs>
				<clipPath id="SVGID_00000003825802978259838980000001324940003714222766_">
					<use xlink:href="#SVGID_00000053506577332531863040000016331899951046770333_"  style="overflow:visible;"/>
				</clipPath>
				<g style="opacity:0.25;clip-path:url(#SVGID_00000003825802978259838980000001324940003714222766_);">
				</g>
			</g>
		</g>
	</g>
</g>
</svg>
