<?xml version="1.0" encoding="utf-8"?>
<!-- Generator: Adobe Illustrator 25.4.1, SVG Export Plug-In . SVG Version: 6.00 Build 0)  -->
<svg version="1.1" id="Layer_1" xmlns="http://www.w3.org/2000/svg" xmlns:xlink="http://www.w3.org/1999/xlink" x="0px" y="0px"
	 viewBox="0 0 1000 1000" style="enable-background:new 0 0 1000 1000;" xml:space="preserve">
<style type="text/css">
	.st0{fill:#414042;}
	.st1{fill:url(#SVGID_1_);}
	.st2{fill:#FFFFFF;}
	.st3{fill:url(#SVGID_00000083789739507916358220000018020124057637316480_);}
	.st4{fill:#754C29;}
	.st5{fill:url(#SVGID_00000029024126274007452210000015875622829119992454_);}
	.st6{fill:#363F45;}
	.st7{clip-path:url(#SVGID_00000161607862378958393040000011081072882073201282_);}
	.st8{opacity:0.25;clip-path:url(#SVGID_00000179648354392594673240000000446937033713886098_);}
	.st9{fill:#414141;}
	.st10{fill:#939598;}
	.st11{fill:url(#SVGID_00000103958233756877731740000017069013218106571940_);}
	.st12{fill:url(#SVGID_00000145052183943483173570000006174889723799338424_);}
	.st13{fill:url(#SVGID_00000141456185883117143420000006027092032122586028_);}
</style>
<path d="M661.1,501.1c-4-2-6.2-0.8-8.7,5.5c-2.8,6.9-2.8,7.1-8.7,8.2c-3.3,0.6-4.8,3.5-6.2,6.4c-1.4,2.8-2.5,5.6-3.7,8.4
	c-0.4,0.8-0.7,1.8-2,2.6c0-4.3,1.5-8.8,2.3-13c1.3-6.1,2.3-12.1,1.8-17.9c-0.3-4.1-2.2-7-4.5-9.6c-5.3-6-10.6-12.2-16.1-18.6
	c-3.7-4.4-9.1-6.1-14.7-7.5c-2.7-0.7-5.5-1.3-8-2.7c-2-1.1-3.6-2.7-4.6-5c-3.7-9.7-12.7-15.4-23.1-15c-1.1,0-2.5,0.3-2.9-0.8
	c-0.3-1.2,0.7-2.5,1.6-3.5c2.4-2.7,5.5-3.8,8.5-5.1c4.9-2.1,9.7-4.4,14.3-7.1c6.1-3.6,9.4-9,10-16.1c0.5-5.2,0.7-10.3-0.3-15.2
	c-0.7-3.8-1.7-7.7-4.5-10c-6.3-5-8.2-12.5-9.2-20.7c-0.4-3.4-1.6-6.3-3.4-8.8c-4-5.6-3.9-12.8-4.7-19.5
	c-1.4-13.4-8.9-25.2-20.5-32.1c-3.8-2.3-6.9-4.9-8-9.7c-0.3-1.2-0.8-2.3-1.7-2.8c-4.4-2.2-7.5-6.2-11.1-9.6c-2-1.9-3.9-2.4-6.5-1.1
	c-4,2-4.9,1.3-4.2-3.4c0.2-1.6-0.1-2.5-1.4-3c-0.9-0.3-2.3-0.7-2.5-1.4c-1.9-5.7-6.9-8.9-9.6-14c-0.2-0.4-0.3-1.1-0.6-1.4
	c-5.7-5.8-3.4-13-1.1-18.7c3.4-8.4,2.3-16.4,1.3-24.7c-0.4-3-0.8-6.1-0.5-9c0.7-7.6-0.6-14.7-2.9-21.9c-3.4-10.6-15.2-18.2-26-14
	c-4.7,1.8-9.3,4.7-13.9,7c-1,0.5-1.4,1-0.9,2.4c0.9,2.3,0,3.9-1.6,5.7c-5.5,6.1-8,13.4-5.8,22.1c0.4,1.6,0.6,3.3,1.1,4.9
	c1.3,4.5,1.4,8.5-0.7,13c-2.4,5.3-0.2,11.8,4.8,14.8c2.7,1.7,3.5,3.7,3,6.6c-0.4,2.3-0.6,4.7-1.3,6.9c-1.6,5.1-3.7,6.1-8.4,5.4
	c-3.3-0.5-6.7-0.6-10.1-0.5c-2.1,0.1-3.6-0.6-5-2.4c-2.2-2.8-5.1-4.3-8.4-5.1c-12.6-3.1-25.5,0.9-34.8,9.6c-0.2,0.2-0.4,0.3-0.5,0.5
	c-3.5,4-7.3,6.3-13.2,4.4c-4.5-1.4-9.1-0.6-13.1,2c-0.7,0.5-1.7,0.6-2.6,0.8c-0.8,0.1-1.7,0.1-2.1-1c-0.3-0.8-0.1-1.5,0.5-2
	c3.2-2.2,3.2-5.4,2-9.1c-0.6-1.9-0.6-3.8-0.3-5.5c1.1-6.7,0.5-13.6,0.8-20.3c0.1-2.5,0.4-5-1.3-7.5c-1.4-2.2,1.9-7.6,4.4-7.9
	c1.4-0.2,2.8-0.5,4.2-0.7c5.9-0.7,10.1-3.3,10.6-10.4c0.2-3.3,2.4-5.6,4.3-7.9c3.8-4.4,7.7-8.8,10.3-14.3c1.2-2.4,2.5-4.9,0.4-7.4
	c-1.9-2.4-3.5-5.9-7.5-3.7c-1.4,0.8-1.5-0.4-1.4-1.6c0.1-1.9,0.1-3.8-1.4-5.2c-1.5-1.5-2.9-2.6-4.9-0.8c-1.2,1-2.4,1.4-3.9,0.1
	c-4.3-3.8-9-6.7-14-9.2c-0.7,0-1.4,0-2.1,0c-1.6,1.6-3.5,3.1-4.9,4.8c-6.1,7.3-11.6,15.9-16,24.3c-1.9,3.6-3.7,7.2-4,11.3
	c-0.2,2.8-0.8,5.4-1.8,8c-1.5,4-2,8.2,0,12.2c1.4,3,1.2,5.5,0.5,8.3c-2.5,9.9-4.7,19.9-7.2,29.8c-2,7.8,1,16.4-0.3,24.3
	c-0.4,2.4-0.1,5,0.2,7.5c1.1,10.6,6.9,18.3,15.6,20.2c7.5,1.7,15.1,2.8,22.4,1c2.6-0.6,5.2-0.9,6.2,3.1c1.8-0.6,1.7-3.7,4.1-2.7
	c4.8,2.1,9,0.8,13.3-0.8c3.7-1.3,7.4-2.8,11.6-1.9c3,0.6,4.8,2,4.7,5.7c-0.2,5.9-0.1,11.9-0.1,17.7c0.1,8.9,1,19.5,4.1,28
	c1,2.8,1.6,5.6,1.7,8.4c0.1,4.1,1.5,7.9,2.5,11.8c1.8,6.8,3,13.9-1.2,19.7c-0.8,1.1-0.4,2.3-0.1,3.6c0.9,3.3,2.8,6,4.1,9.1
	c3.4,7.9,1.9,11.1-5.6,11c-0.1,0-0.2,0-0.4,0c-3.8-0.7-5.5,1.7-5.8,5c-0.6,6.6-2.1,13.1-0.1,20.2c0.4,1.4,0.3,2.8,0.1,4.2
	c-1.1,5.7-2.1,11.4-3,17.2c-2.1,13.4-3.3,13.2,7.9,21.2c1.8,1.3,2.2,2.4,1.6,4.3c-2.3,7.6-4.4,15.2-6.7,22.6
	c-4.9,16.3-9.3,33-16.1,48.2c-0.7,1.6-1.2,3.3,0.5,5.7c5.1,7.3,5.6,10.7,2.1,16.7c-2.3,3.9-2.2,8.1,0.1,13.4c2,4.5,4.8,9,5.2,13.6
	c0.9,10.4,1.6,21.4,3.8,31.8c0.1,0.6,0,1.3,0,1.9c-0.1,1.2-0.9,1.5-1.9,1.5c-3.1,0-6.1-3.4-6.3-6.9c0-1-0.2-2.1-0.2-3.1
	c0-1.6-0.4-2.7-2.2-3.5c-1.9-0.9-2.6,0-2.8,1.5c-0.8,4-1.6,7.9-2.2,11.9c-1.2,8.3-0.7,16.9,4.2,26.4c1.7,3.3,3.3,6.9,4.5,10.3
	c3.6,10.1,6.2,20.7,6.4,31.9c0.2,6.1,1.3,12.2,3.4,18.7c3,9.2,2.6,17.9,1,25.9c-0.3,1.6-1.7,2.1-3,1.9c-4.3-0.6-5.9,1.9-7,5.4
	c-1.3,3.9-2.5,7.9-2.1,12.6c0.5,5.7-1.5,9.3-4.4,12.1c-3.9,3.7-7.4,7.7-8.8,13.7c-1.5,6.1-5.2,11.3,0.5,20.9
	c2.8,4.7,6.3,8.9,9.7,12.8c2.6,3.1,6.1,4,9,2.8c1.7-0.7,3.9,0.3,5.2,2.7c1.8,3.2,3.6,3.3,5.7,3.1c1.4-0.2,2.9-0.3,4.4-0.3
	c2,0,3.2-0.6,2.9-3.1c-0.2-1.5,0.3-2.3,2-1.8c4.9,1.6,7.4-1.2,9.1-5c0.7-1.5,1.1-3.2,2.2-4.3c3.6-3.7,3.9-8,0.6-14
	c-2.4-4.3-1.3-6.4,2.5-7.6c3.7-1.1,5.5-3.6,5.5-8.4c0-5.9-0.3-11.4-3.7-17.1c-0.8-1.2-0.8-2.6-0.9-3.9c-0.9-11.9-1.5-23.7-4-34.9
	c-0.4-1.9-0.2-3.9,0.1-5.8c1.9-10.5,5.2-20.6,7.3-31c0.6-3.4,2-5.3,5.6-5.1c2.2,0.1,4.3-0.6,5.5-2.7c2.7-5.1,4.5-10.6,2.6-16.9
	c-1.7-5.7-1.1-10.7,1-15.5c1.2-2.8,0.8-5.1-1.2-7.7c-3.1-4-6.1-8.1-9.1-12.2c-1.3-1.7-1.3-2.9-0.5-4.8c2.1-5,3.4-10.4,6.9-14.7
	c1.1-1.3,0.9-3.9,0.9-6c0.2-5.1-0.5-10.2-1-15.4c-0.4-3.9-0.7-8.1,1.8-10.6c3.6-3.6,4.1-8.2,3.9-13.3c-0.1-4.5,0-8.9,0-13.4
	c0-3.7,1-7.1,2.9-10.1c1.2-2,2.6-3.9,3.5-6.1c1.4-3,3.6-4.9,6.4-6.3c14.8-6.4,29.6-10.6,45.3-13.8c6-1.2,12.3-2,18.1-4.8
	c2.6-1.3,5.2-1.9,7.6-1.3c9.1,2.3,18.4,3.7,26.7,7.3c5.4,2.4,5.5,4.1,0.5,8.8c-6.5,6.3-6.5,6.3-3.2,13.3c2,4.3,2.7,8.7-0.6,13.7
	c-4.7,7.1-3.1,18.3,3.2,21.5c3.5,1.8,6.3,4.1,7.1,8.4c2.9,16,4.1,31.9,4.1,48.3c-0.2,5-1.7,9.9-4.4,14.8
	c-4.1,7.3-8.6,13.8-15.4,18.5c-1.6,1.1-3.5,2.2-4.1,4.5c-1.6,5.8,1.4,11.2,6.5,11.7c-2.2,7.4,2.6,12.9,9.4,10.6
	c2.2-0.8,4.9-1.9,6,0.2c2.6,5.4,7.7,9.3,5.6,17.6c-0.2,0.7-0.3,1.4,0.2,1.7c2.3,1.2,4.1,3.6,7,3.2c4.3-0.6,5.3,1.6,5.3,5.7
	c0,4.5,4.8,8.6,8.8,7.9c1.9-0.3,3.3,0.2,3.3,2.5c0,2.9,1.3,4.3,3.2,5c1.9,0.7,4,1.2,5.9,1.9c1.8,0.6,3.3,0.4,4.8-2.9
	c0.8-1.8,1.9-1.9,3-1.9c4.1-0.2,7.2-3.7,9.9-8.7c3.7-6.8,5-13.4,7.1-20.1c1.4-4.6,0.9-7.4-0.9-9.6c-2.4-3-4.4-6.5-5.9-10.7
	c-1-3-1.5-6.6-3.4-8.6c-1.9-1.9-0.9-4.1,1.5-6.6c2.5-2.6,3-4.8,2.2-7.2c-1.4-3.9-2.5-8.2-4-12.1c-1.4-3.8-5.6-4.4-10.1-2.1
	c-1.3,0.6-2.1,1.3-1.7,2.7c0.4,1.3,0.5,2.6-1.2,3.8c-1.9,1.4-2.4-0.1-3-1.2c-3.5-6-5.3-13.2-6.1-21.2c-0.3-2.5,0.3-4.3,2.8-5.6
	c2.2-1.2,3-2.9,3.4-5.3c1.2-7.2,3.3-14.4,5.7-21.6c8.3-24.7,18.9-48,31.6-70.7c6.2-9.9,13.6-19.8,15-31.7c0-3.1,0-6.2,0-9.3
	C665.1,504.6,663.4,502.3,661.1,501.1z M554.1,405.6c-3,3.9-6.3,6.6-10.8,8.2c-4.8,1.7-8.9,5.6-14.2,6.5c-1.9,0.3-2.4,3.6-4.8,4.1
	c-1.9,0.4-2.6,0.2-2.7-2.1c-0.1-6.6,0-12.8,3.1-19.1c2.1-4.2,3.4-8.9,5.1-13.4c2.2-5.7,4.4-11.3,9-15.3c1.3-1.1,1.2-3.3,3.1-4.2
	c3.5,9.9,8.1,19.8,13.1,29.1C556.2,401.7,555.8,403.3,554.1,405.6z"/>
</svg>
