<?xml version="1.0" encoding="utf-8"?>
<!-- Generator: Adobe Illustrator 25.4.1, SVG Export Plug-In . SVG Version: 6.00 Build 0)  -->
<svg version="1.1" id="Layer_1" xmlns="http://www.w3.org/2000/svg" xmlns:xlink="http://www.w3.org/1999/xlink" x="0px" y="0px"
	 viewBox="0 0 1000 1000" style="enable-background:new 0 0 1000 1000;" xml:space="preserve">
<style type="text/css">
	.st0{fill:#414042;}
	.st1{fill:url(#SVGID_1_);}
	.st2{fill:#FFFFFF;}
	.st3{fill:url(#SVGID_00000160901660907765536910000001679387025231408525_);}
	.st4{fill:#754C29;}
	.st5{fill:url(#SVGID_00000172432336746921822830000006599760472552251551_);}
	.st6{fill:#363F45;}
	.st7{clip-path:url(#SVGID_00000018231577767368457930000004777739085453940909_);}
	.st8{opacity:0.25;clip-path:url(#SVGID_00000037683108297368858090000017252171190336295574_);}
	.st9{fill:#414141;}
	.st10{fill:#939598;}
	.st11{fill:url(#SVGID_00000147919704805647986210000018106909186117278128_);}
	.st12{fill:url(#SVGID_00000083053397496313601410000015246286787357981337_);}
	.st13{fill:url(#SVGID_00000057852851644160513810000009403699638425124260_);}
</style>
<path d="M732.7,363.2c-0.3-5.4-1.9-10.6-3.3-15.9c-2-7.4-5-15.3-2.6-22.5c2.4-7.3,1.3-17.2-1.4-24.4c-0.2-0.8-0.3-1.6-0.5-2.5
	c-1-10.9-1.3-21.8-1.8-32.7c-1-15.1-13.9-26-27.8-29c-6-1.3-12.5-1.2-18.6-2.3c-3.6-0.6-6.8-1.7-8.5-4.5c-1.4-2.2-3.3-3-6-3
	c-1.2,0-2.4-0.2-3.5-0.3c-6.9-0.4-16.7-3.2-23.4,0.4c-0.3,0.1-1.2-0.3-1.6-0.7c-4.2-3.9-9.7-6.8-13.5-11.1c-1.9-2.2-2.3-4-1-6.8
	c2.2-4.5,3.5-9.5-0.9-13.8c-2.8-2.7-3.6-5.5-3.1-8.8c0.5-3,0.9-6,1.4-9c2.3-14.3-9.4-29-23-32.5c-15.3-3.1-28.8-3-43.9-0.4
	c-2.5,0.4-3.9,2.1-4.7,4c-1.3,2.8-3.7,4.9-6.7,6.5c-3.2,1.6-7.7,2.4-5.4,7c0.2,0.5-0.4,1.3-0.9,1.9c-2.3,2.9-2.3,6.3-3.1,9.5
	c-0.6,2.4,0.4,4,3.5,4.6c1.9,0.3,3.4,0.9,3.6,2.9c1.4,8,4.4,16.9,3.1,25c-0.3,1.8,0.6,3.8,1.2,5.7c2.6,7.6,6.3,15,9.6,22.2
	c2.2,4.8,3,9.7-1.6,14c-1,1-1.6,2-0.7,3.4c1.8,2.7,0.1,4.4-2.3,5.9c-4.8,3-9.7,5.6-15.5,7c-3.8,0.9-6.8,2.2-7.4,6.1
	c-0.4,2.5-2.5,4.1-5.4,4.8c-3.1,0.8-6.2,1.5-9.3,2.3c-24.1,6.2-40.4,24.4-44,48.8c-0.7,7.2-4.9,15.7-10.1,20.7
	c-5.8,6.1-13.5,12-21.1,15.6c-7,3.4-13.4,7.5-19.3,12.2c-15.3,12.1-29.6,25-42.8,39.5c-6.6,8.1-11.8,17.5-19.7,24.3
	c-0.3,0.3-0.6,0.8-0.6,1.1c0.4,4.7-1.5,6.7-6.9,4.8c-0.2-0.1-0.6,0.2-0.8,0.3c-13.2,5.8-27.1,10.4-38.9,18.9
	c-4.2,3.2-9,4.7-14.2,5.8c-6.1,1.3-12.3,1.7-18.5,1.8c-1.5,0-2.7,0.3-3.8,1.2c0.1,0.8,0.1,1.7,0.2,2.5c5.1,4.5,11.7,5,18.3,5.6
	c6.6,0.5,13.3,0.2,19.9-0.3c2.9-0.3,4.8,0.4,6.5,2.7c3.5,5.2,8.5,6,14.1,2.4c6.6-4.1,14.6-7.5,22.1-9.5c7-2.1,12.5-5.6,16.3-11.1
	c8.9-13.8,23.1-23.9,38.6-28.9c7.2-2.3,14-5.5,21-8.3c1.2-0.5,2.7-0.9,3.4-2.2c2.4-4.7,7.2-7.1,12-9.6c5.9-3.1,10.5-7.5,14.5-12.4
	c5.2-6.4,11-12.7,17-18.4c11.7-12,21.6-24.8,30.9-38.8c4.2-6.6,7.9-7.6,16.4-4.2c-12.7,6.8-17.7,20.5-12.7,33.7
	c-3.6-1.2-6.1-3.2-9.4-3.8c-3.6-0.7-6.8-0.2-9.5,1.5c-5.7,3.5-8.9,8.9-13,13.6c-0.8,0.9-0.8,2.3-0.3,3.2c1.9,3.2,0.1,5.3-2.2,7.7
	c-7.8,8.2-15.4,16.7-24.1,23.9c-4.6,3.7-3.1,10.6,2.5,14.9c4.8,3.8,4.8,3.8,0.8,8.4c-12.3,14-24.6,28.2-36.8,42.4
	c-4.6,5.4-10.1,10.2-16.3,14c-3.9,2.4-5.1,5.3-4,9.2c2.5,8.3-0.5,14.6-8.4,19.2c-7.8,4.5-8.7,11.7-8.8,19c0.2,7.9-0.5,17.1-3.4,24.5
	c-1.9,5.1,1,10.3,2.7,15.3c2.7,8.1,6.7,16.1,10.9,23.5c-2-1.6-3.9-3.1-5.9-4.7c-2.4-2-4.9-3-7.9-0.7c-2.5,1.9-4.6,1.1-6.6-0.9
	c-1.6-1.7-3.3-3.2-5-4.7c-3.8-3.3-5-3.1-8.9,0.4c-12.9,10.3-5.5,29.9,6.6,37c7,3.9,14.1,7.3,21,11.4c17.4,10.7,31.6,25.7,43.4,42.2
	c3.6,5,6.9,10.2,10.2,15.4c2,3,4,5.5,8.5,5.1c3.3-0.3,3,2.8,3.2,4.8c0.6,6.9,0.7,13.8,2.2,20.6c1.2,5.2,3.2,10.3,4.4,15.5
	c1.7,8.7,0.4,18.1,0,26.9c-0.7,10.3-2.1,20.7-1.7,30.6c0.3,7.6,4.8,14.3,10.3,19.9c2,2,4.6,2.6,7.3,2.2c2.2-0.3,4.4-0.9,6.6-1.1
	c3.2-0.4,5.2-1.8,5.4-5.2c0.2-3,1.9-3.5,4.6-3c3.5,0.7,12.3-5.5,12.8-8.7c0.1-0.6-0.3-1.3-0.6-1.9c-1.4-2.8-0.4-5,1.6-7.1
	c4.7-4.7,7.8-10,6.5-17c-0.2-1.1,0.5-1.9,1.2-2.5c4.8-3.9,4.6-9.2,4.4-14.4c0-1.3-0.6-2.4-1.8-3.1c-3.8-2.2-5-5.8-5.7-9.7
	c-0.3-1.8-0.5-3.6-1.1-5.2c-0.8-2.3,0.1-3.6,2-4.8c7.8-5.1,9.1-9,6.1-17.6c-0.2-0.5-0.4-1-0.5-1.6c-1.2-6.5-4.6-10.2-12.1-9.9
	c-3.9,0.2-6.8-2.4-8.4-5.7c-1.4-3-3.3-5.1-6.8-5.8c-1.7-0.3-2.9-1.4-3.4-3c-0.5-1.7-1.1-4,0.1-5.2c1.2-1.2,2.8,0.6,4.2,1.3
	c10.6,5,21.3,9.9,30.8,16.9c12.5,9.1,22.2,22.6,27.3,37c7,19.6,11.1,38.8,10.9,59.9c-0.7,8.7-1.1,18.3,0.6,26.8
	c0.3,1.3,0.7,2.7,0.8,4c0.6,6.4,3.6,10.8,9.7,13c1.9,0,3.9,0.1,5.8,0.1c4-4.1,7.8-3.5,11.6,0.3c0.3,0,0.6,0,0.8,0
	c1.4-0.6,2.7-1.2,4.1-1.8c3.3-1.3,6.4-2.5,4.6-7.2c-0.6-1.6,0.5-3.8,2.7-3c6.3,2.5,9.4-1.7,11.5-6c4.8-11,6.4-16.9,5.5-29
	c-1.4-5.8-3.2-10.5-8.7-13.7c-5.1-3-5.5-5.7-2.6-11.1c0.9-1.7,1.8-3.7,0.7-5.1c-4.3-5.3-6.8-12-12.8-15.8c-3.8-2.4-6.1-5.7-7.4-9.7
	c-2.4-7.4-5-14.9-6.9-22.2c-3.7-14.9-4.3-28.4-1.9-43.9c1.7-7.6,3.2-15.1,2-22.9c-0.5-3.6-1.5-7.1-1.4-10.7c0.1-6.8-3.5-11-9.2-14.5
	c-6.8-4.3-14.2-8-21.6-11.3c8.3-7.1,13.5-16.8,17.2-26.9c0.7-1.9,1.6-3.8,2.6-5.7c5.9-11.2,4.8-9.3,15.2-8.6
	c7.1,0.5,10.8-1.8,13.4-8c0.8-2,1.4-4.2,2-6.3c3-11.1,3.9-22.6,4.5-34.1c0.2-2.8,0.2-6.2,3-7.4c5-2.2,5.1-6.2,5.6-10
	c0.9-6.2,1.3-12.4-4.2-17.6c-4.5-4.2-4.4-4.4,0.8-8.2c8.7-6.1,16.9-12,25-18.8c10.4-9.8,21.8-18.7,34.2-25.8
	c4.4-2.6,8.4-5.6,9.6-10.7c0.4-1.9,2-3.3,3.6-4.7c16.8-15.1,32.7-30.9,48.9-46.6C728.8,383.8,733.4,373.8,732.7,363.2z M460.5,590.1
	c-3.2-1.2-6.3-2.6-9.3-4c-2.5-1.1-3.8-2.8-2-5.3c4.1-5.5,4.7-11.4,2.6-17.8c-0.8-2.5,0.3-4.8,1.9-7c7.2-9.7,14.4-19.5,21.7-29.2
	c2.2-2.9,4.7-5.3,8.9-5.9c3.1-0.4,4.7-3.3,7.7-5.3c2.1,20.1,1,39.6-4.3,58.2c-2.8,9.6-7.1,19.6-10.8,29.3c-0.8,2.4-1.7,4.7-1.6,7.3
	c0,1,0.1,2.1-1.1,2.5c-1.2,0.4-2.4-0.2-3.2-1c-3.2-3-3.7-6.8-3.3-10.8C468.5,593.1,468.3,592.9,460.5,590.1z M492.4,667.9
	c-2.1,1.6-3.7,5.8-6.9,2.8c-6.8-5.7-14.9-11-17.1-20.2c-0.4-1.7-1.1-3.2,0.6-4.5c2.8-2.1,4.9-4.7,7.3-8.4
	c2.2,10.4,7.8,19.8,15.9,26.6C493.7,665.4,494.2,666.5,492.4,667.9z M600.8,479.9c-7.3,4.4-12.7,12.6-17.6,19.4
	c-0.4,0.5-0.5,1.3-1.7,1.4c-1.6-1.7-1.1-3.6,0-5.2c1.6-2.7,3.4-5.2,5.3-7.7c2.6-3.5,4.8-7.1,4.8-11.4c0-1.5,0.5-2.6,2.3-3.1
	c4.6-1.2,8.5-3.6,12.8-6.2C607.2,472.6,605.7,476.9,600.8,479.9z M681.9,367.2c-6.9,8.5-10.3,14.7-13.8,25
	c-4.6,18.2-16.7,32.1-29.5,45.2c-1.4,1.4-3.2,2.4-5.3,2.3c-7.8-0.6-13.7,3.1-19.7,6.5c-6.2,3.5-12.4,6.7-19.6,8.4
	c-5.6,1.4-7.7,5.6-9.5,9.9c-0.6,1.3-0.4,3.4-2.9,2.8c-2.3-0.6-2.1-2.6-1.7-4.2c0.5-2.3,2.3-3.9,4.2-5.3c9.3-6.7,18.6-13.4,27.9-19.9
	c4.7-3.3,8.3-7.1,10.9-12.1c12.7-24.5,30.1-44.7,52-61.4c2.7-2,4.7-4.4,6.4-7.6C685.7,361.4,685.7,363.4,681.9,367.2z"/>
</svg>
