<?xml version="1.0" encoding="utf-8"?>
<!-- Generator: Adobe Illustrator 25.4.1, SVG Export Plug-In . SVG Version: 6.00 Build 0)  -->
<svg version="1.1" id="Layer_1" xmlns="http://www.w3.org/2000/svg" xmlns:xlink="http://www.w3.org/1999/xlink" x="0px" y="0px"
	 viewBox="0 0 1000 1000" style="enable-background:new 0 0 1000 1000;" xml:space="preserve">
<style type="text/css">
	.st0{fill:#414042;}
	.st1{fill:url(#SVGID_1_);}
	.st2{fill:#FFFFFF;}
	.st3{fill:url(#SVGID_00000167385247463256854270000006418196393306654882_);}
	.st4{fill:#754C29;}
	.st5{fill:url(#SVGID_00000027581792718155930050000004873515451273069483_);}
	.st6{fill:#363F45;}
	.st7{clip-path:url(#SVGID_00000042720354619254692480000002683170990523567031_);}
	.st8{opacity:0.25;clip-path:url(#SVGID_00000122704193708571192790000004659905646813422514_);}
	.st9{fill:#414141;}
	.st10{fill:#939598;}
	.st11{fill:url(#SVGID_00000099652704805209967500000005041635819434704549_);}
	.st12{fill:url(#SVGID_00000075162347577109560960000007255081847583427255_);}
	.st13{fill:url(#SVGID_00000090274669466589509870000001859867461638322832_);}
</style>
<g id="_x32_0E6d0.tif">
	<g>
		<path d="M222.9,400.1c-0.6,6.1-1.2,12.3-1.8,18.4c-0.8,7.8-1.6,15.7-2.3,23.5c-0.1,1.3-0.6,1.5-1.8,1.5c-9.8,0-19.6,0.1-29.4,0
			c-1.5,0-2,0.3-2,1.9c0.1,9.5,0.1,19,0,28.6c0,1.4,0.4,1.8,1.8,1.8c8.3-0.1,16.6,0,24.9-0.1c1.6,0,2.1,0.3,2.1,2
			c-0.2,9.1-0.4,18.1-0.5,27.2c-0.1,3.8-0.1,7.6,0,11.4c0,1.6-0.3,2.1-2,2.1c-8.1-0.1-16.2,0-24.3-0.1c-1.6,0-1.8,0.5-1.8,1.9
			c0,23.2,0,46.4,0.1,69.5c0,1.7-0.5,2.2-2.1,2.5c-13.6,2.5-27.3,5-40.9,7.6c-0.6,0.1-1.1,0.3-1.6-0.2c0-66.5,0-133.1,0-199.6
			C168.4,400.1,195.6,400.1,222.9,400.1z"/>
		<path d="M593,484c-0.3-3.9-0.5-7.9-0.8-11.8c-0.6-8.6-1.3-17.2-1.9-25.7c-0.6-8.2-1.3-16.5-1.9-24.7c-0.3-3.6-0.5-7.2-0.9-10.8
			c-0.1-1.1,0.2-1.3,1.2-1.3c6.5,0,13,0,19.6,0c6.1,0,12.1,0.1,18.2,0c1.5,0,1.9,0.4,1.9,1.9c0.1,29.4,0.2,58.8,0.4,88.2
			c0.2,25.2,0.4,50.4,0.6,75.6c0,1.6-0.4,2.1-2,2.3c-9.6,0.7-19.2,1.5-28.8,2.3c-0.3,0-0.6,0-0.8,0.1c-2,0.5-2.9-0.4-3.7-2.3
			c-8.2-19.8-16.5-39.7-24.8-59.5c-0.8-1.9-1.5-3.8-2.7-5.7c-0.6,0.6-0.4,1.2-0.4,1.7c0.5,18.8,1,37.6,1.9,56.4
			c0.1,1.1,0.6,2.7,0.1,3.3c-0.8,0.9-2.3,0.3-3.6,0.3c-11.6,0-23.3,0-34.9,0c-1.4,0-1.8-0.3-1.8-1.7c0-50.9,0-101.8,0-152.7
			c0-1.2,0.3-1.6,1.5-1.8c10.5-2.2,21-4.4,31.6-6.2c1.6-0.3,2.4,0.1,3,1.7c9.3,23,18.6,45.9,27.9,68.8c0.2,0.6,0.5,1.2,0.8,1.8
			C592.8,484,592.9,484,593,484z"/>
		<path d="M375.3,530.1c-0.2,4-0.4,7.9-0.6,11.9c-0.4,11.1-0.8,22.2-1.1,33.3c0,1.6-0.4,2.1-2.1,2.1c-12.7-0.1-25.3-0.1-38,0
			c-1.4,0-1.8-0.4-1.8-1.8c0-53.9,0-107.8,0-161.7c0-1.3,0.3-1.7,1.7-1.7c17.5,0.2,35.1,0.3,52.6,0.5c13.2,0.1,23.4,6.3,31.7,16
			c6.8,8.1,11.3,17.4,13.2,27.8c3,17.2,1.4,33.9-9,48.7c-1.9,2.8-4.1,5.3-6.7,7.4c-0.9,0.8-1.1,1.4-0.7,2.6
			c6.6,20.1,13.3,40.2,19.6,60.4c1.2,3.8,1.2,4-2.7,4.3c-7.6,0.7-15.2,1.3-22.9,1.9c-5,0.4-10,0.6-14.9,1c-1.5,0.1-2-0.4-2.5-1.8
			c-4.9-16.3-9.5-32.8-14.6-49c-0.2-0.7-0.5-1.4-0.7-2C375.5,530.1,375.4,530.1,375.3,530.1z M374,472.5c0,6.4,0,12.8,0,19.2
			c0,1.2-0.5,3,0.3,3.3c1,0.4,2.4-0.6,3.5-1.2c4.6-2.7,6.7-7.1,7.8-12c1.1-4.9,0.8-10,0.7-15c-0.1-4.1-1.4-7.8-3.4-11.2
			c-1.7-2.8-4.1-4.5-7.4-5.3c-1.3-0.3-1.5,0-1.5,1.2C374,458.5,374,465.5,374,472.5z"/>
		<path d="M220.2,494.6c0.2-9.1,0.1-18.1,1.4-27.1c1.9-13,4.9-25.7,12.5-36.7c7.6-11,18.2-16.7,31.4-18.1c7.2-0.8,14.4-0.7,21.4,1
			c14.5,3.4,24.1,12.6,30.2,25.9c3.9,8.4,5.9,17.3,7.1,26.4c1.6,11.7,2.3,23.5,2,35.2c-0.3,14.7-1.7,29.2-6,43.4
			c-3.3,11.1-9,20.6-18.3,27.7c-5.7,4.4-12.2,6.8-19.3,7.9c-9.6,1.5-19.1,0.9-28.3-2.3c-9.2-3.2-16.1-9.3-21.2-17.5
			c-5.4-8.6-8.3-18.2-10.2-28C220.5,519.9,219.8,507.3,220.2,494.6z M279,495c0.1-6.6-0.1-14.4-0.4-22.2c-0.2-5.9-0.5-11.9-1.7-17.7
			c-0.5-2.4-0.9-4.9-2.5-6.9c-1.3-1.6-2.3-1.5-3.5,0.1c-0.9,1.1-1.4,2.5-1.8,3.8c-1.6,5.8-2.1,11.7-2.3,17.6
			c-0.5,14.7-0.5,29.3-0.3,44c0.1,8.9,0.4,17.8,2.3,26.5c0.4,1.9,0.9,3.8,2,5.4c1.2,1.6,2.7,1.6,3.9,0c0.6-0.9,1-1.9,1.3-2.9
			c1.2-3.9,1.7-8,2-12C278.9,519.1,279.2,507.6,279,495z"/>
		<path d="M858.8,427c0,7.5-0.1,15,0,22.4c0,1.6-0.5,1.9-1.9,1.9c-9.1,0.3-18.2,0.7-27.4,1.1c-2.5,0.1-2.5,0.1-2.5,2.6
			c0,7.3,0,14.6,0,21.9c0,1.3,0.4,1.6,1.6,1.6c7.9-0.1,15.8,0,23.7-0.1c1.5,0,2,0.2,2,1.9c-0.1,11.8-0.1,23.6,0,35.4
			c0,1.3-0.3,1.7-1.7,1.7c-7.7-0.1-15.3,0-23-0.1c-1.3,0-1.8,0.3-1.8,1.7c0.1,9.7,0.1,19.5,0,29.2c0,1.3,0.3,1.7,1.7,1.7
			c9.1-0.1,18.3,0,27.4-0.1c1.4,0,1.8,0.3,1.8,1.7c-0.1,12.6,0,25.2-0.1,37.7c0,5.7-0.1,5.6-5.8,5.2c-8.9-0.7-17.9-1.2-26.8-1.9
			c-8.7-0.6-17.3-1.3-25.9-2c-4.9-0.4-9.7-0.8-14.6-1.1c-1.3-0.1-1.7-0.4-1.7-1.8c0-59.2,0-118.3,0-177.5c0-1.3,0.4-1.7,1.7-1.8
			c7.5-0.6,15-1.2,22.5-1.8c8.9-0.7,17.8-1.5,26.8-2.2c7.5-0.6,15-1.2,22.5-1.8c1.1-0.1,1.4,0.3,1.4,1.4
			C858.8,411.8,858.8,419.4,858.8,427z"/>
		<path d="M754.9,525.3c0,20.1,0,40.1,0,60.2c0,1.6-0.4,2-2,2c-13.4-0.1-26.9-0.1-40.3,0c-1.6,0-1.9-0.5-1.9-2
			c0-38.4,0-76.8,0.1-115.3c0-1.6-0.3-2.2-2.1-2.2c-6.5,0.1-13,0-19.6,0.1c-1.1,0-1.6-0.2-1.6-1.5c0.1-12,0-23.9,0.1-35.9
			c0-1.4,0.2-2.7,0.3-4.1c0-1,0.5-1.3,1.5-1.4c8.9-0.4,17.8-0.9,26.7-1.4c11.9-0.6,23.9-1.3,35.8-1.9c7.8-0.4,15.6-0.8,23.4-1.2
			c1.2-0.1,2.8-0.9,3.5,0c0.6,0.8,0.3,2.4,0.3,3.6c0.3,12.3,0.2,24.7,0.3,37.1c0,1.3-0.4,1.6-1.6,1.6c-6.9-0.1-13.7,0-20.6,0
			c-2.6,0-2.3-0.3-2.3,2.2C754.9,485.3,754.9,505.3,754.9,525.3z"/>
		<path d="M456.1,515.7c0-19.6,0-39.2,0-58.8c0-1.5-0.3-2-1.9-2c-6.6,0.1-13.2,0-19.7,0.1c-1,0-1.5-0.1-1.5-1.4
			c0.2-13-0.3-26,0.3-38.9c0.1-1.8,0.7-2,2.3-1.9c9.9,0.8,19.9,1.5,29.8,2.3c10.3,0.8,20.6,1.7,30.8,2.6c7.7,0.6,15.5,1.3,23.2,1.8
			c4.1,0.3,4.1,0.2,4.1,4.3c0,12.2,0,24.5,0,36.7c0,1.4-0.3,1.8-1.8,1.8c-6.6-0.1-13.3,0-19.9-0.1c-1.7,0-2,0.5-2,2.1
			c0,36.6,0,73.2,0,109.8c0,2.8,0.2,2.4-2.3,2.4c-13.2,0-26.3,0-39.5,0c-1.5,0-1.9-0.4-1.9-1.9C456.1,555,456.1,535.3,456.1,515.7z"
			/>
		<path d="M637.7,499.7c0-26.7,0-53.4,0-80.1c0-2.6-0.2-2.3,2.2-2.3c13.6,0,27.2,0,40.9,0c1.5,0,2,0.4,2,2c0,53.6,0,107.1,0,160.7
			c0,1.6-0.3,2.1-2,2.1c-13.7-0.1-27.3-0.1-41,0c-1.6,0-2.1-0.4-2.1-2.1C637.7,553.2,637.7,526.4,637.7,499.7z"/>
	</g>
</g>
</svg>
